/* XPM */
static char *_3a181888cb9478c8aa99355b02fbfe7Yfj1hiNVZLn0E2MG[] = {
/* columns rows colors chars-per-pixel */
"64 64 234 2 ",
"   c #000000",
".  c #0C0200",
"X  c #040B02",
"o  c #0D0B00",
"O  c #130400",
"+  c #1C0000",
"@  c #120C00",
"#  c #0F1300",
"$  c #141300",
"%  c #181402",
"&  c #161A00",
"*  c #1A1C00",
"=  c #1B1A14",
"-  c #1E1B18",
";  c #220000",
":  c #2C0D06",
">  c #24020A",
",  c #321003",
"<  c #2B0511",
"1  c #2E0914",
"2  c #3C081A",
"3  c #221C18",
"4  c #242400",
"5  c #2B2802",
"6  c #322900",
"7  c #383100",
"8  c #3E3A00",
"9  c #2F2C11",
"0  c #322B16",
"q  c #2B2A29",
"w  c #362C24",
"e  c #410B03",
"r  c #463D0F",
"t  c #4D3126",
"y  c #454200",
"u  c #4B4400",
"i  c #444900",
"p  c #4D4D00",
"a  c #524600",
"s  c #514B00",
"d  c #475100",
"f  c #5A5400",
"g  c #575C00",
"h  c #5A5D00",
"j  c #665E00",
"k  c #5C6200",
"l  c #686600",
"z  c #7A6D00",
"x  c #7B7500",
"c  c #7D7C00",
"v  c #726410",
"b  c #7A6B15",
"n  c #574729",
"m  c #4A473B",
"M  c #534B3C",
"N  c #704A2F",
"B  c #695B36",
"V  c #7D623E",
"C  c #78733C",
"Z  c #4F4E40",
"A  c #595648",
"S  c #635F4E",
"D  c #7E7C44",
"F  c #616052",
"G  c #8A0A0A",
"H  c #960302",
"J  c #961313",
"K  c #A20B17",
"L  c #A11815",
"P  c #A81A17",
"I  c #A51A1A",
"U  c #AB1B1C",
"Y  c #AB2A27",
"T  c #AE232B",
"R  c #B4272E",
"E  c #B22930",
"W  c #B83338",
"Q  c #827500",
"!  c #847A00",
"~  c #897A01",
"^  c #DC3D70",
"/  c #926C4B",
"(  c #897653",
")  c #A9775C",
"_  c #A47C60",
"`  c #C35A59",
"'  c #CC5F64",
"]  c #E24E7B",
"[  c #E5517E",
"{  c #7D8200",
"}  c #888C00",
"|  c #958906",
" . c #9A8C01",
".. c #9D9300",
"X. c #959900",
"o. c #9B9D00",
"O. c #948513",
"+. c #A89806",
"@. c #AE9D0C",
"#. c #9EA500",
"$. c #A5A702",
"%. c #A4AA00",
"&. c #B5AB00",
"*. c #B9A907",
"=. c #ABB100",
"-. c #B3B501",
";. c #BCB401",
":. c #B9BA03",
">. c #BFAB16",
",. c #C5BC05",
"<. c #CDB614",
"1. c #BEC500",
"2. c #C3C500",
"3. c #CCC304",
"4. c #C4CA00",
"5. c #C9CE00",
"6. c #CBC20E",
"7. c #D2CD05",
"8. c #D4C709",
"9. c #CDD300",
"0. c #D2D501",
"q. c #DCD403",
"w. c #D5DA00",
"e. c #D9DE00",
"r. c #DAD309",
"t. c #D8C513",
"y. c #DBC41A",
"u. c #DCD210",
"i. c #E5D707",
"p. c #E1CA18",
"a. c #DCE300",
"s. c #E2E504",
"d. c #E4EB01",
"f. c #E9EF02",
"g. c #ECED08",
"h. c #F8E40B",
"j. c #FFEE0E",
"k. c #ECF102",
"l. c #EBF009",
"z. c #FFF305",
"x. c #FFF10D",
"c. c #FFFC0D",
"v. c #ECEC12",
"b. c #EAE91C",
"n. c #F9E614",
"m. c #FDEC12",
"M. c #FFF411",
"N. c #FFFB13",
"B. c #FFF719",
"V. c #FFFF1C",
"C. c #EDD520",
"Z. c #EDED23",
"A. c #FEFE23",
"S. c #F8F629",
"D. c #9A9A62",
"F. c #AB876A",
"G. c #B6856A",
"H. c #B28D70",
"J. c #B79274",
"K. c #AEA676",
"L. c #EB5684",
"P. c #EF5B8C",
"I. c #F5598C",
"U. c #F35E8F",
"Y. c #F3698C",
"T. c #F46694",
"R. c #F36E91",
"E. c #F67696",
"W. c #FF79A4",
"Q. c #A39E89",
"!. c #A6A18B",
"~. c #B6AF8D",
"^. c #BBB8A5",
"/. c #C09E82",
"(. c #C7A488",
"). c #D2A48A",
"_. c #C3BA8F",
"`. c #D2AD92",
"'. c #C7BA9A",
"]. c #D5B399",
"[. c #FF81AA",
"{. c #F98BAA",
"}. c #FF88B1",
"|. c #C1BDA3",
" X c #D5BDA3",
".X c #DCBEA4",
"XX c #C0BBB1",
"oX c #E5BFA7",
"OX c #C9C099",
"+X c #FDD88D",
"@X c #FADA90",
"#X c #C8C3A8",
"$X c #D6C6AA",
"%X c #DDCCB3",
"&X c #D1CEBD",
"*X c #DAD4BA",
"=X c #E6C2AD",
"-X c #F7DBA4",
";X c #E3CCB5",
":X c #E8CDB8",
">X c #E6D2BC",
",X c #FFE6A8",
"<X c #FFEFBB",
"1X c #FFF5B7",
"2X c #FFA7C2",
"3X c #D8D7C4",
"4X c #D9CFD1",
"5X c #D8D5D6",
"6X c #E1C7CF",
"7X c #EBD5C1",
"8X c #E6D8C4",
"9X c #F1D7C6",
"0X c #F4D5D5",
"qX c #EAE6C9",
"wX c #EEECCC",
"eX c #F6EECD",
"rX c #FAF0CF",
"tX c #EEE7D3",
"yX c #F4E2D3",
"uX c #F6EBD6",
"iX c #F7F1D5",
"pX c #FCF2D3",
"aX c #FCF5DA",
"sX c #FFFEDD",
"dX c #FFDEE6",
"fX c #F6EEE3",
"gX c #F8EDE9",
"hX c #FFFFE4",
"jX c #F7F3EC",
"kX c #FAF5E9",
"lX c #FFEFF5",
"zX c #FFF1F3",
"xX c #FFF8F9",
"cX c #FFFFFF",
/* pixels */
"jXjXjXjXjXjXjXjXjXjXjXjXjXjXjXjXjXjXjXjXjXjXjXjXjXjXjXjXjXjXjXjXjXjXjXjXjXjXjXjXjXjXjXjXjXjXjXjXjXjXjXjXjXjXjXjXjXjXjXjXjXjXjXjX",
"jXjXjXjXjXjXjXjXjXjXjXjXjXjXjXjXjXjXjXjXjXjXjXjXjXjXjXjXjXjXjXjXjXjXjXjXjXjXjXjXjXjXjXjXjXjXjXjXjXjXjXjXjXjXjXjXjXjXjXjXjXjXjXjX",
"jXjXjXjXjXjXjXjXjXjXjXjXjXjXjXjXjXjXjXjXjXjXjXjXjXjXjXjXjXjXjXjXjXjXjXjXjXjXjXjXjXjXjXjXjXjXjXjXjXjXjXjXjXjXjXjXjXjXjXjXjXjXjXjX",
"jXjXjXjXjXjXjXjXjXjXjXjXjXjXjXjXjXjXjXjXjXjXjXjXjXjXjXjXjXjXjXjXjXjXjXjXjXjXjXjXjXjXjXjXjXjXjXjXjXjXjXjXjXjXjXjXjXjXjXjXjXjXjXjX",
"jXjXjXjXjXjXjXjXjXjXjXjXjXjXjXjXjXjXjXjXjXjXjXjXjXjXjXjXjXjXjXjXjXjXjXjXjXjXjXjXjXjXjXjXjXjXjXjXjXjXjXjXjXjXjXjXjXjXjXjXjXjXjXjX",
"jXjXjXjXjXjXjXjXjXjXjXjXjXjXjXjXjXjXjXjXjXjXjXjXjXjXjXjXjXjXjXjXjXjXjXjXjXjXjXjXjXjXjXjXjXjXjXjXjXjXjXjXjXjXjXjXjXjXjXjXjXjXjXjX",
"jXjXjXjXjXjXjXjXjXjXjXjXjXjXjXjXjXjXjXjXjXjXjXjXjXjXjXjXjXjXjXjXjXjXjXjXjXjXjXjXjXjXjXjXjXjXjXjXjXjXjXjXjXjXjXjXjXjXjXjXjXjXjXjX",
"jXjXjXjXjXjXjXjXjXjXjXjXjXjXjXjXjXjXjXjXjXjXjXjXjXjXjXjXjXjXjXuXuXjXjXjXjXjXjXjXjXjXjXjXjXjXjXjXjXjXjXjXjXjXjXjXjXjXjXjXjXjXjXjX",
"jXjXjXjXjXjXjXjXjXjXjXjXjXjXjXjXjXjXjXjXjXjXjXjXjXjXjXjXjXjX        jXjXjXjXjXjXjXjXjXjXjXjXjXjXjXjXjXjXjXjXjXjXjXjXjXjXjXjXjXjX",
"jXjXjXjXjXjXjXjXjXjXjXjXjXjXjXjXjXjXjXjXjXjXjXkXjXjXjXjXjXfXD i i D tXgXjXjXjXjXgX7X7X7X:X:XjXjXjXjXjXjXjXjXjXjXjXjXjXjXjXjXjXjX",
"jXjXjXjXjXjXjXjXjXjXjXjXjXjXjXjXjXjX          V jXjXjXjXO   2.e.w.1.  + jXjXjXjXN           yXjXjXjXjXjXjXjXjXjXjXjXjXjXjXjXjXjX",
"jXjXjXjXjXjXjXjXjXjXjXjXjXjXjXjXjXwX( s s s p ~.jXjXjXuXC d 9.a.a.9.d C 8XgXuXuXK.s s s s s ;X9XjXjXjXjXjXjXjXjXjXjXjXjXjXjXjXjX",
"jXjXjXjXjXjXjXjXjXjXjXjXjXjXjXjX. C Z.v.g.l.Z.jX.     7 2.e.w.w.w.0.e.1.5     @ *.Z.g.g.v.b.u   >XkXjXjXjXjXjXjXjXjXjXjXjXjXjXjX",
"jXjXjXjXjXjXjXjXjXjXjXjXjXjXjXjX  y V.c.c.x.V.8.f 4   * 5.s.w.w.w.w.s.5.$   5 f 7.V.N.x.N.N.y   :XzXjXjXjXjXjXjXjXjXjXjXjXjXjXjX",
"jXjXjXjXjXjXjXjXjXjXjXjXjXjXjXjX  u c.M.j.j.j.j.S.:.. & 4.a.w.w.w.w.a.5.# @ ,.Z.x.x.j.x.M.N.y   9XgXjXjXjXjXjXjXjXjXjXjXjXjXjXjX",
"jXjXjXjXjXjXjXjXjXjXjXjXjXjXjX%X  u N.M.x.x.j.m.A.,.o & 2.w.9.w.w.w.0.:.# @ 6.V.x.x.x.x.M.N.y   ].aXyXyXjXjXjXjXjXjXjXjXjXjXjXjX",
"jXjXjXjXjXjXjXjXjXjXjX8X          u V.M.x.x.x.j.A.,.. o *.t.e.a.a.r.<.*.. @ 3.V.j.x.x.x.x.V.y           ].jXjXjXjXjXjXjXjXjXjXjX",
"jXjXjXjXjXjXjXjXjXjXjX*X4 * * * * h r.i.x.x.x.j.N.3.6 6 | +.-.-.-.;.$. .5 7 8.V.j.x.x.x.i.r.f * * * * 4  XjXjXjXjXjXjXjXjXjXjXjX",
"jXjXjXjXjXjXjXjXjX*X  D.w.w.w.0.e.X.  u V.c.x.x.c.j.y.+..             . +.t.m.c.x.x.c.V.y   o.a.w.0.e.0.D.  `.jXjXjXjXjXjXjXjXjX",
"jXjXjXjXjXjXjXjXjX%X  l e.a.e.w.s.%.$ s r.i.j.h.i.3.;.O.0 3 - - = - 3 0 O.*.3.i.h.j.i.r.p $ %.a.e.e.a.e.k   ).jXjXjXjXjXjXjXjXjX",
"jXjXjXjXjXjXjXjXjX*X  h e.e.w.w.w.w.9.X.  r u.+.%     w 3XaXiXuXiXiXaX3X0     & @.p.8   o.9.w.w.w.0.e.w.h   ].jXjXjXjXjXjXjXjXjX",
"jXjXjXjXjXjXjXjXjX%X  l w.w.w.w.w.a.a.o.  $ @.Q       - #X3X&X3X&X*X3XXX=       Q @.%   %.d.e.w.w.w.e.w.k   `.jXjXjXjXjXjXjXjXjX",
"jXjXjXjXjXjXjXjXjX'.  k d.a.w.w.w.w.l.#.                X X X . X X X X                 %.l.e.w.w.w.d.f.k   `.jXjXjXjXjXjXjXjXjX",
"jXjXjXjXjXjXjXjXgXyX6 ~.:.4.7.0.w.9.1.O.1 1 > 1 q q q q > > - - > > + > < 1 1 1 < < < 1 | :.5.0.9.9.4.-.K., ;XjXjXjXjXjXjXjXjXjX",
"jXjXjXjXjXjXjXjXjXjXjX*X* l y.u.f.=.& t W.R.Y.{.4X5X5X6XR.E.5X5XE.R.R.R.R.R.R.R.R.R.R.E.t % -.f.r.t.j * $XjXjXjXjXjXjXjXjXjXjXjX",
"jXjXjXjXjXjXjXjXjXjXjX7X  6 @.*.1.{ . 2 }.W.W.2XcXcXcXlX}.{.cXcX}.[.[.[.[.[.[.[.[.[.[.}.2   } 2.&.@.5   oXjXjXjXjXjXjXjXjXjXjXjX",
"jXjXjXjXjXjXjXjXjXjXjX;X    @ $ & o   2 I.I.L.{.lXcXcXgXT.T.zXlXT.L.P.P.P.P.P.P.I.I.U.I.2   o * @ @     .XjXjXjXjXjXjXjXjXjXjXjX",
"jXjXjXjXjXjXjXjXjXjXjX8X@             2 L.L.^ E.lXcXxXdX] L.lXlXL.] ] ] ] ] ] ] ] ] [ L.2             o ;XjXjXjXjXjXjXjXjXjXjXjX",
"jXjXjXjXjXjXjXjXjX7X: OX9.r.q.,.@.z   ; R R K ' gXcXcX0XT W lXlXW T T E T T T T T T R R ;   x @.,.i.q.7.OX: ;XjXjXjXjXjXjXjXjXjX",
"jXjXjXjXjXjXjXjXjX$X  x c.c.c.h.<.O.  ; P P H ` gXcXcX0XY Y gXgXY J L J J L L L P J L P ;   | <.n.c.N.c.z    XjXjXjXjXjXjXjXjXjX",
"jXjXjXjXjXjXjX8X. $X7.h.x.x.x.z.M.&.  + U U H ` lXcXcX0XE J q - . + J U I I I P I I P U +   &.m.j.x.x.x.h.8.#X. :XjXjXjXjXjXjXjX",
"jXjXjXjXjXjXjX].  Q N.N.x.x.x.x.c.;.  ; U U H ` gXcXcX0XE G         J P I I I I I I I U ;   ;.N.x.x.j.x.c.c.x   .XjXjXjXjXjXjXjX",
"jXjXjXjXjXjXzX].  c N.M.j.x.x.x.c.;.    O .   + q q q 3 . , ^.$X$X^.: . . . . . . . . .     ;.N.j.x.x.j.N.c.x   $XjXjXjXjXjXjXjX",
"jXjXjXjXjXjXjX X  ! b.j.j.x.j.j.M.;.                      - wXsXsXwX=                 .     ;.M.j.j.x.j.M.v.#X  $XjXjXjXjXjXjXjX",
"jXjXjXjXjXjXjXjXjX X4 +.N.N.z.h.t...  q #XXX|.|.|.|.|.|.^.#XeXpXrXrX#X^.#X#X|.|.^.^.#X#Xq   ..t.j.x.N.B. .5 $XjXkXjXjXjXjXjXjXjX",
"jXjXjXjXjXjXjXjXjX].  z b.v.v.i.<.Q   m hXhXsXsXhXhXhXsXsXsXpXpXrXpXsXsXfXuXsXhXhXsXhXkXm   ~ <.i.v.v.b._.  $XjXgXjXjXjXjXjXjXjX",
"jXjXjXjXjXjXjXjXjXjXyX$Xs u u r 5 %   t 1X<XrXpXpXrXrXpXsXaXsXsXsXsXkXqXA Z %XhXpXpX<X1Xt   * 6 7 u u s ;XjXjXjXjXjXjXjXjXjXjXjX",
"jXjXjXjXjXjXjXjXjXjXgX].              n @X,XrXuXpXpXpXrXwXwXwXwXwXwXtX&X# X ^.hXuXpX,X+Xr               >XjXjXjXjXjXjXjXjXjXjXjX",
"jXjXjXjXjXjXjXjXjXjXjX].  7 X.X.X.} ! b n ( ,X1XpXuXsX*XF Z Z M M Z A F D.^.qXaX<X,X( n b ! | X.X.X.5   7XjXjXjXjXjXjXjXjXjXjXjX",
"jXjXjXjXjXjXjXjXjXjXkX].  k k.f.k.i.t.|   0 @X,XrXiXhX#X              X 3XxXaXrX,X+X9   | y.s.f.f.k.g   8XjXjXjXjXjXjXjXjXjXjXjX",
"jXjXjXjXjXjXjXjXjX9X_ _.} -.w.w.w.9.5.:.Q b n ( ,X<XpXqX~.Q.!.!.!.!.Q.~.qXpX<X,X( n b ! ;.5.0.0.w.w.=.} ~.F.jXjXjXjXjXjXjXjXjXjX",
"jXjXjXjXjXjXjXjXjX(.  k d.s.w.w.w.w.w.r.C. .  0 +X1XrXaXhXhXhXhXhXhXhXhXaXuX1X+X3   +.C.w.w.w.w.0.w.d.d.k   $XjXjXjXjXjXjXjXjXjX",
"jXjXjXjXjXjXjXjXjX`.  l e.e.w.w.w.w.e.-.7 a Q b n ( -X<XpXiXpXpXpXpXiXpX<X@X( n b Q u 7 -.e.w.w.w.w.e.e.h   %XjXjXjXjXjXjXjXjXjX",
"jXjXjXjXjXjXjXjXjX`.  k e.e.0.w.w.e.k.#.  @ y. .  3 @X1XsXhXhXhXhXhXhXsX1X+X=    .y.o   %.k.e.w.w.w.e.e.h   >XjXjXjXjXjXjXjXjXjX",
"jXjXjXjXjXjXjXjXjX`.  k w.w.0.w.w.-.p l +.&.n.,.Q v B B F F F F F F F S B B v ~ 8.n.&.+.l d -.a.0.w.e.w.h   *XjXjXjXjXjXjXjXjXjX",
"jXjXjXjXjXjXjXjXjX(.  k f.d.d.d.k.#.  6 V.c.x.n.y.| .                     o | y.h.x.N.V.5   #.l.d.d.l.d.k   $XgXjXjXjXjXjXjXjXjX",
"jXjXjXjXjXjXjXjXjXfXoX$Xk g h g h l ..;.M.M.z.j.m.&..   j z c { { c z j   o *.m.j.z.x.M.&...l h g h g h $XyXjXjXjXjXjXjXjXjXjXjX",
"jXjXjXjXjXjXjXjXjXjXjX).          y A.N.j.x.x.x.A.,.o @ >.t.e.a.a.e.t.*.o @ 3.A.j.j.x.x.N.V.y           >XjXjXjXjXjXjXjXjXjXjXjX",
"jXjXjXjXjXjXjXjXjXjXjXfX`.).)./   u c.x.x.x.j.j.V.,.o $ :.7.w.w.w.w.0.;.o @ 3.V.x.x.x.x.M.N.y   F.;X%X;XjXjXjXjXjXjXjXjXjXjXjXjX",
"jXjXjXjXjXjXjXjXjXjXjXjXjXjXjX9X  p N.M.x.x.M.M.S.,.o & 5.a.w.w.w.0.a.4.$ @ 6.S.x.j.x.x.m.N.y   jXjXjXjXjXjXjXjXjXjXjXjXjXjXjXjX",
"jXjXjXjXjXjXjXjXjXjXjXjXjXjXjX=X  y N.M.M.x.N.i...j   * 5.a.w.w.w.0.a.5.$   l ..i.N.x.x.M.N.r   uXjXjXjXjXjXjXjXjXjXjXjXjXjXjXjX",
"jXjXjXjXjXjXjXjXjXjXjXjXjXjXjX=X  i V.N.N.M.A.-.      4 9.a.w.w.w.w.s.9.&       :.A.N.N.N.V.r   uXjXjXjXjXjXjXjXjXjXjXjXjXjXjXjX",
"jXjXjXjXjXjXjXjXjXjXjXjXjXjXjXgXG.]... . . .o.>XJ.) ) (.x } 9.e.e.9.{ c (.G.F./.*X+. . .| .. X~.jXjXjXjXjXjXjXjXjXjXjXjXjXjXjXjX",
"jXjXjXjXjXjXjXjXjXjXjXjXjXjXjXjXjXyX          e jXzXjXfX    0.f.d.9.    jXjXjXjX:           gXjXjXjXjXjXjXjXjXjXjXjXjXjXjXjXjXjX",
"jXjXjXjXjXjXjXjXjXjXjXjXjXjXjXjXjXjX/ ) ) ) / ).jXjXjXjXG.H.! { { $XJ.J.jXjXjXjX]._ F.H.J.F.jXjXjXjXjXjXjXjXjXjXjXjXjXjXjXjXjXjX",
"jXjXjXjXjXjXjXjXjXjXjXjXjXjXjXjXjXjXzXjXjXjXjXjXjXjXjXjXjXjX        jXjXjXjXjXjXjXjXjXjXjXjXjXjXjXjXjXjXjXjXjXjXjXjXjXjXjXjXjXjX",
"jXjXjXjXjXjXjXjXjXjXjXjXjXjXjXjXjXjXjXjXjXjXjXjXjXjXjXjXjXjXG.) ) G.jXjXjXjXjXjXjXjXjXjXjXjXjXjXjXjXjXjXjXjXjXjXjXjXjXjXjXjXjXjX",
"jXjXjXjXjXjXjXjXjXjXjXjXjXjXjXjXjXjXjXjXjXjXjXjXjXjXjXjXjXjXjXjXjXjXjXjXjXjXjXjXjXjXjXjXjXjXjXjXjXjXjXjXjXjXjXjXjXjXjXjXjXjXjXjX",
"jXjXjXjXjXjXjXjXjXjXjXjXjXjXjXjXjXjXjXjXjXjXjXjXjXjXjXjXjXjXjXjXjXjXjXjXjXjXjXjXjXjXjXjXjXjXjXjXjXjXjXjXjXjXjXjXjXjXjXjXjXjXjXjX",
"jXjXjXjXjXjXjXjXjXjXjXjXjXjXjXjXjXjXjXjXjXjXjXjXjXjXjXjXjXjXjXjXjXjXjXjXjXjXjXjXjXjXjXjXjXjXjXjXjXjXjXjXjXjXjXjXjXjXjXjXjXjXjXjX",
"jXjXjXjXjXjXjXjXjXjXjXjXjXjXjXjXjXjXjXjXjXjXjXjXjXjXjXjXjXjXjXjXjXjXjXjXjXjXjXjXjXjXjXjXjXjXjXjXjXjXjXjXjXjXjXjXjXjXjXjXjXjXjXjX",
"jXjXjXjXjXjXjXjXjXjXjXjXjXjXjXjXjXjXjXjXjXjXjXjXjXjXjXjXjXjXjXjXjXjXjXjXjXjXjXjXjXjXjXjXjXjXjXjXjXjXjXjXjXjXjXjXjXjXjXjXjXjXjXjX",
"jXjXjXjXjXjXjXjXjXjXjXjXjXjXjXjXjXjXjXjXjXjXjXjXjXjXjXjXjXjXjXjXjXjXjXjXjXjXjXjXjXjXjXjXjXjXjXjXjXjXjXjXjXjXjXjXjXjXjXjXjXjXjXjX",
"jXjXjXjXjXjXjXjXjXjXjXjXjXjXjXjXjXjXjXjXjXjXjXjXjXjXjXjXjXjXjXjXjXjXjXjXjXjXjXjXjXjXjXjXjXjXjXjXjXjXjXjXjXjXjXjXjXjXjXjXjXjXjXjX"
};
