/* XPM */
static char *_dfabadee6cf41faa7a88c4d0bedd61ddPthjepQfS0h8rl8[] = {
/* columns rows colors chars-per-pixel */
"64 64 25 1 ",
"  c #212021",
". c #3F393B",
"X c #302F2F",
"o c #2D2125",
"O c #524B4D",
"+ c #DFDFDF",
"@ c #763442",
"# c #A89F9E",
"$ c #500C22",
"% c #C4BFBE",
"& c #611D32",
"* c #E6B789",
"= c #D5D3D0",
"- c #666163",
"; c #171516",
": c #EFDBA6",
"> c #777374",
", c #991741",
"< c #8C8989",
"1 c #A2685C",
"2 c #904D5A",
"3 c #B6B1B0",
"4 c #F2F1F1",
"5 c #B77F7A",
"6 c #891128",
/* pixels */
"::::::::::%#O-#%+++++++++++++++++++++++=%%%%%%%%%#3%:::*********",
"::::::::::%<O-.#++++++++++++3>#++++++++++%%%%%%%%#33:::*::******",
":::::::=%%%>---%++++++++++++3><++++++++++=%%%%%%%3#33:::::******",
"*::::::=%3#--<=++++=#%+++++++%++++++++++++%%%%%%%%#<#*::::******",
"***::::==+3O#++++++=-->%+++++3+++++++++++=%%%%====#>3*::::******",
"***::::==+##+++++++=-O.-#++++%%+++++++++=3<3><++++=3##<#::******",
"***::::==+=++++++++=-OO-=+++4%-->#=+++++=>-%<>=+++=%#O>#:::*****",
"****:::==++++++++++=---3%%=++#-O<#%+++++=#>+#<%=++=%3>#3=::*****",
"*****::==++++++++++=--#>XX.<3#-O3==++++=33<+%#%%=+%%%%%%=:::****",
"******:==++++++++++=>3-     X<>O3+%=+4%>o X-#3%%%=%%%%===:::****",
"******:%%==%<<#=+++=#%X      >3-#===+4> ooo O#%%%%%%%=++=::::***",
"#*****:%#51@..1#%+%%%#X.O.X  o#-#%%%%+OO212 o>3%%%%%%=++=::::***",
"##***%#2@,@@ X5***:%%3-O252.XX#<3%%%%=122111@.#######=4+=::::***",
"##***32&@,&@oo@255*%%#.o&22.O-##3%%##322&@111><######34+=::*****",
"####*5@ .&$$$$X2121**#1& OX o<3333333<XO@215115####<>%4+=::*****",
"###5*52 o$$$$$>%#153#%5511121#%=+==%%3-O111115#####<-=4+=:*%%###",
">>55552Xo$&$$2%=%5#%3=511255*3=4444+==>O@11115####<<-=4+=*%=%##<",
"..&@1#<@&o&&&@2>-15<%%11@@1##%444444443.@21125######>=4+%%3##>OX",
"..&@2>>2@o$$@&,,,2#=%<@@111#%<%%==<.<=#O@@1@215####3%=4=%#-OO oX",
"  XO-15>O&66&$,,2@2112@&@2544+44443Xo%<<X.O&@21--<#3>=4=%#>.-o o",
"XX..O-<>X@,,$$,,,,@$&@51115+444444%>.>%%O  &@@...O<%-=43#>.X-.o.",
"XX..OO>Oo&,,&$,,,,2@$$@1155%+44444%5<%>.X  XO. XOOO>#4451> X-O o",
" oXo..-Ooo&&&$&@22,,@6&$@211#+4444353-XoXo  .o  XOOO>+=11>X.-O  ",
" oX ..-.X.@@$$&$$@,,,,2@&1@@1%=+<##1Oo  Xo X     o.OO<>22>O.. ; ",
"   X-O-.XX  $$,&$$@,,,,,15@@2*52@2>O    Xo.        X.--@@----.  ",
"..X ....X.Xo$$6,$$$,,,,,51@@@2*5@@>o    .o.         X..@OO----. ",
"   X.o XX.$$$&6,&;o&@66,,,,@@@5*@@O     ..          X..OO.O--.OX",
"   X.o  o.Xo$@,,,@&&$&&&,6,&&$25@@O     OX           ..X...OO..X",
"  XX.oX o.X $@,,,6,@oo&&@&&$$$$&$&X    X-o           .O.OO.....o",
"..X .o.XXX Xo.22,,,,&$oo oo  $$$@2&    oX            .<---O..oo ",
"..  .oO.X.X. o&&2,,,6$o      $$&@,&                  O--OO.     ",
".     .XX.X. o$o @2,,,@.$$     $$&o                  XooX.XX.   ",
".     .XXX O o&$o$&,,,,,@&$oo  oooo                    X.O  .   ",
"X     ..XX X&&@$$$$&@2,,,,6$$o  X                       XOXXX   ",
"X X   X.X.oX$&22@$$$o &@,,6$$55&-O                      X...o   ",
"o     o.X.X.$$,,,&&$o o&,,6$&5*1@o                      X.X..  X",
"      ..X...$@,,,622$$$&22@..551&                       X.$&. o.",
".oX o ..   X$@,,,6,@@@&$$$$o <52@                   Xo  X.o&X oX",
". X .o.. oX  .,,,,6,,,@&&$   <#.X                       X.X..   ",
"X o X XX XX  O22,,66,,6&&&o  #<.X                       X.XXX   ",
" oX     oXo  Xo&@@@66666$$$oo#>.o         XO            X.o     ",
"    Xo.XXX      o XX@@&$$$$$$>>.           -            XX X.   ",
"    .o..X.X  oX     o&@$$$$$$->            O.      XX   XX ..   ",
"o     ..X.XX..$..oo     ..   >>o           XO.o   X.O   XX      ",
"X     ...O  o.@OOoX         X--.           ;O<<O.oo.-o  o       ",
"      X.XO  o.o.O@@.         O-X X           O<>2&&@2.X X      o",
"     XO.O>X.<#-O-oO@-XX&Oo@oX--  - .oo...o@.Oo .oo$$2-.@.X     o",
"     .Xo<< X215$2O.@<X&1> @-X5.  XX>; OO.&5.XX>. o@&2#.&-O      ",
"       o><; .>1.<Xo.>.o>>;X>@5.   >1;;o ;.1. .#. o2@@#.X>>      ",
"oo...ooX><   >1O.   O>.>> .#@5.   >2;  ;;.1.;.>X X52><..#O      ",
"Xo...o..<<   >2&2@& .1@1> O#X1@ ; @2; XX;$5.;;>& .1X><O1-X      ",
"Xo...X..<<; o--o@2@ o2>1-.-. O>o; o@X OX;X>.;;.@X<@o><.2--  X   ",
".X......<<     O.&&.Xoo ;..XX Xo   ;;;;;;; ;;   o.o -<.X><. X   ",
"X......-<2oX  X>>->OX.X .----....XXX;;  ;;  ;;;     >1@ -2@$  $$",
"oOO....O.$ooo..O---O   o-<X.<-O-OO->O;   ;  ;;;   X.O&$ .&$$oo$$",
"@@...@@&&@..o.O@@@&.X $@<. .<>->>O>-.;  ;;  ;;; o X--X  o$$&@$$&",
"&@O..@@&&@.oX. o&@<<>--2X XO>O.O.-OO;; ;;;  ;;; X X.-X  o&&&&$$&",
"&@2@@&@&&@.o..O.O->3#1OoXX.O...ooXX ;;;;;;X ;;;   XXOX  o&&$&$$&",
"666&&$&&&@@&.-<#3#->>OO>%3O#--#-><3O<.. <33OO.OO-.XXoooo$&&&&$&$",
"666$&$$@@@@@O>33###%3<3>%->#<><->3<##<<O><#<33#3<>.X $$$$&$&@$&$",
"@66&@$&@@@&$X->>--><#-OX>X->>-O<>.>OO>-  -OOOO--O-X.$$$$$$$&@$66",
"@@6@2@@@@@&& O>X   XX    ;  XX <. XX    ;   ;;    XO&$$$$$$&@$66",
"22@@2&&@@2O. O>      ;;     X.                  oo&@&o $$&@@6666",
"12221@&@@2. o--          ;  X.Xooo              .o&@&o $&@@@6666"
};
