/* XPM */
static char *_b3ef588149e4476b44ed5426ac9deabeXEKt5AqlKwiZ8SN[] = {
/* columns rows colors chars-per-pixel */
"64 64 55 1 ",
"  c black",
". c #040100",
"X c #0C0302",
"o c #080600",
"O c #120301",
"+ c #100404",
"@ c #140B00",
"# c #241C08",
"$ c #321207",
"% c #311308",
"& c #371308",
"* c #3A180B",
"= c #2D2004",
"- c #783D16",
"; c #592921",
": c #653027",
"> c #693328",
", c #7B3B2F",
"< c #7F4020",
"1 c #843C2E",
"2 c #9F4936",
"3 c #A24A34",
"4 c #985043",
"5 c #B15A4B",
"6 c #CA5F54",
"7 c #D06055",
"8 c #EC5F61",
"9 c #EA5278",
"0 c #ED5279",
"q c #EB6060",
"w c #EC6062",
"e c #EE6064",
"r c #E96D67",
"t c #F46069",
"y c #FF6576",
"u c #FF677C",
"i c #FF6979",
"p c #F97674",
"a c #FF767E",
"s c #FF4F8B",
"d c #F95182",
"f c #F95282",
"g c #F95384",
"h c #FF538D",
"j c #FF568D",
"k c #FF5989",
"l c #FF5B89",
"z c #FF598B",
"x c #FF4D93",
"c c #FF4B95",
"v c #FF4A97",
"b c #FF4B97",
"n c #FF4C94",
"m c #FF5191",
"M c #FF6081",
/* pixels */
"vvvvvvvvvvvvvvvvvvvvvvvvvvvvvvvvvvvvvvvvvvvvvvvvvvvvvvvvvvvvvvvv",
"vvvvvvvvvvvvvvvvvvvvvvvvvvvvvvvvvvvvvvvvvvvvvvvvvvvvvvvvvvvvvvvv",
"vvvvvvvvvvvvvvvvbvvvvvvvvvvvvvvvvvvvvvvvvvvvvvvvvvvvvvvvvvvvvvvv",
"vvvvvvvl> 5xl+ay  vvvvvvvvvvz> 5nl+ay  vvvvvvvvvvl> 5nlOay  vvvv",
"vvvvvvl: ghjnvjv  vvvvvvvvbl: gmjnvjn  vvvvvvvvvl: gmjxvjv  vvvv",
"vvvvvu; nhjjjjv# rvvvvvvvvu; njjjjjv= rvvvvvvvvu; nhjjhhv= rvvvv",
"vvvviX vjjjjjv  pvvvvvvvviX njjjjjv  pvvvvvvvviX njjjllv  pvvvvv",
"vvvv%  3-,<3v# 0vmvvvvvvv%  2-<<3v# 9vmvvvvvvv%  3-<,3v# 9vmvvvn",
"vvvv        no gn4vvvvvvv        vo fx4vvvvvvv        vo fn4vvvv",
"vvvvt8w8e1  M,*s0&vvvvvvvt8wqe1  M,*h0&vvvvvvvt8eqe1  l,*s0&vvvv",
"vvvvvvvvv6  lvnnnnvvvvvvvvvvvv6  zvvxxvvvvvvvvvvvvv6  lvvnmnvvvv",
"vvvvvvvvv7.@hvvvvvvvvvvvvvvvvv7.@hvvvvvvvvvvvvvvvvn7.@hvvvvvvvvv",
"vvvvvvvvv7O%hvvvvvvvvvvvvvvvvv7O%hvvvvvvvvvvvvvvvvv7+$hvvvvvvvvv",
"vvvvvvvvvvvvvvvvvvvvvvvvvvvvvvnvvvvvvvvvvvvvvvvvvvvvvvvvvvvvvvvv",
"vvvvvvvvvvvvvvvvvvvvvvvvvvvvvvvvvvvvvvvvvvvvvvvvvvvvvvvvvvvvvvvv",
"vvvvvvvvvvvvvvvvvvvvvvvvvvvvvvvvvvvvvvvvvvvvvvvvvvvvvvvvvvvvvvvv",
"vvvvvvvvvvvvvvvvvvvvvvvvvvvvvvvvvvvvvvvvvvvvvvvvvvvvvvvvvvvvvvvv",
"vvvvvvvvvvvvvvvvvvvvvvvvvvvvvvvvvvvvvvvvvvvvvvvvvvvvvvvvvvvvvvvv",
"vvvvvvvvvvvvvvvvvvvvvvvvvvvvvvvvvvvvvvvvvvvvvvvvvvvvvvvvvvvvvvvv",
"vvvvvvvvvvvvvvvvvvvvvvvvvvvvvvvvvvvvvvvvvvvvvvvvvvvvvvvvvvvvvvvv",
"vvvvvvvz> 5nz+ay  vvvvvvvvvvl> 5nl+ay  vvvvvvvvvvl> 5nz+ay  vvvv",
"vvvvvvl: fhjnvjv  vvvvvvvvvl: ghjxvjn  vvvvvvvvvl: ghjnvjv  vvvv",
"vvvvvu; vhjjjjv= rvvvvvvvvu; nhjjjjv= rvvvvvvvvu; njjhjhv= rvvvv",
"vvvviX njhjjjv  pvvvvvvvviX vjjjhjv  pvvvvvvvviX njjjjjv  pvvvvv",
"vvvv%  3-<<3v# 9vmvvvvvvv%  2-<<3v# 9vmvvvvvvv%  2-<<3v# 9vhvvvv",
"vvvv        vo fx4vvvvvvv        vo fn4vvvvvvv        vo fx4vvvv",
"vvvvt8wqe1  M,*s0&vvvvvvvtwwqe1  M,*h0&vvvvvvvtwwwe1  l,*j0&vvvv",
"vvvvvvvvv6  zvvnmvvvvvvvvvvvvv6  zvvnmvvvvvvvvvvvnv6  lvvnxvvvvv",
"vvvvvvvvv7.@hvvvvvvvvvvvvvvvvv7.@hvvvvvvvvvvvvvvvvv7.@hvvvvvvvvv",
"vvvvvvvvv7O%hvvvvvvvvvvvvvvvvv7O$hvvvvvvvvvvvvvvvvv7O$hvvvvvvvvv",
"vvvvvvvvvvvvvvvvvvvvvvvvvvvvvvvvvvvvvvvvvvvvvvvvvvvvvvvvvvvvvvvv",
"vvvvvvvvvvvvvvvvvvvvvvvvvvvvvvvvvvvvvvvvvvvvvvvvvvvvvvvvvvvvvvvv",
"vvvvvvvvvvvvvvvvvvvvvvvvvvvvvvvvvvvvvvvvvvvvvvvvvvvvvvvvvvvvvvvv",
"vvvvvvvvvvvvvvvvvvvvvvvvvvvvvvvvvvvvvvvvvvvvvvvvvvvvvvvvvvvvvvvv",
"vvvvvvvvvvvvvvvvvvvvvvvvvvvvvvvvvvvvvvvvvvvvvvvvvvvvvvvvvvvvvvvv",
"vvvvvvvvvvvvvvvvvvvvvvvvvvvvvvvvvvvvvvvvvvvvvvvvvvvvvvvvvvvvvvvv",
"vvvvvvvvvvvvvvvvvvvvvvvvvvvvvvvvvvvvvvvvvvvvvvvvvvvvvvvvvvvvvvvv",
"vvvvvvvz> 5nzOay  vvvvvvvvvvl> 5nl+ay  vvvvvvvvvvl> 5nl+ay  vvvv",
"vvvnvvz: ghjnvjv  vvvvvvvvvl: gmjnvjv  vvvvvvvvvl: ghjnvjv  vvvv",
"vvvvvi; vhjjjjv= rvvvvvvvvu; vhjjjjv= rvvvvvvvvu; njjjjjv= rvvvv",
"vvvviX nfggzlv  pvvvvvnvviX njjjhjv  pvvvvvvvviX ngfjjjv  pvvvvv",
"vvvv%  2-2,2v# 9vmvvvvvvv%  2-<<3v# 9vmvvvvvvv%  2-2,3v# 9vmvvvv",
"vvvv        v. fx4vvvvvvv        vo fn4vvvvvvv        no fx4vvvv",
"vvvvtwwwe1  u,*s0&vvvvvvvt8wqe1  M,*s0&vvvvvvvt8wqe1 .l,*s0&vvvv",
"vvvvvvvvv6  zvnvmnvvvvvvvvvvvv6  lvvvxnvvvvvvvvvvvv6  lvnxxvvvvv",
"vvvvvvvvv7.@hvvvvvvvvvvvvvvvvv7.@hvvvxvvvvvvvvvvvvv7.@hvvvvvvvvv",
"vvvvvvvvv7O%hvvvvvvvvvvvvvvvvv7O%hvvvvvvvvvvvvvvvvv7O$hvvvvvvvvv",
"vvvvvvvvvvvvvvvvvvvvvvvvvvvvvvvvvvvvvvvvvvvvvvvvvvvvvvvvvvvvvvvv",
"vvvvvvvvvvvvvvvvvvvvvvvvvvvvvvvvvvvvvvvvvvvvvvvvvvvvvvvvvvvvvvvv",
"vvvvvvvvvvvvvvvvvvvvvvvvvvvvvvvvvvvvvvvvvvvvvvvvvvvvvvvvvvvvvvvv",
"vvvvvvvvvvvvvvvbvvvvvvvvvvvvvvvvvvvvvvvvvvvvvvvvvvvvvvvvvvvvvvvv",
"vvvvnvvvvvvvvvvvvvvvvvvvvvvvvvvvvvvvvvvvvvvvvvvvvvvvvvvvvvvvvvvv",
"vvvvvvvl> 5vz+ay  vvvvvvvvvvl> 5nl+ay  vvvvvvvvvvz> 5nz+ay  vvvv",
"vvvvvvz: fhhnvjn  vvvvvvvvvl: gjjxvjn  vvvvvvvvvl: ghjnvjn  vvvv",
"vvvvvu; njjjjjv= rvvvvvvvvu; nmjjjjv= rvvvvvvvvu; nhjhjhv# rvvvv",
"vvvviX njjjjjv  pvvvvvvvviX njjjhjv  pvvvvvvvviX njjjjjv .pvvvvv",
"vvvv%  2-,22f# 9vmvvvvvvv%  2-<<3v# 9vmvvvvvvv%  2-<<3v# 0vmvvvn",
"vvvv        v  fx4vvvnvvv        vo fn4vvvvvvv        vo fn4vvvv",
"vvvvt888e1  u,*s0&vvvvvvvt8wqe1  M,*h0&vvvvvvvtwwwe1  l,*s0&vvvv",
"vvvvvvvvn6  lvvvxnvvvvvvvvvvvv6  zvvnmvvvvvvvvvvvvv6  lvnnnnvvvv",
"vvvvvvvvv7 @hvvvvvvvvvvvvvvvvv7.@hvvvvvvvvvvvnvvvvv7.@jvvvvvvvvv",
"vvvvvvvvv7O$hvvvvvvvvvvvvvvvvv7O$hvvvvvvvvvvvvvvvvv7O%hvvvvvvvvv",
"vvvvvvvvvvvvvvvvvvvvvvvvvvvvvvvvvvvvvvvvvvvvvvvvvvvvvvvvvvvvvvvv",
"vvvvvvvvvvvvvvvvvvvvvvvvvvvvvvvvvvvvvvvvvvvvvvvvvvvvvvvvvvvvvvvv"
};
