/* XPM */
static char *_6ecff2a0947463ed9d2e36f1d2d3a37CKslB6nIi8K9v0Pv[] = {
/* columns rows colors chars-per-pixel */
"64 64 245 2 ",
"   c #313A47",
".  c #3D4752",
"X  c #3D5371",
"o  c #484C58",
"O  c #4D505E",
"+  c #55565D",
"@  c #4E5864",
"#  c #4E586E",
"$  c #545666",
"%  c #545B65",
"&  c #5B5D65",
"*  c #545D6B",
"=  c #5A5E6C",
"-  c #605F69",
";  c #5A6168",
":  c #5C636E",
">  c #4F6472",
",  c #5C6373",
"<  c #59677A",
"1  c #5D657A",
"2  c #63656C",
"3  c #68696C",
"4  c #636573",
"5  c #646974",
"6  c #6B6B74",
"7  c #666678",
"8  c #636B7B",
"9  c #6B6D7C",
"0  c #706E79",
"q  c #6B7076",
"w  c #65717D",
"e  c #6C727C",
"r  c #76767A",
"t  c #72757C",
"y  c #4C6281",
"u  c #576685",
"i  c #636D82",
"p  c #696B84",
"a  c #667183",
"s  c #6C7483",
"d  c #6D768A",
"f  c #6A7B8B",
"g  c #737583",
"h  c #797786",
"j  c #747A84",
"k  c #7B7C84",
"l  c #74768A",
"z  c #79768C",
"x  c #747C8B",
"c  c #7B7D8B",
"v  c #6B7797",
"b  c #747D92",
"n  c #7C7E92",
"m  c #767D99",
"M  c #807F88",
"N  c #7B8185",
"B  c #76818D",
"V  c #7C828D",
"C  c #6A8397",
"Z  c #758494",
"A  c #7C8493",
"S  c #7D8994",
"D  c #7C859A",
"F  c #7C8A9B",
"G  c #7F9397",
"H  c #7B84A4",
"J  c #7D9AA6",
"K  c #838285",
"L  c #83848C",
"P  c #89878C",
"I  c #84898E",
"U  c #898A8D",
"Y  c #8F918F",
"T  c #828593",
"R  c #848A95",
"E  c #8C8C94",
"W  c #83859A",
"Q  c #898799",
"!  c #848B9B",
"~  c #8A8D9B",
"^  c #908E94",
"/  c #918E9E",
"(  c #8D9196",
")  c #86919B",
"_  c #8B929C",
"`  c #929295",
"'  c #93949C",
"]  c #96989A",
"[  c #969A9D",
"{  c #9A9A9C",
"}  c #98A09E",
"|  c #858DA2",
" . c #8B8DA3",
".. c #858AAA",
"X. c #918FA1",
"o. c #8C93A3",
"O. c #8897A7",
"+. c #8E99A4",
"@. c #8C94AA",
"#. c #9395A3",
"$. c #949AA4",
"%. c #9B9CA4",
"&. c #9695A8",
"*. c #949BAB",
"=. c #9A9CAB",
"-. c #8693B4",
";. c #959DB2",
":. c #9C9DB2",
">. c #9A9FBE",
",. c #A19EA5",
"<. c #A19EAC",
"1. c #A19FB1",
"2. c #9BA3A3",
"3. c #96A1AD",
"4. c #9DA2AD",
"5. c #9CA8A8",
"6. c #9CA3B4",
"7. c #9AA6B5",
"8. c #95ADB9",
"9. c #9DABBB",
"0. c #A3A3A5",
"q. c #A3A4AB",
"w. c #A8A7AC",
"e. c #A4A9AE",
"r. c #ABABAD",
"t. c #B0AFAE",
"y. c #ACB1AE",
"u. c #A3A5B3",
"i. c #A9A7B4",
"p. c #A4ABB4",
"a. c #ACACB3",
"s. c #A3A6B9",
"d. c #A8A7B9",
"f. c #A4ACBB",
"g. c #ABADBA",
"h. c #B0AFB4",
"j. c #ACB1B5",
"k. c #A7B1BC",
"l. c #ADB2BC",
"z. c #ADB8BB",
"x. c #B3B3B5",
"c. c #B1B9B7",
"v. c #B3B3BB",
"b. c #B9B7BD",
"n. c #B4BABC",
"m. c #BBBABD",
"M. c #BEC0BF",
"N. c #9EB0C5",
"B. c #A5ADC4",
"V. c #AAADC1",
"C. c #A7B6C5",
"Z. c #ACB4C3",
"A. c #ADB6C9",
"S. c #B3B5C3",
"D. c #B8B6C3",
"F. c #B5BAC4",
"G. c #BBBCC4",
"H. c #B2B6C9",
"J. c #B5BBCA",
"K. c #BCBECA",
"L. c #A4B3D4",
"P. c #B7BDD2",
"I. c #C1BEC4",
"U. c #C1BFCE",
"Y. c #C2BFD1",
"T. c #ABC0C8",
"R. c #BCC2C5",
"E. c #B6C3CC",
"W. c #BCC2CC",
"Q. c #BDC3D3",
"!. c #BCC8D7",
"~. c #B9C2E0",
"^. c #C3C2C5",
"/. c #C6C9C7",
"(. c #C3C4CB",
"). c #C9C6CC",
"_. c #C4C9CD",
"`. c #CBCACD",
"'. c gray81",
"]. c #C3C5D3",
"[. c #C9C7D1",
"{. c #C4CAD3",
"}. c #CBCCD4",
"|. c #C2C5D9",
" X c #C8C6D9",
".X c #C4CBDB",
"XX c #CBCCDB",
"oX c #D1CFD4",
"OX c #D1CEDB",
"+X c #CCD1D4",
"@X c #C7D6DB",
"#X c #CDD2DC",
"$X c #D3D3D4",
"%X c #D4D9D6",
"&X c #D3D4DB",
"*X c #D8D7D9",
"=X c #D4DADD",
"-X c #DADADC",
";X c #E0DDDE",
":X c #DBE1DF",
">X c #E0E0DE",
",X c #C5CDE2",
"<X c #CACEE2",
"1X c #D1CFE0",
"2X c #CCD3E3",
"3X c #CED9E3",
"4X c #C8DAEA",
"5X c #D4D5E2",
"6X c #D8D6E4",
"7X c #D5DAE3",
"8X c #DBDCE3",
"9X c #D3D6E8",
"0X c #D5DCEB",
"qX c #DADEEA",
"wX c #D6DCF2",
"eX c #E0DFE5",
"rX c #E0DFEF",
"tX c #DDE2E5",
"yX c #D6E1EA",
"uX c #DBE7EA",
"iX c #DDE3EC",
"pX c #DCE3F2",
"aX c #D9E6F6",
"sX c #DEE9F4",
"dX c #E2E2E5",
"fX c #E3E4EB",
"gX c #E4E9EB",
"hX c #E8E8E8",
"jX c #EAEBED",
"kX c #E9F1EF",
"lX c #E3E5F2",
"zX c #E4EAF3",
"xX c #ECECF4",
"cX c #E7E6F8",
"vX c #E5ECFB",
"bX c #EAEFFC",
"nX c #F1EFF5",
"mX c #EDF1F4",
"MX c #ECF3FC",
"NX c #E9F5FC",
"BX c #F2F3F5",
"VX c #F3F4FC",
"CX c #F6F8F8",
"ZX c #F5FBFE",
"AX c #FBFDFE",
/* pixels */
"E.S > +.A J.+.MXK.#Xj.{.gXR.[ /.tXS.A F.$.}.l.] #X#X(.#.h s.J.1X}.' 0 ,.'.M ;X*Xt.[.<.).b.I.nX^.0 P iXiXk.8 | H d E.Q #.e.xX'.^.",
"2X) ; 3XpXQ.Z.yX{.Q.e `.&Xj.CX_.S.a.4 l.gX$.k R._.tX! p.s g XX5XU.0.r ,.hXa.*X<.M AX-X^ -XjX[.b.r G.W.K.4.l.,Xa s p.J.v.b.xX,.K ",
"sX3.  Z pX3.*.vXZ.B L W._.j.+X_.F.#.j j.xXl.q (.AXp.g 5X:.o.:.#XP h.h.).U.{ *Xh.b.*XI.b.AX*Xb.h.] iX7XW.j Z B.f.f.3XQ.J.P ;X^.^.",
"bX3.< : !.A.! AXW.5 c vX_.( mXj.{.4.g 7XG.a.l.2.8Xe.4 ~ O 4 :.K.%.eXI.).$X0.oXU.I.I.x.jXI./ ;X[.tXU l.f.x | A.B.f W.g.v.6 w.dX$X",
"4X1 x s d ;.| wXo.c g |.NXG.+X2.l.e R 7Xn.a.' W.#X6 j g.g.J.W =.I.AXm.h.;X{ w.oX$X).U xXU.h.dXAX(.+ tXf.@ x 4X;.s u.5X].<.t.AX*X",
"2XA s F s D 6.bXW  .c l.F.R.VXL k R 5 v.ZX=.[ =X_.( K.V T XXQ XX*XnXY.I.b.3 b.*XdX[.{ ;XoXjX(.b.n.' Q.e 8 B !.A @.~ J.S.M `.`.'.",
"!.7.< D @.D >.aX.XH.g.9 c tX=X#X%.Q k $.vXn.%.tXvX(.7 _ s.#.&.bXVXoXm.oXI.0 eX-X0.eX;X,.M t.(.^ q.(.n.e ) #.| Z.@.c i.G.M ;Xt.I.",
"bX7.u a b  .Q.wX9XJ.Q ~ ~ &XNXj.qX#.B {.j.' F.gXn.(.8 S.J.Q n VXeXjX<.{ oX6 h.jXh.jXI.6 k - eXjXG.}.ZXQ.B 6.< B.Z , i.i.h.I.*X'.",
"wXA.O >  . .P.0XB.Z.:.X.iX7XvXL XXXX= f.+Xq.}.+XfXW.j K. XT &.MXeX$Xt.^ t.3 I.hXP oXr.eXt.w.oX).n.gX{.F.s *.Z i d o.4.D.[.-X).'.",
"aXP.1 Z 1 @.~.0XP.*.].S. X&X7X_.G.K.E _ zXtX=X+X8XE A qXf.~ n qXcXw.OXh.M r.).oXM ^ I.AXD.oX*X- v.tXp.].B * 1 @.! A $.{.q.G.'.;X",
"4XJ.i # a 2X.X@.bXP.].S.W.zXxXe.e F.L p._.2.W.AX3.r #.D.u.H.g 5XnX'.w.h 3 6 h.;X;XI.jXI.I.).oX' r gX7X+.S s a F s > R }.).`.oX'.",
"A.*.a # f.B.@.!.bX#.&.S.F.e.R.%.Q.q.% p.VX~ q.+XW.%.K.T <.H. .qXnXI.I.k ] - M nX*Xi.eXP jXb.I.I.-Xl.VXT , , s i a o.].D.).^ I.hX",
"!.3.B , B.*.3.ZX.Xj S.( x.tX=Xj.#Xq.o.7XE.N o j.AXE.XXR 9 W H.5XeXh.oXoXI.6 b.eXeXP eXeXAXI.*XP fXp.6X! d x , Z @.J.XXg.I.,.).$X",
"pXC.f w f.0X.XsXQ.e ~ R _.R.+Xn.K.{.v.F.v.e.E n.&XN e a.~ O W cXeX-Xh.hXb.0 hXI.eXi.`.nXh.a.b.M [ =XW.q.A E.;.| ! J.}.6XM %.`.;X",
"uXE.! +..X{.k.9XZ.#Xj.( n.e.dX_.V v.$.o K.[ _._.t N 7 g =. .u.u.eXnXU.I.I.,.b.).[.`.`.nXI.b.i.$X(.+XK.F., A.,X7.Q.J.Q [.k ,.m.).",
"3XsXk.x sXE.*.J.}.W._ e a.^._.+X6 S.t $ $.tXR 8XfXe 6 =.9XQ Z.W OXAXh.P I.0 ).eX[.b.I.jXAXb.^ ;Xw.fXE.e =.2X;.Q.3.7.0 [.b.r.w.;X",
"#X=.E.yX4.f.*.ZXZ.*.*.].d.i.<.I.cXeXQ - h.U.).7XR.N 4.F.*.w s T iXAX_.t U 3 }.8X<.' G.hX/.>X0.K ^.c.x.N }.2X!.k.c A._ iXt ( -X$X",
"7Xn.=.=.#XZ.S !..X6.d.5XXX6X&.M v.cXD.+ D.v.(.BXW.[ 4.#X% s 1 +.zXzXiX=.T XXqX[.a.eXD.nXhXm.'.` nX{ G.n.XX7XiXS d f.K.u.2 r.r.$X",
"+X=XR e E.f.A 9.Q.A.Q.XXg.cX,.6 / 6XM Q ).8X( %._.R 5 4.k.) Z 2X=X8X{.gXu.].<.g x.lXnXD.w.m.;XnX/.$X-Xv.3.F.Z.+.8 f.iX_ L ^.` $X",
"7X(.! l..Xk.F .X0X.XS.S.h D./ h <.I.4 U.q.{.( G.R.W.p.R 0Xf..X.XF.{.N qX(.W.S.v.D.&XoXm.b.*X;XM.`.$Xx.R p.x s ,XS 6.z.R K.tXr.^.",
"lX(._ ! F.Q.*.sXJ.c 8 ! <.i.OXD.qX(.K g.7Xa.u.&XzX_.=.E.{.E.vXo.F.n.I _.}.5X|.].6X(.D.eX).*Xm.Y I.`.*X2 g s f.F.Z.9XsXb.x.G.0.).",
"7XW.$.4 !.F.3.sX!.o.u.#.6Xb.VXP <.fXK.K.AXU V =X_.q.l.bXJ.d !.pX_ I t 8X=Xl.xXOX&X}.b.I.,.$X'.t.`.`.}.=., k o.3.sX2XvXp.(.8X^ ` ",
"7Xp.4.{.ZXp.| 4Xc 8 X.Q b.v.*X- / fXE D.VXg.k 7X#X3.#XW.7X! Z.vX=XE.w W.XX( lX}.G.rXM ,./.*XhX0.$XhXI.e.j F.! d Q.9.0XT [._.^ m.",
"5XG.4..X3XE.E.*.f.l ^ oX[.rX`.P g.AXi.xXqX' 9 &X7X% J.W.!.B ! yXiXR.2 t 6XbX6X(.rXG.,.{ ;X'.{ '.dX(.8XF.S.#.f.B.MX.XqXc 7Xw.{ nX",
"zXzXl.R 3.*.B F ) Q.F.ZX] ` eX*XeXOXx.h.&Xg ~ u.zX~ R B *.B ) *.=XI & e N 8XfX#.rX^ h.oXdXnX0.'.eX0.BXl.c J.*.9.0XwX.Xu.R }.$XjX",
"zXtXg.~ 8 j.. s 9.=XW.j.x.{ nXAX).P 6 / &XL S.Q l.Q.p., s ) E.F.NXR.L p.4.f.AXq.#.I.rXdX^.eXm.x.v.{ 8X~ p l Q.s.6.,X<X$.<.fX-Xb.",
"ZXqXJ.j w 7.B 9.o.NX#Xv.0.*XCXCX^ K r U.VXL ~ =.P.c ~ _ E.p.q yXmXkXE.tXOX[ lX&.%.v.OXeXM x.$X3 0 h.VXu.j 7 p P.A.| 2X4.VXh.I.G.",
"bXiX! R 5 ) 3.T.p.f.E.(.*X*X$X] P ^.a.VXXXM * =.5X5 7 u.vXz.@ AXZX=X}.{.l.p.XXi.6XoXeXeXM ] jXb.0 M AX7Xc o.B.aX,XZ.Q.T <.[.D.nX",
"bX}.T ! ! A B S 7.R.}._.R.$Xt.3 `.&Xb.&XT #.7 g s 2XZ.p.{.F.C.!.uXiX4.' &XW.c K.[.&Xv.^ a.x.`.hX'.$XfXi.X.W P.H.>.6.pXA T nXv.=X",
"ZXd.4.s Z._ e w F.zXj.R.w.dXt.t.-X^.[ [.U.v.g 9 u.ZXQ.c d ) 7X=XmXl.2.8XK.p.%.T }.OXv.E $XCXhX$XP oXU.g &.|.*.!.0XW 0X7 / ).h.fX",
"&XS.n j R 3.8 ! ZX3.6 j.kXM.^.*Xm.`.( xXAXG.T s.vXf.&.*.4.! E.@X=XR.v.#X4.V i.i.OXI.).$Xh.eXjX^.r L XXK.$ 0X@.B.pXD V.o.%.fXg.).",
"V.&X~ j S w B ) sX5.[ tX/.^.hX;Xa.gX$.AXU.D.XX<XcX@.7 *.J.3.NXn.j _.7Xa.u.Q i.&XlXb.' eXr./.$X^.$X,.8X6X, :.*.| bXi z Q D.eXU.[.",
"$.7X] + % ) S 7XtXuX+X=XM.t.*X;X#.9X9 2XgXR J.MX|.p n @.o.4.{.f.} j.ZXqXj. .pX$.lX%.U >Xx.jXb.v.jX' rX%.O ~ 6.B vXx F.XXD.}.jX}.",
"xXq t . @ : k.uXZX=Xn.`.`.m.hXAXc W ! l.qX) ].VXd.m z V.| #._ +XM.:XF.F.c l 6XS.(.I.^.jX;X*XCXI.[.g.M U.! p..X8 W.7.NXo.4 xX(.E ",
"R.E S   @ 3.z.iXj.yXR.dXt.>X*X'.XXV.s g.{.5.lXvX@. .l # p #._ tXZXM.% I V.u.lXY.&Xw././.;X`.I.^ ,.I.M rXq.W.{.d , S ZX#.S.(.fXD.",
"qX7Xq : F.yXw F.j.E.'.$X*XM.>X&XbXwXT &XE.l.yXlXS.W A s @.&.A tXgXN N 3.U.=.&./ 8X^.$X/.x././.oXb.L L D.3.vX$.! 1 7.vX{.6Xq.a.U.",
"VX=Xs T NXE.S !.l.F.e._.`.*XhX-XX.S.|.sX!.e.#.uX9X*.&.V.A $.g +XkX0.l.7XQ  .X.=.,.nX$X>Xx.I.hX[.b.2 m.+X&XsXS ! 8 *.bXT D.U.i.XX",
"G.7X+.e E.3.9.yX) 9._.j.dX`.CXm.&.<X&.qXF.2.t E.wX .>.s.! &.p.R.CX[ =.&X&.9 / Q ^ -X*X*X/.b.b.{ b.x.jX=X).E..XB A f.VXW Y./ S.6X",
"sXlXj , 3.S f 3Xk.p.j.=X-X^.dXjXXXbX% {.e.[ T p.wXi d.9XqXo.E.=XuX5.7XqXXXl Q - m.*X*X/.^.`.).eXjX'.M.U j {.ZXs s k.|.Y.1X=.Y.VX",
"bX#XB o w j S NX+.3.3.Z.+X&XBX&Xs.V.V E.p.T ( XX5X#.P.pXJ.V l.tX:Xc.&X~  . X1.9 I.nX{ m.*XCXjXx.jX] '.x.k zX7Xo.8 D <Xn Y.1X6XOX",
"7XQ.A 8 O.d O.0XZ yX) , tXtX`.n.ZXJ.k 4.j._ R +XcX.Xb Z..Xs 3.mXc.y.tXS =.H.d.1.).m.^.K $XjXP + r.c.VXU N 8X7X2X*.d Z.4 9XY.=.d.",
"9XQ.A x ! F 8.yX| !.+.[ ( n.&X-XH.].s R {.( S ZXAXXX .s.Q l.=Xz.:X/.R.E.0X$ U.6Xv.O /./.BX$X^.{ { y.-Xj.E.yX!.Q.{.: A c Y.d.1.D.",
"yXE.O.s H F A.4XJ.B.z.k.( _ _.D.W P.u.4.uXtX@XgXJ.Q.|.*.Q.7X7X2.NXM.+XfX~ n 1.6X'.& m.CXw.dXeXb.dXm.8XCXj.7X#X_ J.x , ,  .M X.OX",
"pX2XD a Z F ;.!.E.F F +.F.F.$Xe.].S.( p.CXNXn.zX9X=  .6.lX=.=XR.kX+Xb.2XXX .D. XeX` ^.$X` jX$X,.-X$X-Xl.v.{.J.) @.o._ s 7 M OX[.",
"sXvXa b C ;.f C.aX7.w 3.6.+X+X' #X$.j.@X=XNXe.j.XXf.6.9Xa.j n.AX%X} ` W.Z.V.6Xg $Xb./.M.'.>XP r $X(.nXt W.p.l.o.s .XS.A  Xv.OXoX",
"aX!.b d 9.) F C.yX7.| E.p.K.AXG.9 g.2X_.kXZXR z.iXqXP.s.uXj.!.R.uX5.#Xl.d.AXQ k G.oX`.t.*XjXK ^ nXoXrXR ! =.6.6.A f.XXZ.6X' &X&X",
",X| ! S !.F N.C.aX4X.X9XK.V fXE.n 7 e.W.tXn.z.gX5Xu.*.lXA 4.j./.CX} =X.XJ.X.Q z w.a.-XY $XCXoX,.).fX,.g 5 $.o.2XV F.&Xl.-XM h.&X",
"B.a u L.L.N.C.!.!.NXk.#XE.T (.xX6.* _ F.uXp.gXiX! ! vXu.) R !.G.R.gX_.tX1.$ u.Q v.w.*XdXt.AXx.- }.(.v.z , A 5X{.+.F.zXXX&Xi.).<.",
"N.C > J N....X=X@XtX XJ.l c fX#X4.H.S.l.7XiXvXiX: F.Z.s F.Q.qXp.&.cX6X1XM  .M g #.dXn.`.-X8X}.#.oXE 0.$.7 g Q fXD.+XgX`.j.[ lX9 ",
"J C v u v N.0XW.+X%Xu.d.n T _.`.p.VX! J.0XMXn.fX%.j F.#.<X].W o.&.1XnX1.M &. .h a.&XG.$XfX(.i.&X8Xw.).rX- / OX6X^.AXM.'.m.&XXX#.",
"C C y y H ,Xz.gX} gXf.XX].o.R.3 R <X=.4.qX#XlXvX4.: f.{.0X*.p =.I.I.d.d.M M h &.(.a.$X8X-XVX].v.&X0.^.nX- g OX}.gX*X-Xm.eXF.AXX.",
"4X-.X -.v 2Xz.NX} R.qXS.V.2.R.5.s o.u.J.iXS..XF.7XN o.+X2Xu.~ o.1XD.p 1X>.v &.&Xv.` CXdXx.xXD.z &X^.$X|.T h  X7X=XdX:XM.8Xx.rXs.",
"4X4XC L.~.aXB } =X=X5X<X| l tXZX7Xo.o.T {.3.W.zX&Xe f.E.W.XXQ.0X6X,.4 v.OX&.OXXX}.{ jX$X}.dXL k oXdXfXi.R D.6X6X=XhX$X-Xm.b.XXg.",
"aX8.v J ~.N.2.] AX(.9X.Xl Q.F.=X#XA g.*.p.4.8XsXMXl.lX7Xd.! u.Q.{ M &.D.&.Q d.8XeXY %X%XfXCX[ t $X+X(.(.M 6X1X[.kX/.-X`.^.v.bXu.",
"N.y y v ~.;.R R.+X^.=.@.W 4XuXz.J.&.:.{.@ $.W.8XNXp.{.G.Z.T =.~ *X^ M v.=.}.a.G.m.Y :X$X$XfXG./ dX^.q.xX=.6X6X[.y.:Xy.y.eX6XG.].",
"8.> C F -.L.R =X:X%X.X .A..XZXgXJ.6.=.iXQ.&.l.ZX#Xe 9X~ o.6.n T *Xh.{ <.a.F.qX`.-XM./.x.xXBXU.G.-X$X%.7XS.1XlXD.r m.{ x.-XfXU.|.",
"A.Z u H H ,X_.%XtXe.Q.>.l ,XsXyXu.~ T vX#Xj k !.p.4.f.e ~ Q.6.9XjX^.' R.G.[.g.G.m.hX%XhX%XxX#.v.dX`.G.a.g <.1.[.K t.{ ^.BX(.5Xs.",
"O.F u m ..f _.+X%Xc.H.O.b Z.zX$.f.6.@.VX#Xf.=.{.lXN =.c A Q.u.qX-X,.a.0.(.g.i.[._.{ kXM.,.fX<.G.%.h.' g.6XS.4 [.R.`.c.:Xy.x.[.lX",
"+.G >.v 9.*.F.uXCX5.T 1 Z ZXF.B Z.l o.MXXXl.{.iXp.tX{.B &.Q.Q.qXhX3 w.XXXX[.qX&XdXY *Xm.}.VXz U.,./.jXD.^ i.D.xXj.M.'.CXe.` L |.",
"5.8.m m B.,X}.+XCXE.3.b 4X!.E.k.f.o.pX{.j.f.iX=._ Z.R ! 5X.X*.Z.hXr.U 8X#.i.rX#.w.K.`./.}.7X6 v.dX).6Xa.9 n &.a.m.-X%XjXXXh c a.",
"@X9.f Z 9.rX[.:X] _.pXwX-.i ) uXf.Q.AXS.Q.F.F.T l.% F.W.H.MXJ.u.*X).eXM 7 D.T ^ 6X`.x.^.6XcXX.K.fX{ }.XXh 7 / i.=XBX%XhX-X6 v.Q ",
"NXZ H p ..2X|.AXj.; 9.m D H 8.B Z..X5X4.#XF.T S.#Xo #XVXc A H.5X`.).&X#. X<.D.Q (.&XmXg.6X1Xz  XCXU g.jXv.&.1.b.$XhX`.AX/.h ].; ",
"@X| # v ..:.AXgX5.` b m f | !.G 6.J.0XR ~ p.4.l.qXG.{.W.p j 2X7X&X0.D.6XVXD.<.9 h I.VXk U.cX4 4 G.x.^.xX1XQ o K.$X:X`.dX`.a.v.9 ",
"3X+.p m | .XAXz.2.k.K.f ;.O.z.E.A , vXk.k o.7X(.NX3._ o.s 8 ;.vXe.m.w.rXY.cXp M ' ' nXVX6X6Xl T p.).=X).i.8Xv.2.x.`.*Xm.AXrXc s "
};
