/* XPM */
static char *e324a9043b10489fed85b3a5d2055bcfGZPphXuoIUp1s3hT[] = {
/* columns rows colors chars-per-pixel */
"64 64 70 1 ",
"  c black",
". c #010100",
"X c #010101",
"o c #040300",
"O c #040301",
"+ c #080600",
"@ c #080601",
"# c #0B0700",
"$ c #090702",
"% c #0A0905",
"& c #100E04",
"* c #191301",
"= c #1B1400",
"- c #181402",
"; c #1D1802",
": c #2B240C",
"> c #2C260D",
", c #252211",
"< c #332D10",
"1 c #363010",
"2 c #493C01",
"3 c #4B3F06",
"4 c #44390B",
"5 c #403811",
"6 c #584B04",
"7 c #574A09",
"8 c #5D5325",
"9 c #6F6225",
"0 c #76682C",
"q c #796A28",
"w c #86741F",
"e c #807021",
"r c #817229",
"t c #8D7C32",
"y c #887A39",
"u c #9B830B",
"i c #9A840B",
"p c #9C840D",
"a c #9E860F",
"s c #A68D0E",
"d c #B19715",
"f c #AF9728",
"g c #AA9434",
"h c #AD983F",
"j c #C8AD23",
"k c #DBBC23",
"l c #D4B62D",
"z c #D6B932",
"x c #DABC30",
"c c #D6B938",
"v c #FED80F",
"b c #F1CD13",
"n c #F0CC1B",
"m c #F8D313",
"M c #FFDB10",
"N c #FFDA11",
"B c #FDD812",
"V c #FFDF1A",
"C c #FFE20E",
"Z c #FFE013",
"A c #E2C123",
"S c #ECCA24",
"D c #F4D124",
"F c #FAD624",
"G c #FBD724",
"H c #FBD726",
"J c #FFDF21",
"K c #C7B046",
"L c #EDD14B",
"P c #E8CD50",
/* pixels */
"CCCCCCCCCCCCCCCCCCCCCCCCCCCCCCCCCCCCCCCCCCCCCCCCCCCCCCCCCCCCCCCC",
"CCCCCCCCCCCCCCCCCCCCCCCCCCCCCCCCCCCCCCCCCCCCCCCCCCCCCCCCCCCCCCCC",
"CCCCCCCCCCCCCCCCCCCCCCCCCCCCCCCCCZCCCCCCCCCCCCCCCCCCZCCCCCCCCCCC",
"CCCCCCCD1 9VF%Pj OCCCCCCCCCCD1 9ZH%Pj oCCCCCCCCCCD1 9ZF%PjooCCCC",
"CCCCCCD< yZCFLCd  CCCCCCCCZD1 yZCGLCd  CCCCCCCCCD< yZCGLCd oCCCC",
"CCCCCx> hZCCCCl: gCCCCCCCCx: hBCCCCz: gCCCCCCCCx> hMCCCCl: gCCCC",
"CCCCz$ fCCvCCcO KCCCCCCCCz# fCCCCCcO KCCCCCCCCz# fCMCMCco KCCCCC",
"CCCC- $72376S, 0CJCCCCCCC- #72726S, 0CJCCCCCCC- #72776A, 0CJCCCC",
"CCCC        k& rG8CCCCCCC        k%orG8CCCCCCC        k& rG8CCCC",
"CCCCsuaia4 #A5;tq-CCCCCCCsiaia4o#A1;tq-CCCCCCCsiaia4 #A5;tq-CCCC",
"CCCCCCCCCqo nMvNmNCCCCCCCCCCCCqoonZvNmvCCCCCCCCCCCCe  nvNNmNCCCC",
"CCCCCCCCCw#-bCCCCCCCCCCCCCCCCCw#-bCCCCCCCCCCCCCCCCCw#-bCCCCCCCCC",
"CCCCCCCCCw$-bCCCCCCCCCCCCCCCCCw#-bCCCCCCCCCCCCCCCCCw#-bCCCCCCCCC",
"CCCCCCCCCCCCCCCCCCCCCCCCCCCCCCCCCCCCCCCCCCCCCCCCCCCCCCCCCCCCCCCC",
"CCCCCCCCCCCCCCCCCCCCCCCCCCCCCCCCCCCCCCCCCCCCCCCCCCCCCCCCCCCCCCCC",
"CCCCCCCCCCCCCCCCCCCCCCCCCCCCCCCCCCCCCCCCCCCCCCCCCCCCCCCCCCCCCCCC",
"CCCCCCCCCCCCCCCCCCCCCCCCCCCCCCCCCCCCCCCCCCCCCCCCCCCCCCCCCCCCCCCC",
"CCCCCCCCCCCCCCCCCCCCCCCCCCCCCCCCCCCCCCCCCCCCCCCCCCCCCCCCCCCCCCCC",
"CCCCCCCCCCCCCCCCCCCCCCCCCCCCCCCCCCCCCCCCCCCCCCCCCCCCCCCCCCCCCCCC",
"CCCCCCCCCCCZCCCCCCCCCCCCCCCCCCCCCCCCCCCCCCCCCCCCCCCCCCCZCCCCCCCC",
"CCCCCCCD1 9ZF%Pj OCCCCCCCCCCD1 9ZG%Pj OCCCCCCCCCCD1 9ZG%Pj oCCCC",
"CCCCCCD< yZCFLCd  CCCCCCCCCD< yZZHLZd  CCCCCCCCCD< yZZGLCd oCCCC",
"CCCCCx> hZCCZCl> gCCCCCCCCx> hMCCCCl: gCCCCCCCCx: hZCCCCz: gCCCC",
"CCCCz$ fCCCCCcO KCCCCCCCZz# fCCCCCco KCCCCCCCCz# fCCCCCco KCCCCC",
"CCCC- $72336S, 0CJCCCCCCC- #72736S, 0CJCCCCCCC- O72776S, 0CJCCCC",
"CCCC        k- rG8CCCCCCC       ok&orG8CCCCCCC        k& rG8CCCC",
"CCCCsuaia4 $A1;tq-CCCCCCCsiaia4 +A1;tq-CCCCCCCsuaua4 OA5;tq-CCCC",
"CCCCCCCCCe  nNvNmMCCCCCCCCCCCCe  nZvNmMCCCCCCCCCCCCe  nvvNmNCCCC",
"CCCCCCCCCw#*bCCCCCCCCCCCCCCCCCw#-bCCCCCCCCCCCCCCCCCw#*bCCCCCCCCC",
"CCCCCCCCCw#-bCCCCCCCCCCCCCCCCCw#*bCCCCCCCCCCCCCCCCCw$*bCCCCCCCCC",
"CCCCCCCCCCCCCCCCCCCCCCCCCCCCCCCCCCCCCCCCCCCCCCCCCCCCCCCCCCCCCCCC",
"CCCCCCCCCCCCCCCCCCCCCCCCCCCCCCCCCCCCCCCCCCCCCCCCCCCCCCCCCCCCCCCC",
"CCCCCCCCCCCCCCCCCCCCCCCCCCCCCCCCCCCCCCCCCCCCCCCCCCCCCCCCCCCCCCCC",
"CCCCCCCCCCCCCCCCCCCCCCCCCCCCCCCCCCCCCCCCCCCCCCCCCCCCCCCCCCCCCCCC",
"CCCCCCCCCCCCCCCCCCCCCCCCCCCCCCCCCCCCCCCCCCCCCCCCCCCCCCCCCCCCCCCC",
"CCCCCCCCCCCCCCCCCCCCCCCCCCCCCCCCCCCCCCCCCCCCCCCCCCCCCCCCCCCCCCCC",
"CCCCCCCCCCCCCCCCCCCCCCCCCCCCCCCCCCCCCCCCCCCCCCCCCCCCCCCCCCCCCCCC",
"CCCCCCCD1o9ZG%Pj OCCCCCCCCCCD1 9ZF%Pj OCCCCCCCCCCD1 9ZG%Pj oCCCC",
"CCCCCCD1 yZZGLZd  CCCCCCCCCD< yZZGLCd  CCCCCCCCCD< yZCGLCd oCCCC",
"CCCCZx: hZCCCCl> gCCCCCCCCx> hZCCZCl: gCCCCCCCZx> hZZCZCl: gCCCC",
"CCCCz# fvCCCCcoXKCCCCCCCCz$ fCCCCCzO KCCCCCCCCz# fCCCCCco KCCCCC",
"CCCC- +72736S,oqCJCCCCCCC- $72336S, 0CJCCCCCCC- $72376S, 0CJCCCC",
"CCCC        k&oqG8CCCCCCC        k& rF8CCCCCCC        k& rG8CCCC",
"CCCCsiaia4 $A1;tq-CCCCCCCsuaia4 #A5;tq*CCCCCCCsiaia4 OA5;tq-CCCC",
"CCCCCCCCCe  nvvNmNCCCCCCCCCCCCe  nMNNmNCCCCCCCCCCCCq  nMNNmMCCCC",
"CCCCCCCCCw#-bCCCCCCCCCCCCCCCCCw#-bCCCCCCCCCCCCCCCCCw$*bCCCCCCCCC",
"CCCCCCCCCw#-bCCCCCCCCCCCCCCCCCw#-bCCCCCCCCCCCCCCCCCw$*bCCCCCCCCC",
"CCCCCCCCCCCCCCCCCCCCCCCCCCCCCCCCCCCCCCCCCCCCCCCCCCCCCCCCCCCCCCCC",
"CCCCCCCCCCCCCCCCCCCCCCCCCCCCCCCCCCCCCCCCCCCCCCCCCCCCCCCCCCCCCCCC",
"CCCCCCCCCCCCCCCCCCCCCCCCCCCCCCCCCCCCCCCCCCCCCCCCCCCCCCCCCCCCCCCC",
"CCCCCCCCCCCCCCCCCCCCCCCCCCCCCCCCCCCCCCCCCCCCCCCCCCCCCCCCCCCCCCCC",
"CCCCCCCCCCCCCCCCCCCCCCCCCCCCCCCCCCCCCCCCCCCCCCCCCCCCCCCZCCCCCCCC",
"CCCCCCCD1X9ZG%Pj OCCCCCCCCCCD1 9ZG%Pj OCCCCCCCCCCn1 9ZG%Pj oCCCC",
"CCCCCCD<XyZCGLZd  CCCCCCCCCD< yZZHLZd  CCCCCCCCCD1 yZZGLCd oCCCC",
"CCCCCx> hZCCCCl: gCCCCCCCCx> hZCCCCl: gCCCCCCCCx> hZCCCCl:ogCCCC",
"CCCCz# fCZCCCcooKCCCCCCCCz# fCCCCCco KCCCCCCCCz# fCCCCCcO KCCCCC",
"CCCC- O72776A, qCJCCCCCCC- $72336S, 0CJCCCCCCC- O72776S, 0CJCCCC",
"CCCC        k% rG8CCCCCCC       ok&orG8CCCCCCC        k& rG8CCCC",
"CCCCsiaua2 $A5;tq-CCCCCCCsuaia4 +A1;tq-CCCCCCCsuaua4 OA5;tq-CCCC",
"CCCCCCCCCq  nNNBmNCCCCCCCCCCCCe  nZvNmMCCCCCCCCCCCCe  nvNNmNCCCC",
"CCCCCCCCCw#*bCCCCCCCCCCCCCCCCCw#-bCCCCCCCCCCCCCCCCCw#*bCCCCCCCCC",
"CCCCCCCCCw#-bCCCCCCCCCCCCCCCCCw$*bCCCCCCCCCCCCCCCCCw$*bCCCCCCCCC",
"CCCCCCCCCCCCCCCCCCCCCCCCCCCCCCCCCCCCCCCCCCCCCCCCCCCCCCCCCCCCCCCC",
"CCCCCCCCCCCCCCCCCCCCCCCCCCCCCCCCCCCCCCCCCCCCCCCCCCCCCCCCCCCCCCCC"
};
