/* XPM */
static char *_0e7633a893c4adfd3db183881fcb4f9X1Qyg8AZoQ5LA7iC[] = {
/* columns rows colors chars-per-pixel */
"64 64 23 1 ",
"  c #9B9B9B",
". c #9F9F9F",
"X c gray64",
"o c #A5A5A5",
"O c gray67",
"+ c #ACACAC",
"@ c #B1B1B1",
"# c #B6B6B6",
"$ c #BBBBBB",
"% c #BCBCBC",
"& c gray76",
"* c gray78",
"= c #CBCBCB",
"- c gray80",
"; c #D2D2D2",
": c gray84",
"> c gray85",
", c gray87",
"< c gray88",
"1 c #E6E6E6",
"2 c gray92",
"3 c gray93",
"4 c #F1F1F1",
/* pixels */
"332232222132232122222112211122<,211<<<1,,21<22111<1<<1211<1122<2",
"<,1<1<;:21<11<<211<11121<,,<11>:2322321<<22121211223311<<112<<<1",
"<11<1<,,<<1<<,11<<,,,21<<<2222>;2<<11212111<<1<<121<112112<<1221",
"<11<<111<111211<1111211<221<11>;11331<2223322333321322<131,<1<<<",
"::-:;::;:;--=;;---;;-=---;=-;-=;<>:::>>-;::::;:;:;::;;::;::,::::",
";-==-------=====**=*=*=****=**=>>===*--===*****===******&&*=*&&%",
"32323223322332222223223222123121222222222112211122122121111112<2",
"12121312<2221<12112<213121121221312131122212212111121111112<2<<2",
"1212231211211132121<2<2<2131112121112<<2111111112111<1221<1,212<",
"3212231423242132311112122121221<212121221121<1112<122<1<<1<11<2,",
"321422132323<2421121211111112,222<3121111111<1211<<111<12<12<11<",
"211222212211<121221121<111222<11<1,,21<1121<11211112<1211112<12<",
"212221122212231<31113112<121212122213<<22111212<<121,<1<11<2<21,",
"2221<23112<1222311123<2111211<2<21<12<1111<2111<<11<,22<12<11<1<",
"1113131322122122112331212<<2<12<1<>11<11<11111<1<,,1121<1111,,2<",
"3222342212321311212211222222123121<4211122111113212211<31221123<",
":>::>>>>::;;:::::::;;;>:;-:;;>;;:;>>;;-;;;;;;;;--:::;::::>;:::;:",
";-;-----=*=*-===*=*=====******&=**=*&&*&&*&*&&&&&*&&&*%%&&%&&%&*",
"2323233322222212222122122112111,111221221111111<1111112111<<<1<1",
"<1<1212<<11121112<111111111112:-1<,,,,,><111,>:,,,<,,,;<2<1<,<<1",
"332<,<1112121<11<111<111<<1<<,>;<<<1<1<,<<,<,<1,,,:<<<:<<>,>>>,>",
"<<11121122,<<1<,<11,11<,,<<223>-1<<,<<11<1<<<<>,<<21<11<<,,<<<1<",
"121111<11<22121231121<111221<1;-,:>::::::;;::;;:::;:::;;;;;:;;-;",
"222<1111<1<<<<<1<<11112212,1<1:;;**&&**&*&&*&&&&%&%&%%&&%&&%$$$%",
"<2<1212112221<2111112<11<<1112;-122<21212111211<11112<111111<<1<",
"111<<<<1111,1<1<1<,11<1<<21<12;-111,312<<2<<211112<<21><2<<21121",
"211,11<111<11<<11<121<1112<111-=12<,3<2<>32>2111,1>21<:<1>,2<1,<",
"<1<221221121221122121<21<2<22<;=111<211>,31,3,<1,2,31,11,;,3<<1<",
"::::;;;;;;;;-;;;:;---:-;;;-;;-*=21,>3<;<,1<,2<11>3>1<<11<>1<><1,",
"***===***&*&&&&**&*&**&&&&&&&**>11,<3:;3:1<,2<1<>3;21<<2<,<1>1<<",
"221122232221111221211212211111,>22,22,>3>2112,1>,2,21>11<<21,11,",
"2122111111,121321221<211211222:;22<13<,3,1211<2<31<11,12<11<12,>",
"222<<32<22:12<221121211<112<23:-121<21,21<11<111<1>1<1111,<11,=,",
"1<1112111<22111111<<<<1<211><<>;22<22<<2<<21<21112<211<11<31<113",
"312112131122312121<12<11112,22:;,-;;--;;-;:-;;;;;;;:;;;:;->-;:->",
"211112<21<11221111223112121222:;;&*&**&*&**%&&&%%&&%%&&%&&&%*&&&",
"212112<21211122<21112<22111121:;122<1111212211122<1111<2<21<11<1",
"2112211211112<1111112<11<212<1:;<1<<<122<2<><1<<1222<<1121<22<12",
"21123,<2<221112111112<11,11<12:;1<<11<<<2<<11211<<<<11111<1<<11<",
"111211312331112<12<22121221323>;2<131<11<<<<;;,:11111<1<<11<11<1",
":>>::;>:::-;:>:::::;:;:;:;;;;;*;<;>,,>,111,,,1<<2,<11<<,<1<<<1<1",
"=-=*=*******==&****&&&&*&&**&&=>1<21112<111121<111<<111121<12111",
"122222111221121111111111111111,>221221111<111,>,<1<1<311,,11<11<",
"321212<>1113122132221211<121<2,;121<,,,112<<1<,,<11111<<,<1<<<1<",
"1<111212221<1223<<<<111<<11,11:;1<<<1321<<11<<;,<<12<<222111<1<1",
"11122<2211<2211<11211<<12<1211>:11,<211<<1,,<11<<421221<>11<,<1<",
"1222111<<1331221<2111<122111<2>:<:::;;;;:-;:;;;;:;=---;-;:;;::--",
"121121<2112<<<,,1222212221,<11;:;*&*&&&%%==*%&*&%%&&%%%&%&&**&*&",
"12222<<2122,1<1<2<111<11<<12<2>;11<1111<1111111<1<<1<1<<1<<1<<1<",
"2111122121,:22332232112<1<<112:;<1<21<3,1<11<<1<<2<21<12<11<21<1",
"1211<<12211241111<2<12121<2211:-<1>2<,2>1,<<,,1,<11<<<11<1<<11>2",
"111<1112211122<<11<12<,<<11<<<;;11<3,1,<<,11<<<,<1<<1<<1,1<>11,<",
"1111<1<11<1<<<<<<<<<1<1<11<1<<;-<,>1,<,<,,<,><1>1,,,,,,,>,:>,,:,",
"OoO+++OOOoXXXXOooOXXXoX.XXXXooX++.XXX..X.. . .. X .XX..XX..oOXoO",
";;;::;;:-----------===--======-;;===---**--=-;=;;-;;;;;---;;:;;:",
"2>,>>,<11<::>,<>*>1,,,,,;;:>,>,<-:;-<,:%=1<<<>,>><:><<,><<,,>>1<",
":::><<,,,>:;;>;-:>--:,>>::>,:-=$;<:>;;:&-<:,;::*;,;;,,;,,,><>:1>",
">;<><:;-,>:;;,<<,>>::>,>,<<,,>,,1,,>,,>%-1:,:<:-><>:,,;1>>,;>,1,",
":<<>>;;>>>;-:;==;::;;:--,>:;->>:;->,:::&-:=:--=-:-=*;*=;-;;-:;:-",
":,>>>,21<<>>;;-,>,,,,><,:>:-*>1,<<1>>>>$=####@@@@@@#@@#$$##$$$@#",
",,>>,,:>::<1<>><>>>1<;;,<,,,<,>>>:=:::>%-,,<<<,,,,<,<11<,<<<,,<<",
">>>1>,<,,1>>;;>>::::>>,<>,:>,>>:;;:,-->%-2<111<21>,><<,>,3211121",
":,,:-<>>,<,>>>>>:>::,><<,,<,,,<,<<<,=;<$-<1,1<<1<<1>->>>,,>:;;><",
",><<2<,>>:=:,<,,,>,,::<,>,>,,,<,><<111>%;,<<<,,<<1,,12212<,<<11,"
};
