/* XPM */
static char *a910f43dcac54223efd87696f88217ffYLasuUzzF6vAJ0Za[] = {
/* columns rows colors chars-per-pixel */
"64 64 256 2 ",
"   c #030101",
".  c #0B0402",
"X  c #05050B",
"o  c #160905",
"O  c #1A1109",
"+  c #090A16",
"@  c #141319",
"#  c #26170C",
"$  c #2B150D",
"%  c #262016",
"&  c #38241A",
"*  c #010C25",
"=  c #0A1629",
"-  c #161828",
";  c #0C1D33",
":  c #141D33",
">  c #181D36",
",  c #291B2F",
"<  c #0F2C33",
"1  c #0C2439",
"2  c #15233A",
"3  c #172438",
"4  c #1A243C",
"5  c #392926",
"6  c #262739",
"7  c #302A31",
"8  c #47190E",
"9  c #6E1B0D",
"0  c #46261B",
"q  c #552B18",
"w  c #452A27",
"e  c #483427",
"r  c #58372B",
"t  c #503532",
"y  c #68372A",
"u  c #70352F",
"i  c #3D6C07",
"p  c #686917",
"a  c #524D33",
"s  c #59463A",
"d  c #6E4833",
"f  c #774537",
"g  c #0F2D49",
"h  c #182943",
"j  c #1B2B42",
"k  c #1A3147",
"l  c #222C45",
"z  c #282C45",
"x  c #29224D",
"c  c #3B2346",
"v  c #263349",
"b  c #363748",
"n  c #293855",
"m  c #353B55",
"M  c #49264B",
"N  c #52314E",
"B  c #552857",
"V  c #6A2E4F",
"C  c #592360",
"Z  c #6E2D6C",
"A  c #354858",
"S  c #0D5C64",
"D  c #024B73",
"F  c #385169",
"G  c #347177",
"H  c #464658",
"J  c #514B51",
"K  c #70504A",
"L  c #775549",
"P  c #756555",
"I  c #4F546C",
"U  c #675763",
"Y  c #526C72",
"T  c #686F75",
"R  c #9A2216",
"E  c #8C3832",
"W  c #E33B39",
"Q  c #8E570A",
"!  c #916F03",
"~  c #AE7602",
"^  c #874937",
"/  c #8B4D33",
"(  c #964B36",
")  c #98543B",
"_  c #AD4D32",
"`  c #A75539",
"'  c #B75738",
"]  c #917136",
"[  c #B06935",
"{  c #C77900",
"}  c #CB5335",
"|  c #C45A38",
" . c #E15339",
".. c #C9633C",
"X. c #D5673B",
"o. c #D7713B",
"O. c #E6703B",
"+. c #98355E",
"@. c #8D564B",
"#. c #A95B44",
"$. c #B85D44",
"%. c #B05253",
"&. c #956A4A",
"*. c #896459",
"=. c #986758",
"-. c #AB6B53",
";. c #945170",
":. c #AB4F78",
">. c #927268",
",. c #A87767",
"<. c #B6756B",
"1. c #D35C56",
"2. c #C86544",
"3. c #D66944",
"4. c #D87446",
"5. c #CC7357",
"6. c #E67846",
"7. c #EC7348",
"8. c #C97467",
"9. c #0D992C",
"0. c #658C27",
"q. c #678E52",
"w. c #958E18",
"e. c #B88600",
"r. c #B1900A",
"t. c #909031",
"y. c #AA922F",
"u. c #B1AF37",
"i. c #C78A00",
"p. c #D58B07",
"a. c #C89601",
"s. c #D59700",
"d. c #DAA700",
"f. c #D0AD0B",
"g. c #E6A900",
"h. c #E4B301",
"j. c #F78F36",
"k. c #C9BA2E",
"l. c #E8A027",
"z. c #BFC13B",
"x. c #DBC333",
"c. c #928D4D",
"v. c #B5B246",
"b. c #B38676",
"n. c #A0A263",
"m. c #F88A48",
"M. c #D2AC4C",
"N. c #D18D73",
"B. c #E59577",
"V. c #FEB66B",
"C. c #AFC54C",
"Z. c #CEC852",
"A. c #EADF66",
"S. c #EADB6D",
"D. c #00558F",
"F. c #016991",
"G. c #26729E",
"H. c #0053AA",
"J. c #0059B8",
"K. c #006CAA",
"L. c #0067B8",
"P. c #0074B9",
"I. c #4C778C",
"U. c #72738A",
"Y. c #76768B",
"T. c #5C78A5",
"R. c #005AC6",
"E. c #0070C6",
"W. c #D03B8A",
"Q. c #B75687",
"!. c #926696",
"~. c #B86A8E",
"^. c #D15690",
"/. c #EC5A95",
"(. c #CE6F92",
"). c #D7689B",
"_. c #F26E99",
"`. c #E959A1",
"'. c #DA74A7",
"]. c #F969A9",
"[. c #E971A7",
"{. c #FD78A8",
"}. c #FC78B5",
"|. c #038DB5",
" X c #298FAA",
".X c #608E99",
"XX c #4D95AE",
"oX c #0187C5",
"OX c #0092CE",
"+X c #0099D7",
"@X c #338BDA",
"#X c #03ABD4",
"$X c #2EACCA",
"%X c #0397E9",
"&X c #0AAAEF",
"*X c #00B8E6",
"=X c #35B4EF",
"-X c #53ABCE",
";X c #08C7EC",
":X c #36CFF5",
">X c #55CCE3",
",X c #51D2F3",
"<X c #6AD0F0",
"1X c #69DAF7",
"2X c #77DBF5",
"3X c #7AE3FE",
"4X c #888B95",
"5X c #B89187",
"6X c #97AC9B",
"7X c #9594AA",
"8X c #B4AEAD",
"9X c #A6A7BB",
"0X c #C69889",
"qX c #D0968F",
"wX c #E9938B",
"eX c #D2A790",
"rX c #D7A799",
"tX c #EDAE8F",
"yX c #E8A996",
"uX c #D38BA2",
"iX c #FD87A9",
"pX c #F38AAE",
"aX c #FE88B7",
"sX c #FD97B8",
"dX c #D7B1AC",
"fX c #EAB7AD",
"gX c #FBC193",
"hX c #DCC4B5",
"jX c #EAC5B6",
"kX c #F6CAB0",
"lX c #AAAEC4",
"zX c #ADA6CC",
"xX c #B5B6CA",
"cX c #BCBDD3",
"vX c #FF8BC2",
"bX c #FF93C6",
"nX c #C9B2C8",
"mX c #FCB0CF",
"MX c #94C5DE",
"NX c #B9C3D3",
"BX c #86DAF1",
"VX c #88E4FC",
"CX c #C4C5D9",
"ZX c #D5D6D4",
"AX c #F5D3CB",
"SX c #D2E0D9",
"DX c #FBEBD4",
"FX c #CFCFE3",
"GX c #D5D7E8",
"HX c #FBD8E5",
"JX c #D9E2EC",
"KX c #E7EAEC",
"LX c #FAF7EC",
"PX c #F1ECF1",
"IX c #FAF7F6",
"UX c #FEFEFD",
/* pixels */
"Y |.#X;X*X#X+X+X+X#XOXG.I G F.Y P p c.q.9.y.j.o.' ' _ o.O.X. .} _ / E _ / / _ } _ _ ( ( _ &.J 7 c M t M C c , , c u ~ { { 9 9 R ",
"T |.#X*X*X#X+X+XOXOXR.H.I K.#X6XC.t.a 9.q.k.j.[ _ ` ` O.O. .O...' _ E / q ( _ } } _ _ E E @.N N N B N N M , , , 7 / { { { Q 8 9 ",
"6XS #X;X*X%X+XOXOXE.G.I.A #X*X6XA.A.q.9.q.j.l.[ _ / / O.O.X.X.O.| ..' ( Q _ } } } _ _ ( @.B N N N N B B , , , c t ~ { { { ~ 9 9 ",
"q.|.#X;X&X%X%X%XOXoXG.I.G |.#X.XA.A.C.n.z.l.j.o.` ` ( O.j.O.O.7.}  . .} _ _ } } _ _ _ _ +.C M N V N B M c c M B f ~ p.{ ~ { p 9 ",
".X#X&X&X&X%X*X+X|.|. X.X|.|.A v.A.Z.C.C.Z.V.l...' 3.` X.m.7._ } 1.W W W _ 9 u R +.R W ' Z C M B Z B B M M c M @.~ ~ ! e.i.e.Q 9 ",
" X;X&X&X&X&X#X#X$XXXY Y $X$XS c.S.A.Z.S.A.x.l.o.' 3.#.#.( y 0 8 8 E W +.+.u V +.9 u R +.Z C C Z Z B B M c M K ~ { ~ p p ~ ~ p R ",
"$X:X=X&X:X=X$X$X$Xq.P P XX$X XF n.C.C.A.Z.l.l.j.@.@.s w # o # # o $ w r V +.+.+.E 9 u E +.Z Z Z Z B N c c d e.{ ~ ! w.i p ~ Q R ",
">X,X=X,X>X@X-X>X-XXXT P .X$Xq.A |.G n.A.A.V.m.4.u e O . o o   o o o O . . o o 8 V E M N Z N U B C M c b / e.i.~ w.r.0.i p Q R R ",
"<X>X1X<X$X-X1X>X>X,X>X.X.Xq.H A F.S q.S.gXC.f 8 e w o . . O o   . . o o         O V V V t 7 z N c c a c.y.e.w.t.t.u.w.0.i d R R ",
"2XVXBX>X>X1X1X1X,X1X,X:X.XJ G |.|.|.q.S.C.a O # & % . o O O .   .       . . .     % w 5 7 = < 7 a 0.u.y.y.! t.v.u.t.w.0.! ~ R R ",
"BXVXVX2X2X2X3X3X3X1X:X$XY Y #X*X#X#X6Xc.a & 5 s & . X O % O     X o .   o     .     % 7 t V s s K t.t.t.w.t.t.u.u.t.i w.s.i.! 9 ",
"BXVX2XBXBX2X3XVXVX>XXXq..XI.$X#X|.G b.d & 5 t t & . o % o o .     o o .     . o   X % u :.%.#.#.d a a t.v.v.v.t.u.v.t.e.s.s.~ Q ",
"BX2X2X1X3X3X1X3X,XXXT .Xq.T  XOXT.;.;.s % e t & # O # O o .   . o O o o .   . .     O a 8.2.2.2.-.y a c.u.v.u.u.y.y.i.s.s.i.~ ! ",
"2X1X1X,X1X3X,X:X=Xq.*.T T.@X+X X~.].%.5 @ & & w e 5 o . & & . o o o O o .     .     . o / 6.` ) $.` u d ] v.v.u.t.~ p.p.i.i.~ p ",
",X1X,X:X:X,X:X$Xq.U U T.@X%XoXU././.b.P t # t s w w o . o e $ . X . O . . . . .     . O u 5.( f #.$.^ r / [ y.t.~ i.s.i.a.e.Q p ",
",X:X,X,X;X;X*XI.I I.@X%X%X+XT.:.:./.0X4XJ X t L e q y $ $ # # o   . . o . O O o     # & ^ [ $.#.$.3.` f E @.#.l.s.p.s.d.a.! 9 p ",
",X,X,X:X;X#X Xq.T.%X%X%X%XT.[.).Q./.8.P 5 % & y u ,.&.q 5 $ # o o o $ # o 8 $ . . o O & ` 3.3.2.' 2.2.( ^ ( ' p.g.s.d.f.r.p Q ! ",
"2X3X2X1X:X$XXX$X&X&X&X@X-X'.].].Q.^.(.b.s 5 & e &.=.y r r 8 8 $ 8 8 q q u y $ o O . . 0 ..3.$.| #.$.' ` ..' ^ [ p.p.s.r.! ! ~ e.",
"MX2XVXBX2X1X<X,X,X<X-X-X}.}.}.].^.:./.qXb.% o -.eX-.b.-.^ f ^ #.#.-.=.#.#.@.y K %   % / 3.^ ^ 2.2.$.#.) | X.( / y.s.a.e.~ e.i.e.",
"6X<X<X<X<X<X1X2XVXFX7X!.}.vX}.}./.:./.(.c.w L kXfXfXkXtXyXN.N.N.B.B.N.N.,.*.L *.s & s $.( 5 ( 3.4...#.@./ ..| ) [ s.a.e.i.s.s.! ",
"8XxXMXNXcXMXMXNXmXmX(.,.iXaX{.{._.:.Q.:.T J dXIXAX5Xb.5X5XdXyXB.qX,.q & 5 & w L *.7 a / 0 ) 3.X.3...$.@.( 2.3.` &.u.r.r.p.s.~ ! ",
"HXdXmXmXmXsXqXpXsXaXiX(.(.{.{.{.{./.:.:.t P DXDX>.a t & $ &.yXB.N.y . % & w $ t >.7 o r t 2.7.o.X.$.$.^ ^ $.2.| [ t.u.r.a.e.e.! ",
"PX8XiXsXsXiX{.pXsXsXpX_._._.{.{.{./.).kX>.K AXAX5X>.d & q ) tXtX( 8 K s w u L *.>.$ # #.L _ X.X.3.2.#.^ @.$.3...` c.u.d.a.a.e.r.",
"UXSX~.iXsXiXpXiXsXsXaXiX[._.{.{.].]._.tXkX>.ZXDXtX) *.r q ` wXqXu $ @.L w 8 q @.=.5 t _ _ ` | 3.3.2.#.f ^ $.4.2.` ] y.y.r.r.a.r.",
"IXUX6X(.sXiX'.iXiXiXiXiX).).}.}.{._._.tXkXyXDXkXN.B.N.N.$.N.tX8.f u u ` #.#.=.f *.a y | 1.' X.3.X.2.#.f #.2.5.4.2.] t.y.r.a.s.a.",
"LXUXSXuXaXpXuXiXiXsXiXiX).).].}.]._.1.sXkXgXLXjXfXB.M.N.wXyXkXN.L K @.#.#.-.<.@.*.@.9 $.4.X.3.X.| ..` ) $.m.4.m.3.@.y.f.d.d.g.d.",
"KXUXIXxX{.aX[.}.iXiXiXaX{.[.).`.]._.:.~.tXkXLXAXyXyXB.N.wXtXfX8.u u @.5.5.-.=.@.>.@.9 -.4.3.X...X.X.) ^ 2.4.4.4...&.y.f.f.d.g.d.",
"KXUXUXSXpXbXpXuXiXsXaXvX}.).^._._.^.;.>.kXgXDXDXfXfXyXB.B.yXfXB.E r u $.N.<.,.@.>.u #.N.X.O.| 3.X.| ( ) 5.4.4.4...) y.u.k.h.g.s.",
"KXIXUXJXnXsXpX~.wXsXaX}.{.).[._.^.;.Q.:.mXLXhXKXAXyXB.m.B.fXAXwX<.@.y f 5.N.-.=.P L N.6.O.X.X.o.2.' ( ' 4.4.m.4.2.) u.x.x.h.g.g.",
"KXKXIXIXNXuXpX'.[.aXaX}.}.}.[.~.:.Q.^.`.`.dXdXjXAXyXN.N.wXqXyXyX@.0 0 u ^ -.-.*.K K -.O.o.X.O.o.| ` / $.3.3.5.2.' &.v.x.l.h.g.g.",
"KXKXIXUXSXuXbXbXsXsXvXaX}.}.(.:.~.).`.].^.+.^.dXdXB.-.,.0X-.-.-.u q u r $ d -.K s r _ O.4.O.6.X.' ( ( | 3.4.4.5.[ &.v.Z.h.g.g.g.",
"KXKXKXIXKXdXpXbXbXbXvXvX}.).^.Q.^.].].^.:.+.!.CX0XeX] ^ b.dXN.<.8.<.d 8 y &.@.r J r [ 6.7.m.X._ _ ` | | ' ..3.3.#.t.u.x.k.d.g.s.",
"KXKXJXKXIXnX}.bXbXvXaXpX'.'.^.(.].].^.Q.+.!.#XNXN.0X<.] @.qXjXhXqX,.q y -.=.r s A e ..j.7.$.y f ( ..O.o.o.2.4...) c.k.x.h.h.h.h.",
"KXUXKXIXUXZXpXvXvXaXaX'.(.(.'.}.].).Q.;.^.zXOX$XeX0XB.B.yXqX8.<.<.%.f @.@.f r s k J O.O.` 5 , y ( | o.6.o.o.o.2.) t.u.h.h.d.f.a.",
"UXUXPXIXUXJXuXpXaX'.'.'.[.pX}.}.).Q.Q.^.}.nXF.D 8XB.N.N.fXkXyX8.<.%.L @.f q e L S N ( d , e d f ( ` [ o.O.O.O._ &.v.k.a.d.r.w.w.",
"IXUXUXUXUXIXdXsXbXbXaXvXvX}.{.'.Q.~.).].'.;.B D -XtXN.N.eXkXyX&.K #.,.@.q 0 a >.Y = 5 u r f ..^ f ` [ [ | X.| ( c.k.f.f.r.y.] 0.",
"IXUXUXUXUXUXHXHXHXHXmXmXbXiX[.).'.[.{._.=.@.;.!.8XjXb.b.N.N.B.=.f =.-.d & e K P K t ^ 2.3.) 2.| d ( ..X...' E d v.x.k.h.d.s.g.a.",
"IXUXUXUXUXUXIXPXUXPXHXHXmXmXsXbX}.[.B.B.8.%.Q.^.uXDX0Xc.,.-.,.&.=.@.f r 0 s K L P #.3.o.7.| ` 3.` d ( 2.2._ a 0.u.z.z.k.k.h.h.d.",
"IXUXUXUXUXUXIXIXPXIXHXPXHXPXHXAXfXtXV.V.8.Z ;.W.[.DXjXb.-.b.<.=.*.@.r 0 w K K K *.,.1.' 3.6./ ( ../ 0 e u d P z.Z.C.z.C.z.u.u.t.",
"IXUXUXUXIXIXIXIXIXIXIXIXUXIXIXDXDXkXS.V.5.U Z W.}.DXDXjX0X<.=.K r e 0 t s K L P K z I.G J %.K 5 u ^ e + + p u.z.z.u.z.k.k.z.C.q.",
"IXUXUXUXUXUXIXUXUXUXUXUXUXIXIXLXDXDXtXS.V.%.V ).~.ZXAXhXAXdXb.c.=.L K P U P *.*.*.. ; oXP.F.D.D D D D D D G 6XC.c.q.q.c.n.c.q.S ",
"IXUXUXUXUXIXIXUXUXUXUXIXUXIXUXUXDXDXgXV.V.y.;.!.< AXDXhXhXhXhXhXrXb.>.P >.,.>.*.*.#   D +XOXE.P.J.J.J.R.E.E.|.|.|. XXXG.R.H.D.S ",
"UXUXUXUXUXIXUXIXUXUXUXUXUXUXIXUXLXDXgXS.S.V.qXF o fXDXjXjXhXdXfX0X>.>.>.<.5X,.*.@.$ X , F.+XOXoXE.P.P.L.P.L.L.L.K.P.P.P.L.J.L.K.",
"IXUXUXUXUXUXUXUXUXUXUXUXUXUXUXIXLXDXkXgX) e Y.A o 0XDXjXjXjXhXdX0Xb.b.b.5Xb.>.>.f $ # : 7 D oXOXoXE.E.P.K.K.J.J.K.H.H.H.H.K.K.K.",
"IXUXUXUXUXUXUXUXUXUXUXUXUXUXIXUXUXKXjXI X X I A . =.DXAXhXfXjXfXdX0X5X5X5X,.>.>.d $ , 3 - o < |.oXP.|.oXoXoXE.E.R.R.R.R.J.J.J.H.",
"IXUXUXIXIXUXUXUXUXUXUXUXUXUXUXUXZXb.F n v n F n . r kXjXjXjXfXfXrXeX5X5X5X,.,.=.d $ > h ; +   1 F.F.F.F.K.K.L.J.J.R.R.R.R.R.R.R.",
"IXUXIXLXUXUXUXUXUXUXUXUXLXZX4XJ : = n 3 n n F m @ # rXjXhXfXrXrXrX0X5XeXqX,.,.,.d & 6 ; - +     : - ; k D P.D.D D.D.F.F.H.L.E.R.",
"IXIXLXIXUXUXUXUXUXIX8XT b % + - 6 6 j b 6 n I n 6 . b.kXfXdXrXrXrX5XdXrX5X>.,.<.&.5 2 : = +   X @ + . - z D.oXoXK.D.F.D D D.F.H.",
"UXLXLXIXUXUXUXUXKX7Xv - - c b c M @ @ A 6 H I v 6 - 0 eXAXfXqXqXrXqXyXrX,.,.eXb.J v 1 : : X @ X @ - . : 6 , D F.|.OXOXP.K.D.K.F.",
"IXLXIXUXUXUXUXIX4X.XY.b , 7 b b z % 7 v b m > 6 z z + w 5XyXN.0XqXrXjXeXb.N.b.7 * n v + @ * = @ + > + @ l 4 @ @ 3 D F.|.L.J.L.L.",
"UXIXIXUXUXUXUXKX4X!.lXT % H b H H - @ z j = X l A m 6 h l t f @.b.dXfXqX0X>., + v m 3     @ - 4 + : + - 4 4 4 3 - @ O D D.D D.D.",
"IXIXIXUXUXUXUXFX9XT 9X9X6 J U I U - o I m l > = n n = X + k H w y <.yX0XU l ; : z -   X + X + = : 4 + : 4 3 3 4 3 > = @ H U B m ",
"LXIXUXUXUXUXGXcXNX7X!.lXb J 7XU.U 6 + T I m c 4 2 n h = . ; F k 0 d >.N X X * 1 * + = = = = + X 4 k = > 4 3 3 h 4 = > = > *.%.@.",
"LXUXUXUXUXPXFXCXlXNXNX7XH U.9X7X4Xb + Y.U.H m b k n k h : + 2 g v N =   X * = ; ; < : * = 2 = + < n ; - 6 3 3 4 4 : 3 1 * 7 1.1.",
"LXUXUXUXUXGXGXGXxX9XcXlXU 7X9X7XxXI + Y.Y.H m m v n n 2 1 = - 1 g = X = h g ; 1 2 2 = = : > < + ; n 2 = 3 3 4 3 3 3 4 > ; * K 1.",
"LXUXUXUXUXKXFXCXGXcXlXxX4X9XzX7XCXY.> 4XU.N H A v z n j > > = l b = 2 2 ; 1 2 : h 2 = = ; 4 3 + = g k 3 3 h 2 3 : 4 3 > ; * v 1.",
"LXUXUXUXPXPXGXCXCXGXCXcX9XlXxX7XCX7Xv 7XT F I A v j n l > 4 > 6 Y b g 2 > 2 > 1 j : = : ; h 4 + - 3 h 2 j 1 = > 4 3 2 3 - = g @.",
"LXUXUXUXPXJXJXGXCXcXFXGXCXxXxX9XCX9XI 7XH I U.m v z n l : h h ; = < ; v 4 > 2 h h : h ; : 2 4 * - 2 g g k = ; h h 3 3 1 ; = ; K ",
"UXUXUXUXPXJXFXGXGXcX9XCXGXCXcXlXlXlX!.U.H U.I m z v b z 1 4 h : 2 k : 4 j 2 4 h 4 : h h 2 > l : = 2 : n h : j > 3 4 3 1 : ; * N ",
"IXUXUXUXPXKXGXGXFXGXCXcXFXFXCXCXlXcX9XH I Y.I x z l n n = 3 4 > l k h ; k 1 h l 3 3 2 2 g : h h = : ; A 2 ; k h j j 3 > 2 > * H ",
"IXUXUXUXPXPXJXJXCXCXCXCXGXFXcXCXCXcX4XI Y.T A v l l v n = ; k : j j h ; n h h l > j h h g h 4 k 3 = - n 4 3 k k k 6 4 4 3 > * N ",
"IXUXUXIXJXKXJXJXGXCXxXcXNXFXxXCXFXcXY.U.!.I m l v k x m : = n g > k 1 ; n g h x j j j j < 4 k 2 h ; = n 3 : l k j l j j l 4 = b ",
"UXUXUXUXPXJXJXGXGXFXcXcX8XGXlX9XGXcXY.U.U.I n l x k k m 4 = l g v k h 1 n k l n j j < k 2 k h g g h * k 3 > k j j j j v b z ; 6 ",
"LXIXIXLXPXJXKXGXZXCXcXxX9XcXCX7XCXxXU.Y.U.F n n v k n n l - l l n n v g n x n g j k k k k j k v j j > 3 3 : l l l l b m A m 7 b "
};
