/* XPM */
static char *_9e302fc0a664dbb990dc015bf1c5df1HkisFS3OMzY2lRFV[] = {
/* columns rows colors chars-per-pixel */
"64 64 25 1 ",
"  c #0F1725",
". c #462E33",
"X c #312027",
"o c #232E3C",
"O c #21161E",
"+ c #E7E7E5",
"@ c #B5BDBB",
"# c #5E4648",
"$ c #434C58",
"% c #57171F",
"& c #940F24",
"* c #D3D7D6",
"= c #DBBC9A",
"- c #E7CDAB",
"; c #662E30",
": c #843438",
"> c #7E6260",
", c #AA6D5F",
"< c #8DA1A0",
"1 c #995249",
"2 c #80848A",
"3 c #616770",
"4 c #B78B7F",
"5 c #ABA099",
"6 c #EFDABE",
/* pixels */
"6666666666@5$3<***+*++++++++++++***********@@@@@@55=------==-===",
"---6666666@2$$3<++++++++++++52@*++*********@@@@@@@@5------======",
"----666-@@@3$32@++++++++++++@2<*+++*********@@@@@@@@5-----======",
"----666-@@<3$2*+++++@*++++++*@*++++*********@@@@@@<<5=-----=====",
"==--666-*+<$<*+++++*$$2@++++*@*++++*********@@**+*535@------====",
"==--666-**<<*++++++*$$$3@++++@@***+******@<*22*++6@<5555----====",
"==---66-****+++++++*$$$3*++++@33<<*+++++*22*22*+++*@<3256---====",
"===---6-**+++++++++*$$3@@*+++@$$<<*++++**<2+2<@*++@@@2<@66--====",
"====--6-*++++++++++*$3<3OO.3@<3$@**++++@@<5+@@@@*+@@@@@@6----===",
"====--6-*+++++++++++3<3OOOOO$<33@***++*2$o$2@@@@@*@@@@**66---===",
"====--6-@*@@>>5@****@5.XXOOOO$<3<***++3XXXXO$5@@@@@@@*+*66---===",
"=====---54,:.;,4-***@5..#..OOo<3<@@@**##11:XO3@@@@@@@*++66---===",
"55====4#::&:X.44==-@@@>##,1;..<<@@@@@@>111,,;#<<<<<<<@++66---===",
"55====>.;&;#OX#144==@5#XX#>##3<<<@@@<5>1;1,,1,5<<<<<<@++66---===",
"5555=4#X;%%%%O.>,1,==41.O#.OX2@@@@@@<<.:11,,,,2<<<<<2@++66--====",
"4554=5#X.%%%%X2@4,>4==,,1,1#,5*****@@@#1,,,,,4<<<<<<3@++6--=@@5=",
">>,444>.OX%%%,**@,5==-4,,,44==++++++++>;11,,,,<<<<<<3@++-==*@<<5",
".;;;,4,;XO;;;:,,3>44**,111,4=@++++++++5.:1,,1,5<<<<<2@++-=55@2$.",
"....#,4##XO%;&&&:;4-@2::,,,5@5****<$<*<$.1,1114<<<<<@*+*@5###.XX",
"XXX;>>4>#;%%%%&&,11,>>:;:14+++++++<oo@<2X.:;111#2<<@3*+*@4>##XXO",
"XX.###,3.;&&%%&&&&:%%;,4,,46++++++@>#2*@$OX;11.o$$2@#@+*4,.X>...",
"X...##>3X%&&%%:1&&1:%%#,,,4=++++++=,4523ooXX#.ooo$322*+5,>OX>#XX",
"XX.X.#3$o.&&%X.;11&&:;%%#1,,=6++++4,<$oooo oooooooo$2*@,1>oo3#O ",
"OXXO.#3$o.;:XX.%X;&&11:;%1::,=*+254>$ooo$oo$oooooooo$<>11>$$oO  ",
"oooX$#$oooXXX%:;X%&&&&&1,,:;:441%#,$ooooooooooooooooo$#:13333$  ",
"oooo$$$oo.XX%%&&OO%&&&&&,,:;;,=,;:>o oooooooooooooooo$#:>$3333oO",
"oo o$oooo$.%%&&&%XX.;&&&&&&&;;4=;:#  ooo.ooooo    ooo$##$$$$$$$o",
"oo o$oo o.XX%&&&&;.XO%&%&&&&;;,=.;.O ooO#ooo      oooo..$$$$$$$o",
"oooo$oo o.XX%1&&&&&:OOX.;;;;XXX.O;X    o#o         ooo$$$$$$$$oo",
"oooooo$oooX.X;::&&&&%OOOOXXOOXOX;:%    oX          ooo233$$o$oo ",
"oo  oo$oooX.XX.X11&&&%XOOO  OXX%:&%O               ooo3$$$oX.XOO",
"ooo ooooo$X.OX.XX:1&&::;XOOOOOX%%%X                  oo.o$XX.XXO",
"o o oX.oo$X#XX%XXX%:&&&&:;%XXOOOXXO                 ooOXo$XX.XOO",
"oo  oX$$ooXX.;;%XXX;::&&&&&%%XXO.X                  ooOXo$.X.XOO",
"ooo o o$o$XX%;11;%%%XX%&&&&%%44:>#                  oXXX.$...OOX",
"ooooo ooo$o.%%&&:;;%%X%&&&&%;4=,:X                  oXXXX..X.OX.",
"o o ooooo...X;&&&&::%%OX:::;;441&X                  oXXX.#...OX.",
"ooo ooooOoX.X;&&&&&&1:XXXXXXX24:;X                  oXXX.#...OX.",
"ooo oooo X.XX#:&&&&&&&:;.XOOX22$o                   oXOOX....XXX",
"ooo o oo o.OO#11&&&&&&&&:;OOX<2oo                   XOOO.#X..OOO",
"ooo o o oooO XXX#::%&&&&%%.X.<2oo         .>       oXO Oo.XXXOO ",
"ooo ooooooXOOXXXXX.;;:&%%%%%X22oo         .>       oOOOO..XXoOO ",
"o   oo$oooXXX..XXXXOX.;%%%%%X33oo          #.O    OoXO OXXX..X O",
"o o oo$o$$oo.#X..XXOOOXX..XXX33oo          X:.    X.#OOOXXOXXXOO",
"o     .o$$O X.###..XOOOOOOOOo3$o            >22>.XX.3XOO.XOOOO O",
"      oo.#OOX#X.###.OOOO OOOX$$o o     O    O#>>#;;;>..X.XXOXOOX",
"o O o.#.#>.;,,>.#..;#.X;#X#XX>$ X#X.oX.X#X#.#OX$X.%X>>..;.OOXOOX",
"OOXXO#X 22OX>1>O,#o.,..1>O;1X,. OX#4 O##.X,.X.>#OX:X14XX:#OOOOOO",
"OXXXXXO 2<  X>>X2. X,#X1> .,;4.  o2>   X X,# #4oOX1;:4.X4>OOOOOX",
"XX.X.XOX2<  O>,:#OOX>>.>>O$4;,#  o>>     X,. .,.OX,#>2..4#OXXOOX",
"XX.X.X..42  O>1%1#.O.1#>>O>5X1#OOO#1  .. X,; O>;O#,.>2#,#.XXXOOX",
"XX..#...52OOO>#X:1#X.>>>>;>.O#1XO O#XO#. o>.  X#.,#O22.>:#OXXOOX",
"....#.#.52OOOOX#.X..XXXOO..X.XOXO O   O   OO   OXXXO22.O>,#.XXOX",
"..$##.#32>XXXO.>>>>#X..O.####.Xooooo              O 2,.O>>#.XOXX",
".#$$#.#.....X;;#####OOOX>,X.<2333$32o             O$$.XX.;%%XX%%",
"..###.;.....X##;:.X..OX;2.X.22>>2#33o           o o33.OOX.%%%%%%",
"%####.;;.;....XOX;1,>11>O ##>###.;..O           o X$3.OOX.%%;%%%",
";;##;.#;%;.X.###>#>52>;X$o.##..X;..OX    oo     XOX.#.OOX.%%%%%%",
":&%%%%%;;;;..>2555332#325532>>5>>52323$o<<2$$$$$3...XXOXX.%%%%%%",
"&&&%%%%;;;;.#>@525@*<<@2532<2>2>>@25<52$22<2*@<@<2..XXXX.;%%%%%%",
"1&&%:%%;;;..X#>>$332<3o $o$$3##2>.33$$3o $$$oo$$.#.;%XOX%%%%;%&&",
"1:&::;%;##..X#>.XOOo.       XX.2.XX.OOO  OO    OXX.#%XOO%%%%%%&&",
"1::::::::>..X#>XXOXX       O..XX%XXOOOO  OOO  OOXX;#%XXO%;%;&&&&",
",1111::::#.XX>>OXOXXO      O..XX%%XOOOOO OOO  OO.O.;%XXX;:&&&&&&"
};
