/* XPM */
static char *_6f57156e7a0409296615a48dc50b12cFdOTL1hUnUykBfNf[] = {
/* columns rows colors chars-per-pixel */
"64 64 61 1 ",
"  c black",
". c #010101",
"X c gray1",
"o c #070707",
"O c #090909",
"+ c gray4",
"@ c #101010",
"# c gray9",
"$ c #181818",
"% c #191919",
"& c #1B1B1B",
"* c gray14",
"= c gray16",
"- c #2A2A2A",
"; c #323232",
": c #343434",
"> c #3E3E3E",
", c #414141",
"< c gray27",
"1 c gray28",
"2 c #535353",
"3 c gray33",
"4 c #5B5B5B",
"5 c gray42",
"6 c gray45",
"7 c gray46",
"8 c #7C7C7C",
"9 c gray49",
"0 c #818181",
"q c #848484",
"w c #888888",
"e c gray58",
"r c #959595",
"t c #979797",
"y c #9F9F9F",
"u c #A5A5A5",
"i c gray66",
"p c #A9A9A9",
"a c gray67",
"s c #C0C0C0",
"d c gray80",
"f c #CECECE",
"g c #D2D2D2",
"h c LightGray",
"j c gray85",
"k c #E1E1E1",
"l c gray89",
"z c #E6E6E6",
"x c #E7E7E7",
"c c gray91",
"v c gray92",
"b c #EFEFEF",
"n c gray94",
"m c #F1F1F1",
"M c #F3F3F3",
"N c #F4F4F4",
"B c #F6F6F6",
"V c gray98",
"C c gray99",
"Z c #FDFDFD",
"A c white",
/* pixels */
"AAAAAAAAAAAAAAAAAAAAAAAAAAAAAAAAAAAAAAAAAAAAAAAAAAAAAAAAAAAAAAAA",
"AAAAAAAAAAAAAAAAAAAAAAAAAAAAAAAAAAAAAAAAAAAAAAAAAAAAAAAAAAAAAAAA",
"AAAAAAAAAAAAAAAAAAAAAAAAAAAAAAAAAAAAAAAAAAAAAAAAAAAAAAAAAAAAAAAA",
"AAAAAAAv: 5VnOks  AAAAAAAAAAv: 5VnOks  AAAAAAAAAAv: 5VnOks  AAAA",
"AAAAAAv; 0AAnzAp  AAAAAAAAAv; 0VAnzAp  AAAAAAAAAv; qAAnzAp  AAAA",
"AAAAAg- pAAAAAf- uAAAAAAAAg- pAAAAAf- uAAAAAAAAg- uAAAAAf- uAAAA",
"AAAAfO pAAAAAf  sAAAAAAAAfO pAAAAAf  sAAAAAAAAfO pAAAAAf  sAAAAA",
"AAAA# o21113k* 7AVAAAAAAA# o21113k* 7AVAAAAAAA# o21112k* 7AVAAAA",
"AAAA        g@ 8n4AAAAAAA        j+ 8n4AAAAAAA        j@ 8n4AAAA",
"AAAAyettt, Oj>&w7$AAAAAAAytttt, Oj>&w7$AAAAAAAuettt, oj>&w7$AAAA",
"AAAAAAAAA8  zBBnbBAAAAAAAAAAAA8  zBBnbBAAAAAAAAAAAA8  zBBnnBAAAA",
"AAAAAAAAA0O$vAAAAAAAAAAAAAAAAA0O#vAAAAAAAAAAAAAAAAA0O$zAAAAAAAAA",
"AAAAAAAAA0O$zAAAAAAAAAAAAAAAAA0O$vAAAAAAAAAAAAAAAAA0O$vAAAAAAAAA",
"AAAAAAAAAAAAAAAAAAAAAAAAAAAAAAAAAAAAAAAAAAAAAAAAAAAAAAAAAAAAAAAA",
"AAAAAAAAAAAAAAAAAAAAAAAAAAAAAAAAAAAAAAAAAAAAAAAAAAAAAAAAAAAAAAAA",
"AAAAAAAAAAAAAAAAAAAAAAAAAAAAAAAAAAAAAAAAAAAAAAAAAAAAAAAAAAAAAAAA",
"AAAAAAAAAAAAAAAAAAAAAAAAAAAAAAAAAAAAAAAAAAAAAAAAAAAAAAAAAAAAAAAA",
"AAAAAAAAAAAAAAAAAAAAAAAAAAAAAAAAAAAAAAAAAAAAAAAAAAAAAAAAAAAAAAAA",
"AAAAAAAAAAAAAAAAAAAAAAAAAAAAAAAAAAAAAAAAAAAAAAAAAAAAAAAAAAAAAAAA",
"AAAAAAAAAAAAAAAAAAAAAAAAAAAAAAAAAAAAAAAAAAAAAAAAAAAAAAAAAAAAAAAA",
"AAAAAAAv: 5VnOva  AAAAAAAAAAv: 5VnOks oAAAAAAAAAAv: 5VbOks oAAAA",
"AAAAAAv; 0AAnvAp  AAAAAAAAAv; qVAnzAp  AAAAAAAAAv; 0AAbzAp  AAAA",
"AAAAAg- pAAAAAd- uAAAAAAAAg- pAAAAAf- uAAAAAAAAg- pAAAAAf- uAAAA",
"AAAAfO pAAAAAfo sAAAAAAAAfO pAAAAAf  sAAAAAAAAfO pAAAAAf  sAAAAA",
"AAAA# o21113k* 6AVAAAAAAA$ o21113k* 7AVAAAAAAA# o21113z* 7AVAAAA",
"AAAA        j+ 8n4AAAAAAA        j@ 8n4AAAAAAA        g@ 8n4AAAA",
"AAAAyeett, oj>&w7$AAAAAAAytett, oj>$w7$AAAAAAAyetet, oj>$q7$AAAA",
"AAAAAAAAA8  vBBnnBAAAAAAAAAAAA8  zBBnbBAAAAAAAAAAAA8  zBBBnBAAAA",
"AAAAAAAAA0O$vAAAAAAAAAAAAAAAAA0O#zAAAAAAAAAAAAAAAAA0O$vAAAAAAAAA",
"AAAAAAAAA0O$zAAAAAAAAAAAAAAAAA0O$vAAAAAAAAAAAAAAAAA0O$zAAAAAAAAA",
"AAAAAAAAAAAAAAAAAAAAAAAAAAAAAAAAAAAAAAAAAAAAAAAAAAAAAAAAAAAAAAAA",
"AAAAAAAAAAAAAAAAAAAAAAAAAAAAAAAAAAAAAAAAAAAAAAAAAAAAAAAAAAAAAAAA",
"AAAAAAAAAAAAAAAAAAAAAAAAAAAAAAAAAAAAAAAAAAAAAAAAAAAAAAAAAAAAAAAA",
"AAAAAAAAAAAAAAAAAAAAAAAAAAAAAAAAAAAAAAAAAAAAAAAAAAAAAAAAAAAAAAAA",
"AAAAAAAAAAAAAAAAAAAAAAAAAAAAAAAAAAAAAAAAAAAAAAAAAAAAAAAAAAAAAAAA",
"AAAAAAAAAAAAAAAAAAAAAAAAAAAAAAAAAAAAAAAAAAAAAAAAAAAAAAAAAAAAAAAA",
"AAAAAAAAAAAAAAAAAAAAAAAAAAAAAAAAAAAAAAAAAAAAAAAAAAAAAAAAAAAAAAAA",
"AAAAAAAv: 5VnOks  AAAAAAAAAAv: 5VnOks  AAAAAAAAAAv: 5VnOka oAAAA",
"AAAAAAv; qAAnzAp  AAAAAAAAAv; 0AAnzAp  AAAAAAAAAv; 0AAbzAa  AAAA",
"AAAAAg- pVAAAAf- uAAAAAAAAg- uAAAAAf- uAAAAAAAAg- pAAAAAf- uAAAA",
"AAAAfO pAAAAAfo sAAAAAAAAfO pAAAAAfo sAAAAAAAAfO pAAAAAf  sAAAAA",
"AAAA# o21112k* 7AVAAAAAAA# o21113k* 7AVAAAAAAA# o21113k* 7AAAAAA",
"AAAA        j+ 8n4AAAAAAA        j+ 8n4AAAAAAA        g@ 8n4AAAA",
"AAAAyeett, Oj>&w7$AAAAAAAyttet, oj,&w7$AAAAAAAytett, Oj>&w7$AAAA",
"AAAAAAAAA8  zBBnbBAAAAAAAAAAAA8  zBBnnBAAAAAAAAAAAA8  vBBnbBAAAA",
"AAAAAAAAA0O$vAAAAAAAAAAAAAAAAA0O#vAAAAAAAAAAAAAAAAA0O#zAAAAAAAAA",
"AAAAAAAAA0O$zAAAAAAAAAAAAAAAAA0O#zAAAAAAAAAAAAAAAAA0O#vAAAAAAAAA",
"AAAAAAAAAAAAAAAAAAAAAAAAAAAAAAAAAAAAAAAAAAAAAAAAAAAAAAAAAAAAAAAA",
"AAAAAAAAAAAAAAAAAAAAAAAAAAAAAAAAAAAAAAAAAAAAAAAAAAAAAAAAAAAAAAAA",
"AAAAAAAAAAAAAAAAAAAAAAAAAAAAAAAAAAAAAAAAAAAAAAAAAAAAAAAAAAAAAAAA",
"AAAAAAAAAAAAAAAAAAAAAAAAAAAAAAAAAAAAAAAAAAAAAAAAAAAAAAAAAAAAAAAA",
"AAAAAAAAAAAAAAAAAAAAAAAAAAAAAAAAAAAAAAAAAAAAAAAAAAAAAAAAAAAAAAAA",
"AAAAAAAv: 5VnOks oAAAAAAAAAAv: 5VnOks oAAAAAAAAAAv: 5VbOks oAAAA",
"AAAAAAv; 0AAnzAa  AAAAAAAAAv; 0VAnzAp  AAAAAAAAAv; 0AAbzAp  AAAA",
"AAAAAg- pAAAAAf- uAAAAAAAAg- pAAAAAf- uAAAAAAAAg- pAAAAAf- uAAAA",
"AAAAfO pAAAAAf  sAAAAAAAAfo pAAAAAf  sAAAAAAAAfO pAAAAAf  sAAAAA",
"AAAA# o2,113k* 7AVAAAAAAA# o21113k* 7AVAAAAAAA# o21113z* 7AVAAAA",
"AAAA        j+ 8n4AAAAAAA        j@ 8n4AAAAAAA        g@ 8n4AAAA",
"AAAAyttet, Oj>&w7$AAAAAAAyeett, oj>$w7$AAAAAAAyetet, oj>$q7$AAAA",
"AAAAAAAAA8  vBnBbBAAAAAAAAAAAA8  zBBnbBAAAAAAAAAAAA8  zBBBnBAAAA",
"AAAAAAAAA0O#zAAAAAAAAAAAAAAAAA0O#zAAAAAAAAAAAAAAAAA0O$vAAAAAAAAA",
"AAAAAAAAA0O#vAAAAAAAAAAAAAAAAA0O$vAAAAAAAAAAAAAAAAA0O$zAAAAAAAAA",
"AAAAAAAAAAAAAAAAAAAAAAAAAAAAAAAAAAAAAAAAAAAAAAAAAAAAAAAAAAAAAAAA",
"AAAAAAAAAAAAAAAAAAAAAAAAAAAAAAAAAAAAAAAAAAAAAAAAAAAAAAAAAAAAAAAA"
};
