/* XPM */
static char *c83186099e954b3fbd26f048ffe3c9cfn0niAxxhdxPLgw12[] = {
/* columns rows colors chars-per-pixel */
"64 64 56 1 ",
"  c black",
". c #010201",
"X c #040100",
"o c #050604",
"O c #080600",
"+ c #090704",
"@ c #070A08",
"# c #140B00",
"$ c #221E0A",
"% c #1D2316",
"& c #2A2206",
"* c #212416",
"= c #242A1A",
"- c #364438",
"; c #545A30",
": c #55613D",
"> c #3E4E40",
", c #415241",
"< c #4C5F4D",
"1 c #50644F",
"2 c #607A5F",
"3 c #627C5E",
"4 c #647864",
"5 c #718A75",
"6 c #7A9C86",
"7 c #7DA08A",
"8 c #7FB3A5",
"9 c #7EB4A8",
"0 c #7FB5AA",
"q c #7FBAB2",
"w c #69B3C6",
"e c #6AB5C9",
"r c #68BEDA",
"t c #69BFDA",
"y c #7DCDD7",
"u c #7DCDD9",
"i c #5ACFFF",
"p c #5DCEFC",
"a c #5DCEFD",
"s c #5FCFFD",
"d c #65C6EA",
"f c #76CFE6",
"g c #72CFE9",
"h c #71D0EC",
"j c #6ACFF1",
"k c #63CFF8",
"l c #61CFFC",
"z c #66D0F7",
"x c #6BD0F0",
"c c #69D0F3",
"v c #8DB4A2",
"b c #94C3B3",
"n c #84C6C5",
"m c #88C9C8",
"M c #88CACC",
"N c #95CFC7",
/* pixels */
"iiiiiiiiiiiiiiiiiiiiiiiiiiiiiiiiiiiiiiiiiiiiiiiiiiiiiiiiiiiiiiii",
"iiiiiiiiiiiiiiiiiiiiiiiiiiiiiiiiiiiiiiiiiiiiiiiiiiiiiiiiiiiiiiii",
"iiiiiiiiiiiiiiiiiiiiiiiiiiiisippiiiiiiiiiiiiiiiiiiiiiiiiiiiiiiii",
"iiiiiiif, 5lh@Nn  iiiiiiiiiif- 5lh@Nn..iiiiiiiiiif, 5ahoNn. iiii",
"iiiiiif> rxxlixs  iiiiiiiiif> dxxaixs. iiiiiiiiif> txxpixa  iiii",
"iiiiiM- sxxxxxi& viiiiiiiiM- lxxxxxi&.viiiiiiiiM- sxxxjci& viiii",
"iiiimo sxxxxxi  biiiiiiiim@ axxxxxi  biiiiiiiimo sxxxxxi  biiiii",
"iiii%  2;::3i$ wiziiiiiii%  4;::3i& wiziiiiiii%  2;::4i& wiziiii",
"iiii        iO tl4iiiiiii        iO dk2siiiiii        iO dk4iiii",
"iiiiq80801  u<=de%iiiiiiiq800v1  u<=de*piiiiiiq800v1  u<=dw*iiii",
"iiiiiiiii6  gisskaiiiiiiiiiiii6  hiaakliiiiiiiiiiii6  hippzpiiii",
"iiiiiiiii7X#jiiiiiiiiiiiiiiiii7o#xiiiiiiiiiiiiiiiii7X#xippiiiiii",
"iiiiiiiii7O%jiiiiiiiiiiiiiiiii6+%xiiiiiiiiiiiiiiiii6o%xiiiiiiiii",
"iiiiiiiiiiiiiiiiiiiiiiiiiiiiiiiiiiiiiiiiiiiiiiiiiiiiiiiiiiiiiiii",
"iiiiiiiiiiiiiiiiiiiiiiiiiiiiiiiiiiiiiiiiiiiiiiiiiiiiiiiiiiiiiiii",
"iiiiiiiiiiiiiiiiiiiiiiiiiiiiiiiiiiiiiiiiiiiiiiiiiiiiiiiiiiiiiiii",
"iiiiiiiiiiiiiiiiiiiiiiiiiiiiiiiiiiiiiiiiiiiiiiiiiiiiiiiiiiiiiiii",
"iiiiiiiiiiiiiiiiiiiiiiiiiiiiiiiiiiiiiiiiiiiiiiiiiiiiiiiiiiiiiiii",
"iiiiiiiiiiiiiiiiiiiiiiiiiiiiiiiiiiiiiiiiiiiiiiiiiiiiiiiiiiiiiiii",
"iiiiiiiiiiiiiiiiiiiiiiiiiiiiiiiiiiiiiiiiiiiiiiiiiiiiiiiiiiiiiiii",
"iiiiiiif, 5lg@Nn  iiiiiiiiiih; 5lh@Nn  iiiiiiiiiif;.5ah+Nn  iiii",
"iiiiiif> rxxsixs  iiiiiiiiif> dxxlixs  iiiiiiiiif> dkxkixa  iiii",
"iiiiiM- sxxxxxi& viiiiiiiiM- ixxxxxi& viiiiiiiim- lxxxxxi& viiii",
"iiiimo sxxxxxi  biiiiiiiimo axxxxxi  biiiiiiiim@ axxcxxi  biiiii",
"iiii%  2;::3i$ wiziiiiiii%  4;::3i$ wiziiiiiii%  4;::3i$ wikiiii",
"iiii        iO tl4iiiiiii        iO tl4iiiiiii        iO dk4iiii",
"iiiiq808v1  y<=de%iiiiiiiqv0v01  y<=de*iiiiiiiq80801  u<=de*iiii",
"iiiiiiiii6  hiisksiiiiiiiiiiii6  hsilkiiiiiiiiiiiil6  giklkiiiii",
"iiiiiiiii7 #xiiiiiiiiiiiiiiiii7.#jiiiiiiiiiiiiiiiii7X#jiiiiiiiii",
"iiiiiiiii7o%xiiiiiiiiiiiiiiiii6o%xiiiiiiiiiiiiiiiii7O%jiiiiiiiii",
"iiiiiiiiiiiiiiiiiiiiiiiiiiiiiiiiiiiiiiiiiiiiiiiiiiiiiiiiiiiiiiii",
"iiiiiiiiiiiiiiiiiiiiiiiiiiiiiiiiiiiiiiiiiiiiiiiiiiiiiiiiiiiiiiii",
"iiiiiiiiiiiiiiiiiiiiiiiiiiiiiiiiiiiiiiiiiiiiiiiiiiiiiiiiiiiiiiii",
"iiiiiiiiiiiiiiiiiiiiiiiiiiiiiiiiiiiiiiiiiiiiiiiiiiiiiiiiiiiiiiii",
"iiiiiiiiiiiiiiiiiiiiiiiiiiiiiiiiiiiiiiiiiiiiiiiiiiiiiiiiiiiiiiii",
"iiiiiiiiiiiiiiiiiiiiiiiiiiiiiiiiiiiiiiiiiiiiiiiiiiiiiiiiiiiiiiii",
"iiiiiiiiiiiiiiiiiiiiiiiiiiiiliiiiiiiiiiiiiiiiiiiiiiiiiiiiiiiiiii",
"iiiiiiif> 5lh@Nn  iiiiiiiiiif, 5lh@Nn  iiiiiiiiiif, 5lh@Nn  iiii",
"iiiisif- dxxkixs  iiiiiiiiif- dxxlixs  iiiiiiiiif> txxsixs  iiii",
"iiiisM- sxxxxxi& viiiiiiiiM- sxxxxxi& viiiiiiiiM- sjxxxxi& viiii",
"iiiimo ahxxxxi  biiiiiiiimo sxxxxxi  biiiiiiiimo pxhxxxi  biiiii",
"iiii% .4;1:3i& wiziiiiiii%  2;::3i$ wiziiiiiii%  4;1:3i$ wiziiii",
"iiii    ..  i  tl4iiiiiii ..     iO tl4iiiiiii        iO tl4iiii",
"iiiiq808v1  y<=de*iiiiiiiq9v801  u<=de*iiiiiiiq808v1  u<=de*iiii",
"iiiiiiiii6  hiiakliiiiiiiiiiii6  hisskiiiiiiiiiiiii6  giisziiiii",
"iiiiiiiii7X#xiiiiiiiiiiiiiiiia7X#xiiiiiiiiiiiiiiiii6X#jiiiiiiiii",
"iiiiiiiii7+%xiiiiiiiiiiiiiiiii6O*jiiiiiiiiiiiiiiiii7+%jiiiiiiiii",
"iiiiiiiiiiiiiiiiiiiiiiiiiiiiiiiiiiiiiiiiiiiiiiiiiiiiiiiiiiiiiiii",
"iiiiiiiiiiiiiiiiiiiiiiiiiiiiiiiiiiiiiiiiiiiiiiiiiiiiiiiiiiiiiiii",
"iiiiiiiiiiiiiiiiiiiiiiiiiiiiiiiiiiiiiiiiiiiiiiiiiiiiiiiiiiiiiiii",
"iiiiiiiiiiiiiiiiiiiiiiiiiiiiiiiiiiiiiiiiiiiiiiiiiiiiiiiiiiiiiiii",
"iiiiiiiiiiiiiiiiiiiiiiiiiiiiiiipiiiiiiiiiiiiiiiiiiiiiiiiiiiiiiii",
"iiiiiiif; 5lh@Nn .iiiiiiiiiif, 5lh@Nn  iiiiiiiiiif;.5sg@Nn  iiii",
"iiiiiif>.dxxlixl  iiiiiiiiif> dkxlixa  iiiiiiiiif> dzckixs  iiii",
"iiiiim- izxxxxi& viiiiiiiiM- sxxxxxi& viiiiiiiiM-.axjjjxi& viiii",
"iiiim@ ajjxxxi  biiiiiiiim@ lxxxxxi  biiiiiiiimo ahxjjxi  biiiii",
"iiii%  2;;:4i& wiziiiiiii%  4;::3i& wpkiiiiiii%  4;1:3i$ wiziiii",
"iiii    ..  iO rl4iiiiiii        iO dk4iiiiiii        iO tl4iiii",
"iiiiq80801  u<=de*iiiiiiiq80801  y<=dw*iiiiiiiq808v1  y<=de*iiii",
"iiiiiiiii6  hiaakaiiiiiiiiiiii6  hlikkiiiiiiiiiiiii6  gisskiiiii",
"iiiiiiiil7X#xiiiiiiiiiiiiiiiii6X#jiiiiiiiiiiiiiiiii7X#xiiiiiiiii",
"iiiiiiiii6+%xiiiiiiiiiiiiiiiii7O%jiiiiiiiiiiiiiiiii7O%jiiiiiiiii",
"iiiiiiiiiiiiiiiiiiiiiiiiiiiiiiiiiiiiiiiiiiiiiiiiiiiiiiiiiiiiiiii",
"iiiiiiiiiiiiiiiiiiiiiiiiiiiiiiiiiiiiiiiiiiiiiiiiiiiiiiiiiiiiiiii"
};
