/* XPM */
static char *b660a908a22745e4b1ec11574ac000830v37GgM3y6jpCA6C[] = {
/* columns rows colors chars-per-pixel */
"64 64 256 2 ",
"   c #0F0302",
".  c #190803",
"X  c #260E08",
"o  c #29120A",
"O  c #34180D",
"+  c #371A14",
"@  c #2E2F25",
"#  c #431C11",
"$  c #50261C",
"%  c #472926",
"&  c #53312F",
"*  c #58332A",
"=  c #6C362F",
"-  c #653B37",
";  c #29401E",
":  c #135036",
">  c #2F5333",
",  c #08663D",
"<  c #2E6F37",
"1  c #596514",
"2  c #554932",
"3  c #6F4A32",
"4  c #78433A",
"5  c #737A33",
"6  c #553356",
"7  c #703653",
"8  c #5D3962",
"9  c #673667",
"0  c #723571",
"q  c #1C555F",
"w  c #026A45",
"e  c #0D744F",
"r  c #27734C",
"t  c #00766A",
"y  c #574949",
"u  c #5B4D4D",
"i  c #5A4D50",
"p  c #5D5152",
"a  c #6A4A47",
"s  c #774A45",
"d  c #6D514F",
"f  c #635453",
"g  c #685957",
"h  c #6B5C5A",
"j  c #765B58",
"k  c #52724B",
"l  c #6F6358",
"z  c #73615D",
"x  c #7A625E",
"c  c #714B6C",
"v  c #746362",
"b  c #7B6663",
"n  c #7D6967",
"m  c #746B6B",
"M  c #9F251A",
"N  c #923335",
"B  c #B03430",
"V  c #D20A14",
"C  c #D61A17",
"Z  c #E1141A",
"A  c #D02420",
"S  c #D52C29",
"D  c #E5312A",
"F  c #9B7313",
"G  c #8C4D36",
"H  c #B34D33",
"J  c #8E6D2D",
"K  c #AE742B",
"L  c #C94F3C",
"P  c #E54C38",
"I  c #D17232",
"U  c #883851",
"Y  c #AA3653",
"T  c #943A6A",
"R  c #A73A6D",
"E  c #A73A72",
"W  c #B73A7A",
"Q  c #CE3C58",
"!  c #884A46",
"~  c #88544B",
"^  c #96564A",
"/  c #895A57",
"(  c #955352",
")  c #AF564C",
"_  c #90684F",
"`  c #996459",
"'  c #A6655A",
"]  c #B56B52",
"[  c #B66959",
"{  c #8F4A6C",
"}  c #984675",
"|  c #A84676",
" . c #B9467B",
".. c #AC5273",
"X. c #846A67",
"o. c #986965",
"O. c #85716C",
"+. c #89736E",
"@. c #96716E",
"#. c #8B7672",
"$. c #8D7975",
"%. c #957978",
"&. c #AC6A67",
"*. c #A87369",
"=. c #B87467",
"-. c #A77A78",
";. c #B67C77",
":. c #CD5143",
">. c #E75248",
",. c #D86745",
"<. c #D36F51",
"1. c #C67759",
"2. c #E9764E",
"3. c #C84A79",
"4. c #D24E7A",
"5. c #E6576F",
"6. c #CA746C",
"7. c #C57968",
"8. c #348D33",
"9. c #6F8F01",
"0. c #5BA30A",
"q. c #71B202",
"w. c #4B9A35",
"e. c #718C31",
"r. c #1A8651",
"t. c #2D884B",
"y. c #06866C",
"u. c #619659",
"i. c #B48E12",
"p. c #A1A418",
"a. c #8C902C",
"s. c #B28D2D",
"d. c #D79505",
"f. c #CE9216",
"g. c #E5990D",
"h. c #D8A815",
"j. c #EBAA06",
"k. c #F8BB02",
"l. c #EBB011",
"z. c #CD932B",
"x. c #F09135",
"c. c #D9A729",
"v. c #D4AE3C",
"b. c #E3AC29",
"n. c #E9B627",
"m. c #EDB536",
"M. c #9ED10B",
"N. c #FCC302",
"B. c #F5C318",
"V. c #F6C431",
"C. c #AF9254",
"Z. c #90AB4B",
"A. c #B4AC53",
"S. c #928878",
"D. c #AF8876",
"F. c #B7837B",
"G. c #99A260",
"H. c #D38A53",
"J. c #EA875A",
"K. c #F28F51",
"L. c #F48A57",
"P. c #D2B14D",
"I. c #C6B85A",
"U. c #E6B945",
"Y. c #F3B157",
"T. c #CF8A69",
"R. c #CB8577",
"E. c #D48978",
"W. c #EF916A",
"Q. c #CBB464",
"!. c #FEB068",
"~. c #BFC063",
"^. c #D3C75C",
"/. c #ECCB50",
"(. c #D1CA65",
"). c #D9D36A",
"_. c #E6D469",
"`. c #026F8F",
"'. c #25639C",
"]. c #0078AA",
"[. c #036AB2",
"{. c #007AB6",
"}. c #616992",
"|. c #4E79B1",
" X c #0077CC",
".X c #1878D2",
"XX c #597BC3",
"oX c #883988",
"OX c #C93D86",
"+X c #D63E8C",
"@X c #AC4F88",
"#X c #B84883",
"$X c #A0669B",
"%X c #C74785",
"&X c #D5478A",
"*X c #D95384",
"=X c #DC4794",
"-X c #CF5193",
";X c #E45889",
":X c #EB4F93",
">X c #E7479B",
",X c #F85699",
"<X c #D956A3",
"1X c #E853A7",
"2X c #F351A9",
"3X c #DB6EA5",
"4X c #0B8FA4",
"5X c #0088B2",
"6X c #0085B9",
"7X c #7895B1",
"8X c #008AC6",
"9X c #0096CA",
"0X c #008AD5",
"qX c #0097D6",
"wX c #009CDB",
"eX c #00A7DC",
"rX c #00B5DD",
"tX c #0C93E4",
"yX c #00A7E5",
"uX c #00B2E5",
"iX c #00B5EA",
"pX c #00B7F0",
"aX c #65A0D1",
"sX c #5CC6E5",
"dX c #998584",
"fX c #978F94",
"gX c #A98F8E",
"hX c #B78983",
"jX c #A7A195",
"kX c #B2A6A7",
"lX c #C58B84",
"zX c #C9948B",
"xX c #D69588",
"cX c #D1958E",
"vX c #E8998A",
"bX c #DAA497",
"nX c #D1A896",
"mX c #EBA796",
"MX c #D79AB3",
"NX c #D4B0AC",
"BX c #E7ADA3",
"VX c #E7B4AA",
"CX c #E9BBB4",
"ZX c #F4BAB1",
"AX c #EBC2BC",
"SX c #FBC7BA",
"DX c #9CB6CA",
"FX c #D59FC8",
"GX c #CFCBCC",
"HX c #EDC9C5",
"JX c #F4CCC7",
"KX c #F6D2CB",
"LX c #F7D8D4",
"PX c #FAE1DC",
"IX c #FDEAE5",
"UX c #FFF1EA",
/* pixels */
"w.G.P.K.K.' ] ] j ) 2.L.L.,.L.2.<.<.<.<.] ^ ^ <.<.<.2.<.<.) ] ] ' { 0 }.T c c c 0 0 0 6 6 8 8 c _ z.g.c.x.z.K G B S S S S A A S ",
"Z.A.x.x.x.H H H ~ H 2.K.2.,.,.2.,.,.>.,.L H L P :.:.L L L H L ) T 0 0 8 8 9 c 0 0 6 6 6 6 6 9 d K d.g.d.f.z.z.3 = A C C C V V V ",
"^.P.x.m.I H H ,.I ) ,.K.L.,.,.2.>.>.D >.P :.L U ) S H H L L :.:.} 0 9 6 9 c 0 0 9 9 6 6 6 9 c ^ I d.d.d.d.z.s.J M V V C V V V V ",
").Q.x.m.x.] :.2.,.^ ,.2.2.:.S P D Q Q S Q S N = = N U B Y H :.) T 0 9 9 0 0 0 9 9 9 6 6 8 9 / z.d.f.F d.d.f.z.F M M A C C V V V ",
"_.Q.m.x.x.,.) ) ) G N P P Y N Y Y Y Y Y Y Y 7 7 7 U N N U B L ) T 9 9 0 oXoX0 9 9 9 6 9 c / I d.f.K a.i.i.d.f.G M A C Z C C C D ",
"_.^.v.m.x.,.G s G 4 7 Y Q W R T E R R E W W R W R R R U = 7 4 6 6 % % % 9 0 0 9 9 6 8 i ~ z.d.f.K s.i.a.a.i.I F B C Z V C D >.>.",
"_._.^.x.x.2.G - 7 U E W W +XW W W OXW OXW W W OXW R U = - & + . . . . . O + & 9 8 6 a _ z.d.f.s.s.i.a.e.5 s.K H A A Z Z Z D 5.2.",
"_._.^.H.2.L N U U E +X+X3.+X+X+X+X+X+XW W R W E U # X % $ o .       . X o . . + 6 j C.z.g.z.s.C.A.A.a.e.5 J K B A C Z D D >.5.>.",
"_._.I.) B :.Q W T E &X>X+X+X+X+X+X+X+XW R R E ! O X O = & + + o O + o X . . . . o G v.c.s.C.A.A.A.v.Z.e.e.J F A S D P P P D P S ",
"I.I._ ) Q Q :XW T T OX>X>X+X>X+X+XOXOXW W E = O X + $ * O o O o o O o X X . . . . X 3 s.s.C.I.I.A.A.A.Z.a.K K H A S P ,.I P S C ",
"_ 5 U Q 5.+X>X+XT 7 R =X>X+XOXOXOXOXOXOXW ! # O # * * # $ = - 3 = = * $ O X . . . X O 3 A.I.A.^.^.Z.Z.Z.z.z.I H M H K f.f.i.K A ",
"7 7 R 4.>X+X>X>XE 7 7 E +X+X3.OX&XOXOXW U * + + + 3 4 ^ =.=.=.[ ] ] ^ G G * # o . . O o 5 ~.^.I.P.Z.a.s.l.b.z.K G 3 1 i.p.i.K H ",
"} | E %X>X>X=X>X&XR 7 T W 3.4.3.3.3.W U * * $ O $ ` R.E.E.E.T.T.[ =.[ [ ) ^ ! = $ + O o + C.^.^.^.A.s.h.k.l.c.z.F 3 ; 1 p.p.s.1.",
" . .W #X>X>X=X>X2X=X .E 3.4.4.3.3.3.E ( * 3 * # ` mXbXbXvXE.E.T.7.1.7.[ [ ] ' ~ ! - $ X o 3 ^.I.A.A.c.k.j.h.f.f.F 1 1 1 9.A.Q.C.",
"4.3.#XW OX>X>X>X2X>X=X5.4.4.3.4.4.3.} ~ 3 s $ 4 zXVXBXmXbXvXE.E.T.1.7.1.=.[ [ ` / ~ s o o 2 I.A.C.z.j.j.g.b.j.I F F 1 1 e.Z.S.u.",
"*X%X .|  .>X>X2X>X=X4.4.4.4.4.3. .E ( ~ a a $ _ zXVXZXBXmXmXvXxXR.7.7.=.7.[ [ ' ( / / % X + _ A.z.j.j.j.h.h.d.F F F 1 ; > k r , ",
":X*X .OX#X .=X>X*X*X*X*X4.4. .} T T ..~ j s 3 ` zXCXCXVXmXmXxXE.E.6.7.7.7.[ ' ' ` / / * X + 3 x.l.k.j.b.m.c.i.K F 5 > > : : , , ",
",X;X4.OXW }  .%X*X*X*X4.;X4.E T T 3.;.` / j a @.CXJXZXVXBXBXmXE.E.7.7.6.7.7.&.&.' o./ - O % 3 n.k.j.b.m.v.c.s.F J 5 k > : : w w ",
",X,X;X4.| | #X4.5.*X4.4.4.%XE E OX-X=.` X./ s zXKXJXbX*.o.*.$XxXxXR.E.R.R.R.*.o.` o.X.a + % 3 b.k.b.m.U.v.s.K s.K a.e.2 : : w w ",
",X,X,X;X%X%X*X*X;X;X4. .E |  .%X=X .=.` x j o.HXPXMX/ s a - * G ;.lXlXR.&.j & % % - o.d % * ^ b.l.m.U.v.z.K i.i.f.s.5 > ; , e e ",
",X,X,X,X-X*X*X;X*X*X .| } E &X>X .7 -.o.j d cXIXFXgX-.*.=.' s s ` xXE.;.s % & 3 - % a / % & J b.b.b.v.c.z.i.f.d.h.i.5 > : : w w ",
"2X2X2X;X*X4.;X*X4.3.| } | &X>X#X7 6 &.o.s s nXGXgXgXzXlX;.' ` =.lXo.! s - s ~ / / j 7 X.& & _ H.U.b.c.c.z.h.h.j.h.i.5 > @ : w w ",
"2X2X<X4.4.;X*X4. .| E #X=X>X3.7 6 U -./ 2 a NXLXNXlX*.@.y & s &.cX=.` & & - 4 7 ! / X./ * & _ H.U.m.c.c.c.b.l.l.f.s.J 2 : : w w ",
"1X2X*X*X;X;X4. .} E @X=X2X%X0 6 7 @XBX` - ` LXIXCXlXzXlX@.~ ^ &.-.lX7.- % % % % & - ~ d % 2 _ H.H.P.P.v.b.b.n.d.s.s.5 > : e r r ",
" .-X*X;X;X*X..| }  .=X1X%X{ 6 i i xXJXJXlXF.LXIXCXcXzXxX3X[ *.;.lXCX6.j & - / / ~ a - s % - <.1.A.I.P.P.b.b.c.f.s.C.u.< < 8.t.t.",
"..3.;X*X4.3...{  .*X:X%Xc q `.`.].xXJXLXZXQ.PXIXJXBXlX=.[ [ =.R.VXHX6./ 6 * ! ' ` ` / o.- = [ 7.C.I.P.v.b.h.c.z.s.A.a.w.w.w.8.t.",
"-X;X;X-X .| { | *X:X%Xc `.5X9X9X8XbXZXSXVXbXPXIXJXZXmXvX6.<.E.BXCXVX6.( a = 4 ^ ` ` / %.3 / ) 1.Q.Q.P.m.b.v.n.b.c.v.e.9.0.0.w.8.",
";X;X..} | } | *X:X%Xm 5X9XrX9X9X6X7XSXmXAXAXPXIXLXJXZXvXE.6.W.mXCXZXlX' ~ s ! ` ` o.o.D.s / Q <.T.C.I.U.P.U.U.m.h.i.9.0.0.q.0.w.",
";X&.{ } } | -X;X*X}.6XeXyXeX5X5X].6XSXmXLXLXPXIXPXJXCXmX6.6.E.ZXAXZXvX=./ ( ( [ =.&.%.D.! ) B <.C.C.A.A.P.U.U.n.h.d.i.1 0.q.q.M.",
"..{ { } | *X;X-Xc [.eXiXrX9X8X{.].6XHXKXKXLXLXIXPXJXZXvX6.vXbXvXcXBX6.' ( / ^ 6.6.-.$XF.( U :.W.<.D.A.P.U.U.m.n.N.k.i.a.0.q.M.M.",
"c { } | *X,X*X{ '.0XyXuXeXqX9X6X5X{.aXUXSXSXKXPXHXJXCX=.7.BXbXT.6.&.[ ( ! / ' R.zX-.hX;.! N J.L.H.C.P.Y.U.V.V.B.N.B.l.i.0.q.M.M.",
"c | ..-X:X*X} c  XwXiXeX9XqX6X].6X0XqXDXNXBXLXHXCXHXVX[ 7.vXxX3X6.) ) ( ! / ~ ^ R.-.-.o.( &.W.J.7.H.Q./.U.U./.V.N.k.l.i.p.q.M.M.",
"} ..;X,X:X..oXoX XyXuXrXqX5X].{.9X0X[. X0XkXLXKXBXAXAXT.F.D.3X6.4.[ ) Y U ! ~ G [ *.@./ *.vXL.L.<.D.Q./././.V.N.k.k.l.h.p.9.q.M.",
"@X-X2X1X#X} @X}.0XyXeX9X8X].].9XwX0X X[. XfXKXKXVXBXAXxXvXCXCXBX;X6.&.) ! 7 ~ G =.X./ T.!.W.W.J.H.C.Q._././.B.N.k.k.N.N.p.0.q.q.",
"<X2X2X#X@X| T '.0XyXeX9X6X5X{.wXyX0X X[.8X9XJXJXNXBXAXnXBXAXHXAXE.) ^ ' o.o.` =.*./ o.J.W.W.J.2.1.A.)._././.B.N.N.k.k.j.i.w.t.8.",
"2X2X%X@X@X@X}.[.qXyX9X8X9X].6XeXuXwX0X{.8X9XGXSXVXnXVXR.nXAXAXCXxX' ^ *.D.*.*.] / X.] W.W.W.J.H.T.Q._././.V.N.N.N.k.k.h.a.< w w ",
"1X%X@X#X$X|.{. XwXyX9X8X8X].{.eXuXyX0X6X8XwXDXJXVXNXcXhXlXBXVXcX7.' ^ ` @.` / ! s / 1.J.J.J.J.J.C.Q.)._./.V.B.N.k.n.n.p.e.< < w ",
"-X@X@X@X|.wX0X{.wXwX6X5X].`.{.yXuXyXwX8XqXwXrXJXCXnXzXD.hXzXhXR.=.&./ s s s - 3 a ` <.J.J.W.J.1.=.A.(.)././.V.V.n.l.n.c.e.< , < ",
"..#X@X7XwXyX8X{.0XeX5X].].`.{.yXuXuXyXwXeXyXpXLXVXVXcXhXzXhX;.F.=.*.( 4 - & & a @.H.J.J.J.W.J.1.C.Q.)./././.B.B.k.n.n.p.k r r r ",
"@X .$XtXyXqX6X{.qXqX5X5X6X`.].wXiXuXyXwXqXyXiXUXJXxXR.-.*.` *.=.=.' ^ s * $ * s *.J.K.K.L.L.J.] C.Q._./.V.B.N.N.N.V.v.a.< r q q ",
"#X<XFXaX X[.[. XqXeX6X8X9X].{.qXiXiXuXwX9X0XiXUXPXCXcX[ ^ ! ! ! ^ 4 4 = = = = ! F.W.K.K.L.L.2.=.T.I.^.m.V.B.B.n.n.P.C.k < > q q ",
"3X3XFX7Xt `.].].0XwX9X6X0X6X].9XyXiXuXyX9XqXpXUXLXHXHXBX=.^ G 4 3 = * $ $ = 3 X.hXW.K.L.L.2.<.=.Q.^./././.m.v.v.A.Z.u.r > : q q ",
"2X3XgXp i '.].[.0XyX9X6X9X6X`.{.yXiXiXuXeXeXiXUXLXSXHXFXBXlX&.^ 4 = = = = 7 / @.hX2.J.L.L.2.] C.Q./.^.U.P.P.A.C.C.u.k t.< < @ q ",
"3X&./ c @X}.|.|.8XyXwX8X6X6X].{.0XyXuXuXyXeXrXUXLXHXHXHXHXCXcX*.^ ! s s j / @.@.hXH.<.2.,.:.] Q._.)./.U.P.P.P.P.P.Z.Z.u.w.< : q ",
"6.' ` | @X3X$X$XXXtXyX0X6X8X8X].6XwXyXiXuXrXuXUXLXJXHXLXLXHXVXxXR.*.@.X.{ @.-.-.hXJ.K.,.] G ] Q._._././.V.V.V.V.V./.~.Z.u.w.e q ",
"J.&.} @X<X1X<X<X}. XtXyX9X8X9X6X].8XtXyXeXeXsXUXLXKXKXLXLXJXCXBXcXR.;.*.@.-.-.-.hXH.2.,._ _ G.(.(.(./././././.V./.P.G.u.u.w.r e ",
"W.&.{ } -X<X<X1X<XaXtXyXyX9X9X8X{.{. X0XeX9XPXUXLXLXKXHXHXHXAXVXzXR.$XD.-.-.$X-.gX' ] _ _ Z.Q.).).).).).).^.^.(.A.G.u.'.r.r.r.w ",
"W.&.c 0 @X<X2X2X<X$X0XiXpXrX9X8X6X].].aXdXjXUXIXLXLXHXHXHXHXAXVXxXF.D.F.hXhXD.D.$XX.% p G.^.(.).).).).).).).).(.G.t.t t t e e , ",
"Y.1.o.c } 3X2X2X1X$X|.tXpXpXyXqX5X5XkXnXS.HXIXIXLXKXKXHXAXAXCXbXxXR.hXF.F.;.hX%.-.%.2 @ m (.).~.~.~.~.(.~.(.(.~.u.y.t t t e e w ",
"Y.W.&.d } 1X2X2X1X1X@X|.yXpXiXrXaXGXkXdX$.GXIXPXLXLXHXHXAXAXCXBXbXzXlXhXhXhXhX-.@.@.d 6 i n G.jXu.G.7XjXfXdXu.u.y.y.y.e e r.r w ",
"!.Y.T.{ } -X1X2X1X2X1X@X|.uXsXDXnXkXgXfXS.hXKXPXLXLXKXHXAXVXVXBXbXcXzXhXlXlXhX%.@.+.a y p u u m 7X7XaXaXaX.X[.[.].`.t t e e e w ",
"!.Y.Y.=.} @X<X2X1X2X2X<XgXDXNXhXdXdXgXdXdX@.hXHXLXLXHXHXAXVXVXBXbXxXcXcXcXhXF.-.%./ f u p p y y 3 7X7XtXtX.X X X0X X].`.y.r.r.w ",
"!.!.!.Y.6.| -X1X1X2X3XNXNXkXgX$XS.%.S.gXdX$.+.dXNXGXKXHXCXNXBXNXbXxXbXnXzXF.hX-.X.d f u u u y u u 2 l }.6X X0X X0X0X8X6X4Xy.w , ",
"!.!.Y.!.T.=...<XMXMXNXkXgXfXS.S.%.#.@.%.dXdX%.#.+.D.zXVXVXBXbXcXxXbXmXbXlX-.%.X.a a u a i y u u u f u 3 p |.{.8X X X8X6X4Xy.e , ",
"vX!.!.!.!.E.hXkXkXgXdXdX%.S.@.+.+.+.+.+.$XS.S.$.+.n X.%.D.D.D.F.hXzXzXD.o./ j f u p i u y u u y u f u u u d v }.{. X X[.].`.t w ",
"vXW.mXmXzXjXkXdXS.$X%.%.%.$.+.+.+.O.+.+.$.S.dX$.$.n m v h l h j j b x h g f f p p p y i u f u u f u u f f f u g h }.|.|. X[.`.q ",
"W.ZXNXjXjXdX$.O.n +.$.$.#.+.+.+.+.O.X.O.#.#.+.#.n O.n b m b v h g g g f f g g g p p p p p f p u u f p p f p p p p d h m }.{.].'.",
"ZXNXfXS.$X$.O.O.O.+.+.$.#.+.+.#.+.X.O.+.+.+.O.O.#.X.n b n v z j h g h g g h g f h g f p p f f f f f p a f f f p p f u d z m }.`.",
"NXjXS.O.S.n O.O.O.#.$.+.+.x O.S.+.n X.X.+.O.n O.O.O.b b v v h v j h h h h h h g p h h h f f f f g f f f f p p f f f p f p u z }.",
"kXgX+.X.X.n O.O.O.+.$.O.X.n O.%.+.x n n X.O.n n X.m n x b n v v h v z v h v v h h h p f f f f f f f f f f p g g f f f f f p y m ",
"fXfXX.x X.O.n O.+.+.$.O.X.n #.S.O.x b n n O.X.b n n m n v v x v h v v h v v h g h f f p p g g g f g g g f g g p h p h p f f p p ",
"fXdX+.x b O.O.+.+.+.+.b x O.S.%.x x x n X.O.n b n n n n v v h z v v v v h h h g h f h f g g f f g g g g g f h g h g g h l p p p ",
"gX%.+.x x X.O.#.#.#.n x b O.%.$.x z x n n n n b b v n v b v v v v h v h v h h h h h h h h g g f h h g h f p f l l g h h l h p f ",
"fXS.O.X.x X.#.dX$.O.x j x #.dX#.z j b b b b X.b x v v n m v h v h v h v h h h v h h h g g g h h h h h h g i p h l p p p l h p g "
};
