/* XPM */
static char *_e12b874a68d44dce141a80881c764e2ovah4mzIqGQEQ4Ug[] = {
/* columns rows colors chars-per-pixel */
"64 64 25 1 ",
"  c #0F1824",
". c #211821",
"X c #472D30",
"o c #302128",
"O c #232F3D",
"+ c #E9E8E6",
"@ c #B4BDBB",
"# c #5B4547",
"$ c #404B59",
"% c #59171E",
"& c #D4D8D7",
"* c #9C0A25",
"= c #E6CCAB",
"- c #DCBC98",
"; c #703534",
": c #8A9C9D",
"> c #B56E5A",
", c #815E59",
"< c #A24E44",
"1 c #882B2E",
"2 c #BE9281",
"3 c #777F87",
"4 c #606570",
"5 c #F0DBC1",
"6 c #A1A2A1",
/* pixels */
"5555555555=6$46&+&&&&+&++&+&&&&&&&&&&&&&&&&@@@@@@66=======--=---",
"===5555555@3$$$:++++++++++++:3@&&&&&&&&&&&&@@@@@@6@@======------",
"====555=@@@4$43&++++++++++++@4:&+++&&&&&&&&@@@@@@6@6@=====------",
"====555=@@:4$:&++++&6&++++++&@&++++&&&&&&&&&@@@@@@:66======-----",
"-===555=&+:46++++++&$$3@++++&@&&&++&&&&&&&&@@@&555:36=======----",
"--====5=&&:@&++++++&$$$46+++&@&&&&&&&&&&&@:&4:5++5@66::-====----",
"-=====5=&&&&&&&+++&&$$$4&++++@4$::++++++&43&4:&++5@@:$:@5===----",
"---===5=&&&&&+&++&&&$$4@@=+++:4$6:+++++&&::+3@@&++@@@36@5===----",
"----==5=&++++++++++&$4@$..X4@6$$&&&+++&@@6@+@@@@&+@@@@@=5====---",
"----==5=&++++++++++&4@$... .$644@&&&++@4o.O3@@@@@+@@@@&=5====---",
"----==5=@&&@,,6&&&&&@6ooo....4636&&&++$.oo..$@@@@@@@@&&555===---",
"----===-62<;XX>2&&&&&:X;;XX..O646@@@+&X<<<;oo:@@@@@@@&+555===---",
"2-----2#;11;oX22--=&@@,##2,#XX@:@@@@@@<<<<><X4:::::::&+555===---",
"222---,X;*1#.o;;2>--@6X o,;##4666@@666;<;<>>>>:::::::&+555==----",
"2222-2#oX%%%o.o,>;>2=2<o.,. o6@@@@@6:3o<<<>>>>::::::3&+555=-----",
"2222-2#oo%%%%o6@2>3222>><>,,>6&+&&&@@@#<>>>>>2:::::33++55=-=@66-",
",,,222,X.o%%%2&&@>6--5>>>>22-=++++++++,;<>>>>26::::33++5=-@&@::6",
"XX;%,22%o.;;%*<4$,>2&&<<<<>2-=++++++++6X,<>><>66:::33++5=-66@4Xo",
"XXXX,,2#,..%;1**;;-+@:;;>>>-@:&@&&3O6+:XX<><<<2::::@&++=-2;#$oXo",
"ooX#,,2,;Xo*%%**><;<,>;X;,2+++++++3OO&::.X;;<<<$3:663++@->,##oo.",
"Xo####34X1**%%****;oo#>>>>2+++++++->#3&@O.X;<,OO$$:-4++@2,o$#XXX",
"OXXX##3#o%**Xo<<**<%%o#,>>2=++++++2>2@4OOOoo#OOOO$$:2++2># $,Xo.",
"oXXoX#,$OX**ooX;,<**;%%X#,><-+++++2>:OOO$O OOOOOOOO$:+6<>$$O,X. ",
".oO.X#4OOO;1oo;oo%***<<;;>;;>-&&36>,OOOO$OOOOOOOOOOO$:,<,4$$O   ",
"Oooo##4OOOooo%*;.o*****<>>;;;22;X,>OOOOO$OOOOOOOOOOO$4;<,4444$ .",
"OOOo$X$OO$ooo***o.%*****><;;;>->11#O OOOOOOOOO OOOOOO$;<#$444$o.",
"OO O$OO O$X%%***%ooo;******1;;2-;1#  OOO#OOOOO    OOO$;;$$$$$$$.",
"OOOO$OO O$oo%****1Xo.;1%****;X<2%;X  OOO#OOO     OOOO$X#$$$$$$$.",
"OOOO$OO OOooX<******..oXX;;;.oooo1o   O##O        OOO$4$$$$$$OOO",
"OOOOOO$OOOoX.X#1****%........%.o#*%     .          OO$3444O$$O..",
"OO  OO$OOOoXooXo,****%%... ..Xo%**%                OO$4$$4oXXo..",
"OO  O OOO$oX.oXoo;>**<;;o.....o%*%.                 OOoXO$oXXoo.",
"O O.oo$OO$.#o%%o.XX1****1%X%....oo                  OO.oX$.OO...",
"OOo.o.$$OO.oX#;%ooXX;1*****%oXooXo                  Oo.oX$Xoo...",
"OOO O OOO$.Oo*<<#%%Xo.%****%1-2;>O                  OoooX#XXo..o",
"O OOO OOO$oXo1***;;%oo.****%1-->1.                  OooooXXXX.oX",
"O O O OOOOOXo1*****1%%.X;;;X#22<1                   OoXo$#oXX.XX",
"OOO O OO.ooXo1******<,%ooo...:2;;                   X.ooX#%XX.Xo",
"$OO O OO.OOoo;****%***1;Xo..o63OO                  .X...OXX#X.oo",
"OOO O OO.oO..$,<1**%****%%..X@3OO         .        oo...X#oXO ..",
"OOO O O.OOO..OooX#;%****%%XoX63OO         ##       Oo...XXo.....",
"OOO OO$OO$. oOoooooX;1*%%%%%X:3OO         X<     . o...ooXoXO...",
"O   O.$OOOoXOXXoooo..oX%%%%oo34OO          ;X     OXo...oooXO. o",
"O.O O.$O$$OOX#XXXoo....oXXooo34O           X;#    X#X..ooo.oo...",
"O    .$OX$..oX;,#XXo...... .O3$O    .       4224ooX#4o.oXooo.. .",
"    . OOo#..o$.o#;,Xo....   .$$ O$ .....     O4#;%%;;X#oXoooo .X",
"o...OX,o<3O1>2,#1oX%,#o<,o<oo<$ .;.#oo;X;o<O1 ##.;oo,,o1;o.o. .o",
"..o..#  66 .#<, >XO#>O%>, X<o>O  o,3  #X O>.oX2. o<.,6.X<X.....o",
"ooXoXo  66  O,,X3..o<#O>, X>X2O  .24     O>. 42..o<o,6.#2#.o....",
"ooXo#ooo66   ,,,;..o,,O>, #2X>O  .,#  .  O>. $<..o>X36o,3oooo..o",
"XoXXXoXX:6.. >,o<##.X<$>,.43.>X. .#;  X. O>. .<oo,,.:2X>#oooo.oo",
"Xo#X#XXX::...,;o;,;oo;4,;,#..;<o.  Xo.;. $;o  o;#2o.:6.,##oXo.oo",
"XX#X#X##3:....o,####XXX..XXXX..  .              ... :6.o>2XXo.oo",
"X##$#X#,,1XXo.o,3,,ooXX #,##4$OX$OOO              .o3<%.3<1Xo.oo",
"X#$##X#XoXXoo;;##X##o. X2,.X34#44#33O             o$$..oXX%X%%%%",
"X####X#XXXXXo##X<;XoooX<4.o#:3,3##34            O X44o..X%%XX%%%",
"%####X#XXXXXXXo.o%>22<<#..##4#X;%XXO            O o$4o.oXX%X%%%%",
";;,;;X#X%XXoX#,#,,#334Xo#X##4#%%%XXo.     $#    ..XoXo.oXXo%%%%%",
"1%%%%%XX;;;XX,36:33444X3@:6:@3o##X33:43$O36:4$4434XXoo.ooX%%%%%%",
"1**%;%%%;;XXX,@64:@66:$$:$43@@X:6o3:44@:443336:::3,Xoo..XX%X%%%%",
"<111;%%;;;%Xo,,#OX$:4O  O4@3##3XX:#o4oOOO.O O .OXo#X%o..%%%%%%11",
"<<1111%;,,%Xo,,oo.o..     ..XXoo%#o..... ..   ..oo;#o..o%%%;%%11",
"<<1<<11<,,XXo,,.o.o.       .#Xoo%Xo..... ..   ..oo;#%oooX1111*1*",
"><<<><11;,Xoo,,oo.oo        #Xoo%Xo....  ...  ..o.X#%XX%;;111**1"
};
