/* XPM */
static char *a57b58e6742d4f59feb24ce6a9700942Or5NWBXLzuo5L3yV[] = {
/* columns rows colors chars-per-pixel */
"64 64 25 1 ",
"  c #012650",
". c #011323",
"X c #01192F",
"o c #01213C",
"O c #012C78",
"+ c #02408C",
"@ c #023CA8",
"# c #033E6A",
"$ c #023454",
"% c #01070D",
"& c #0184D4",
"* c #016ACC",
"= c #026493",
"- c #0159B9",
"; c #0382AC",
": c #089EBC",
"> c #024ACD",
", c #039DD3",
"< c #06CDD8",
"1 c #0D6B77",
"2 c #1187A0",
"3 c #306585",
"4 c #799BAE",
"5 c #1FA2B7",
"6 c #5184A1",
/* pixels */
"oo       o      OOOOOO++OOO %%%%%%%%XO+++OOOOOOO              X.",
"ooo            OOOOOOO+++ %%%%%%%%%%%%O++++OOOOO $ OO         X.",
"oo$6464643#66#6644663O++X%%%%%%%%%%%%%%OOOOOOOOOOOOO$       ooX.",
"o$44444446444344444433# %%%%%%%%%%%%%%%% OOOOOOOOO$$        oX..",
"o3333 333O#63333333333#%%%%%%%%%%%%%%%%%%#####OOO#$  oo  oooXX..",
"o  oo   OO$#O##$O#$###o%..%%.%%%%%%%%%%%%o##$$#$$$$  oooooXXXX..",
"    o   OOOO$$$$#O####.%.XXoX..%%%%%%%%%%%$$$$$$     ooooXXX....",
"       $OOO$#OOO++++##..1112:211$o.%%%%%%. $$$$  o    ooXXXX....",
"O   $    #OO++@+++@+++Xo::<<<<:221$o....%. $$$$  oooooooXXX.....",
"OOO   O$$O+@---@@--@++oo::<<<<:221#o....%.$#$$$$  oooooXXXX.....",
"O+OOOO$#++@---------== o::<<<<:::2$X......#####$$ ooooooXXX.....",
"OOOOO#O+@@@-*****---==$1:<<<<<:::1oXXXX...######$$ oooooXXX.....",
"OOOOOO++@--********--=#2:22;::2221$oooXX.X######$$  oooooXX.....",
"OOOOO+++@-****&&&&**-;=221$XX$11$o......X$#######$$ oooooXX.....",
"OOOOO+++-*****&&&&&**;:::1#.X1<1.%...X..Xoo####$$$$ ooooooXX....",
" $O++@+@-**&&&&&&&&**;:::2:12:<1%%$oX.....o####$$$$$ oooooXXX...",
"  O+@@@@-*&&&&&&&&&&&:::<<<<<<<#..o$o.%%.. $$$$$$$$ ooooooXXXX..",
"  OO+@@-**&&&&&&&&&&&:::<<<<<<:$..o$$o...%$$$$$$$$  o   ooXXXX..",
" $O++@@-*&&&&&&&&&&&&:::<<<<<<<1X..o$o...%$##$$$$  o    ooXXXXXX",
" $O+++-**&&&&&&&&&&&&,<:<<<<<<<1X...oX..%.###$$$$       ooXXXXXX",
" O++@--**&&&&&&&&&&&&&<;<<<<<1=X..%.....X$####$$ $     oooXXXXX.",
"+++@---**&&&&&&&&&&&&&&=<<<<<<;#X.....X.$==+##$   $    ooooXXXX.",
"@@----***&&&&&&&&&&&&&&=:<<<<<11oXX..XXX====#$  $$$    ooooXXXXX",
"@@---***&&&&&&&&&&&&&,,;2<<<:;1#ooXX.XXo====+#$$      ooooXXXXXX",
"@@---***&&&&&&&&,&&,,&&;1:<:;;;1 XoXXXX =====+$$    $ oooooXXXXX",
"@@---***&&&&&&&&,,,,,&&&=;:<,,:=$oooooo#==--==####$$$ ooooXXXXXX",
"@@@-****&&&&&&&&,,,,,,&&;=:::1$o$$oooo #==;;-==+###$$  oooXXXX..",
"+@--****&&&&&&&&,,,,,,&,,;2::2# $$$   $##+=;;==+++#$$   ooXXXXX.",
"@@---****&&&&&&&&,,&&,&,,,=1=#$$$##$o$##$##+=--===#$    ooXXX...",
"@------**&&&&&&&&&&&&&&&,,:#$$$$$$$$ $##$##$#=-===###$$ ooXXX...",
"------*****&&&&&&&&&&&&&:,<:#$$$$$$$$$##  ###+====++###$$oXooX..",
"-------****&&&&&&&&&&&;;;:<,:=###############++==+++#####$   oX.",
"---------***&&&&&&&&&;+==:<<<,:;==1####1=+####$##$$#####+##$$ oX",
"-***------*&&&&&&&&*&====:<<<,,::;==111==+####  $$ o#######$ ooo",
"--****--***&&&&*****-===2:,,,,:::;;;===;==+###o    o #####$ oXoo",
"@--***************-=====:::,,,::::;;;;;;;==++$  $   o ##++$ oooo",
"@@--********-*****++#==;:::;::::::;;;;::;===+#$ #++   $### ooooX",
"@@@--******--****---====,:;;=;;;;===;::,:===+#$O+++++O   $ ooooo",
"@@@@@----*---***---====;::;:;;;====;:;,,;==+##++++++@O oooooooXX",
"@@@+@----*********-+++=:::;;:;;;===;=:;,;+###++++++O++O XXXXXXXX",
"@@@@@@--******>-*--+##+::,;;;:;;=;:=;:;,=###+OO#=+@++@+O X..XoXX",
"@@@@@@--****>-@@@@@+##=,,,:;;;:;;:==2;,,=+#++O #+O+@+@+O o.XooXX",
"@@@@@---**>>@++++@++#+;,<:,;;;;<:;;52=,;==-@O   +@-@+O++O oXXooX",
"@@@@@@->*>>>@--@+@@-+=;,<:,:;;;,;;2222,==+-+    +->>+O@@O  XXooX",
"@@@@@@>>*>>>>>>>+---+==;<5:,;;,<<:5225:=++++   O+@>>+O+@+O XXXoX",
"@@@@@>>>>>>>>>>>@-+++===5<::;:<<<<::;5;=###O OO+@@>>+++@@+oXXXXX",
"@+@@>>>>>>>>>>>-@O ##+==:5;2:<<<<<::,:=+##++#O+@@@@>@++@@OXXXXXX",
"@+@@>>>>>>>>>@>@*#$##++=;5,;::<<<<;::;+#+++=OO@@@@@>@++@@OXXoX.X",
"@+@@>>>>>>>>>@>-*#$##++==5:22555:=22:#+#+++-+@@@@@+@@OO+@ XoXXX.",
"++@@>>>>>>>>>>>>*#$$###+==:522=1=222#++##++-@>>@@@+@+O@@@ XooXX.",
"+O@@@@>>@>>>>@@>>+$ $###$#;5:2522111$$#+#++-->>@@@OOO O@@ XXXXoX",
"OO+@@@@@@>>>@@@>>+$  $$$ $122222111 $ $$##+->>>@++O O OOOXX.XXXX",
"OOO+@@@@@@@>@@@>>+$ oo$$o #3222211oo$$   $=->>>@OO  O   oXX.X...",
"OOOOO@@@@@>>@@@>@+  XX$$oXo$#52#o#..XX.XXo-@@>@+OO  OXXXX.......",
"OO  O@@@@@>>@@@@@+ ooXo XXXo$51oo$......Xo2@@@+OO  OOX...%.....%",
"O ooO@@@@O@@@@@@@$  oX  X.Xo$51$1XX....XXo=@@@O    OOX..%%...oX.",
" ooo OOO@+O@OO@@@ oooooX...Xo#1o1oX....Xo$#O@@O XXXO X%%%%..X...",
"ooo O+@+@OOOO OOOoXX........11$o##$....Xo# ++O oXXXO X%%%%%.....",
"oo  O@@@OOoo  OO+oX.%%%%..%.122111111o.XX+o+OOoXXXoO X.%%%......",
"ooo O@@@@O oo O@@oX.%%%..%%.$$$111111X.XX+oOOOX...oOoX....%%.XXX",
"    O@@O@O  oO@@@oX.%%..%%%.111211111....+ OOOX...oOo.....%....X",
"OOOOO@OOOO O O@@@ X.%%..%%%.11111211$.%..#oOOOX...o o...........",
"OOOO+@O@@OOOOO@@> X.%%..%%%%%.ooXX#$...%.$oOO oX..  oX.XXX......",
"OOO+@@@@@@@@@@@@> X.%%.%%%%%%.oX.XXX..%%X X O oXXX  oXXX  XX..oX"
};
