/* XPM */
static char *_89ae45883724b7c8d8285f2dd344ce7g4HQXFuG93WNlXaY[] = {
/* columns rows colors chars-per-pixel */
"64 64 25 1 ",
"  c #020301",
". c #A20606",
"X c #111209",
"o c #580704",
"O c #2E0804",
"+ c #410403",
"@ c #190302",
"# c #7E0403",
"$ c #8E0806",
"% c #6D0604",
"& c #BF0507",
"* c #2F2111",
"= c #DC0505",
"- c #442E18",
"; c #6E4321",
": c #A97141",
"> c #89582C",
", c #C57039",
"< c #7A200E",
"1 c #A34B27",
"2 c #A7291E",
"3 c #CF9050",
"4 c #5E2B13",
"5 c #E4AB66",
"6 c #F0D6A1",
/* pixels */
"@@@@@@@@@O@@@@@@@@@OOOOOOOO@@@OOOOOOOOOOOOOOOOOOOOOOOOOOOO@@@@@@",
"@@@@@@OOOO@@@@OOOOO++++++++++OOOOOOOOOOO+++OOO++OO++OOOOOOOOOOO@",
"@@@OOO++OO-5;;->-3;+;3>++>:>;;;;:oo>:>>-:>o+++++334OO++++++++OO@",
"@@@@@O++OO*:;++++44++:-++43;+oo+;oo4:4+++3:oooo+3:4++ooo+O@@  @@",
"@@@@@@@OO+4>;oo+++oo4;4+++5>+oooo%o4:1ooo;34oooo;3-oooo+O@@   @@",
"@@ @   @+++;1oooooo+<:<%%+3>++oooo%1>1%%%<:4oo%<43;%%%+O@@@@@@@@",
"@@@@@@@ O+o-1%%%ooo%<3o%%o,<ooooooo1>1%##%>>ooo1o,>%%o+O@O++@@@@",
"@@++o@@O+%<41%oooo%#<,4o%o31%oooooo1><o%##>3%oo>o1>##+O+o%o++++O",
"+%##$$.#%#<;1%#%oo%#2:<##<,2$$$%%%%<><%%%$,:$$#4o<><%@o%%#%o#o+@",
"$..&...#oo<-<%%o%%%#<,<$$%>2$$$$$$$1><$$#%,1#$$;%%:;%oooo%%+#OO@",
"O+#$+o%$%#<,4<;:%%%%o:2..2;1%3$..$2<,<o:21;o%%%2<<3;$%+o%#$o#O+O",
"+o#.$o$...o>O%o<%%#%%,<..$*<#%#$##4,>2$*>;-##%+o%%,:$$%#$..%$o++",
"#.&&====..2>o%%%%#.#<3o##<-2######%1;3>,-;#.$<>%#2:>..#.%oo%.o++",
".&..&==&.&1-1%%#$...<:<#$%31......$1;<+<;,....,#%,>52$#.#%%%.oOO",
"$.++#&&#$#<:2$.$#...2>2##<3<.......23<$%::$...1.$3;:>$.==.$..$%o",
"#$$$$$.#%$2:<$###$..$:<.#<>1###$...<:<$$43$#$2<.:>o>:.&&==&&&.$#",
"+%#$.&##$%o,1#$$.$$.23<..2:<$..$$$.2:1.$<:1.$<2334%::$.#&==&.$#%",
"O%.&&&$%%%432.$#$.$#<3<$$1:1....1$#;:1..$,3..>5:;$$13<#&.&&$+O%%",
"Oo.&&$+O%$<>,#####..1>1##<31$2.13..<:,...,:<$*34$..152==#$$$%oo+",
"@@+%o+++%$oo<$$#####<o<..%<<<1<<<..<<2...<<<#o%%#..$<<=#o%##$#oo",
"O@OOO++OO+$.......2222<2$22.2$$$22$2222$$22222$##$...=.#%%..#%%o",
"o@@     +o#..$....12,,12$11.1&.$:2$:2221$::122..#$=.&=#..$$..$oO",
"o+    @o%%o+#$#...12312,&13,1&2&,2231:21.:.:2,$$.$==&&===.%oo+OO",
"+o@@@+o$%o@O##$$$.2&22.2$2222.&&2&22222.$2.222$...&=$=====%o++OO",
"@%%++o##o++#oOO$...$...&&.........&&&&&&&.$.&&..$.=======&&%++OO",
"+%%##%++O++%OOo$$.........&.........&&&&&&.$..&&..=========%ooo+",
"@@$$.O+o..%%o##$..$.&&&&&&&&&&......#++.&&&.$$$.===&&&====#$%%oo",
"O+%.&%+Oo&&$###$&....&&&&&&&&=&&&..#--*4.&&&&...&==.&&&==.#$o#$#",
"++@#o@ @o=&.##$.&&&....&&%XX.=====&4<<<*#..&&&&$.==.&&&.%%$.#..%",
"@@@+o++o+.&.%#&..&&&.....-<44======21114$...&=&.#.=&&&..%...#..%",
" @++oo###.=&.&.&&.&&&&&&&,5,,&&&&==,,1,12&...&==&.=&&..#%...$..o",
"@O@++++.=&=&.===&&..&=&&2,55,2$$$..15533.&&$#$&&&.&==..$#$.$#$.%",
"@@+OO@o&====&&=&&&.#%%%%<,,3,<<<<$<,1,22*<22<%$$..#===&$o%$$$%.#",
"O+@ Oo$====&$$%%%oo+oooo+-,34+%$<$,3,,,;;:33<<%oooo%.=.%%o$.$%.#",
"++O+ooo&=&+OOoO+o+oOo4**-*--XX%<<.565:;>:5551<%*o+*+Oo#++o%.#%.$",
"O++ooOOo.$XXOoOo+O%O<;**;;X **<<<3355:::;33,>1<*o+O+Oo+o$.#%o#.$",
"O+++@@@Oo%XOoo+ooo14,-*XX4>-4*-4,:3,136:553<*;;++O+X++o##...o#.$",
"++@@@@@o#$ OO+ooo%4,,>****>>-1*-;>3,4:5335:XX*;4*++X+Oo+o&.$%#.$",
"@@@@OOo###OOO+%+o%O4,3*--X**-,>,:;:1*>55,3:*XX;>+oOO++..&.$%o#$#",
" @OOo%%%##+X+o+oo+Xo*;;-;XXX,533:*>>;:3633;*XX-:<+X+O%#%..##+..$",
"O++o%%%#%++@O++%+X XXX-XXXXX>,,;-X--:-6633>4XX*:-+O+Oo%.&.oOo&.$",
"OO++++++++++O+oooO    -XXXXXX11-*XX*>*666:;4  -4*OoOO++oo%+O#&.$",
" @OO++oo%%%%o+%OoO    XXXXXXXX4;XX*X->6665>4X X XO+XXXXXX@@@@#.$",
"  @+oooo%%%%oO%+O  XX*-XXXXXXX*XXX*X*,5666>;-XX XOO          O.$",
"    +oooooooo%$@ XXX**--XXXXX   ->:>-:3:;:::>:-*-4X     X    %.$",
"   @@o+ooooo#$oXXXXXX***XXXX*   -:55:;>:::3,>:>:::>*    X  @#..$",
"   @O+oooo%$..%-XXXXXX--*-XXXXX*4-335::;*X4-*;>:;>:*-X  @ @+#.$$",
"O+oo%%##$$..$$#+XX*X  XXXX*X XXX*;:3:::>X -;>:>:333X*4++OO@@@@@@",
"@@@OO+++o%#$$$#OXXXXX O@@*X*X*XX --:-;;>-X4;:>>->53-*-OO@       ",
"      @@@OO+o%oX XX  O+XO    * -**-;44;>;<+*-;;->:>X*X          ",
"           @OOO XXX XX      XXX*X*-X;>:>;<O X;*;**;*X           ",
"                XXXXX @@@  *X XX  ;-4:>>1X@ -,>4X>*X            ",
"                 X** @O+OO XX X*  *-X->>1;  ;>-*;4  *           ",
"                 X*X   @  X XX-   X4**;:>:**44>;>*XX            ",
"                XX*      X XXX     *-*-;;>:-;>4-*XX             ",
"                -XXX      XX*X      ---;;-;>*-***-*             ",
"             X ** X       **         *-4-**;*X*X                ",
"             **XX  X     X X XX     XX**-;-4*XXX                ",
"             XXX       @     X      XXX*4-*;-4                  ",
"             XX              X         X**;;*-X                 ",
"                            XXXXXXXX*X  X*---*X                 ",
"                     XXXXXXX*X***---;-XXX*-*-*X                 ",
"                     X---XXXXXXX**@*--**XX-****                 ",
"                      X**       @   XX     X**XX                "
};
