/* XPM */
static char *b1108d7338c04a23de8204faa9f43dd3qo5YjZ7pyrAJJOGW[] = {
/* columns rows colors chars-per-pixel */
"64 64 25 1 ",
"  c #060302",
". c #4B0F0A",
"X c #260A07",
"o c #E73F14",
"O c #690E0A",
"+ c #AC2212",
"@ c #80160D",
"# c #9C1B0F",
"$ c #C52512",
"% c #A03420",
"& c #291513",
"* c #C04021",
"= c #F8EFE9",
"- c #4D1D15",
"; c #C76036",
": c #882F1E",
"> c #695B70",
", c #483130",
"< c #7A4537",
"1 c #DDBDAE",
"2 c #C88165",
"3 c #E4923C",
"4 c #D9AC81",
"5 c #9A5A48",
"6 c #A17D79",
/* pixels */
"         XXXXXXX.........OOOOOOOOOOOO......XXXXX                ",
"XX      XXXXX........OOOOOOOOOOOOOOOOOO.....XXXXXX              ",
".X>,,>,>,,,.......OOOOOOOOOOO@O@@@OOOOOOOO....XXXXX     ,&,,,,  ",
"O.--,,-<-,<...OOOOOOOOOOOO@@@@@@@@@@@@@@OOOO...XXXXXX   & ,&,&  ",
"OOOOOO.::-O@@@@@O@@@O:%@@@#%%#@###+*%#####:@OO..-X-...-&  --X   ",
"@@#oo@@oo**ooooo:%o**ooo@*oooo*++;*ooo*#oo%@@O%o%.ooooo&X<%oo&XX",
"###*o*@%o%*%%*;*:%o;@@oo@%##*oo**o++*o*#oo@@@@*o*O%::::X%.X:o*X.",
"++#+oo##*@%@:*%:@%o*@@oo#%**+*oo*oo*;+*#oo##@@%o*O::%%-.oO..oo..",
"$$++*o**##%%*oo5@%o*@@oo#*o*++oo+*ooo+*#oo###%%o*:;oooo:o%OO%oOO",
"$$$$$oo$*+**#*o*@%o*@@oo#*o*++oo+*;oo+*+oo##+%%o*:%@@%o*oo@@#o@O",
"$$$$$;$$;+oo#%oo@%o*##oo#*o*++o*$oo+;**+oo##**%o*#o%##**oo$##o#@",
"$$$$ooooo$oooooo*%o*##oo+*oo++o+$oo+*o*+oo#+o**o*+oo**;+*oo$*$#@",
"$$$oooooo$*o*+%*****+%********++***;***************oo*$$$$oo$+##",
"ooooooo$$$$++++######++++#%:#++++++++++++++++++++++$$$$$$$$$$$##",
"oooooooo$$$++++##+++++++#@55@#++++++;*++####+#+++++$$$$$$$$$$$+#",
"ooooooooo$$$++++++++++++@@@@@@+++++;;5%%####++#++++$$$$$$$$$$$$#",
"ooooooooo$$$$++++++++++#@@%%@@+++++3;5<<######++++++$$$ooo$$$$$#",
"ooooooooo$$$$++++++++++%@@#@@@#+++%3355<:#####++++++$$$oo$$$$$$#",
"$$ooooooo$$$*+##++++++#@:;;%%@##++%3;;5:%%#######+++$$$$$$$$$$+#",
"$$$$$ooo$$;333***%%*++#::%%%%:%##+*;;;@O%*########++++$$$$++###@",
"$$$$$$$$$$o33;;*;2;5122::%%%#::##++#@#%:%:##########++++$+$###@O",
"+$$$$$$$$$$*%@@:%2;51=4@@@%#%:%##++##*;;%@5O@########++++$*#@@O.",
"++$$$$$$+++$+++%%;2;2=4@@%%%2::###+#%*%%@:6OOOO@###########@OO..",
"#++$$$++++++++$$$;;;211O54;515@%##@OO5%%@:@OOOO:%######@@#@@..XX",
"########+++++++++**2441O1====6@42@OOO@@OOOOOOOO52@@######@@..O..",
"+$$++##$****$$$**$*114=1=====16=12OO@@@O@OOOOOO61%#+$$$$+@@$@OO.",
"###+o$@#$+$#+#$$$+*11============15O%*;@@@%*;*:112@@+#*$#O$o@...",
"#@@+o+@####@###%+*%==============11:*;**@@@;;*%112@@#%;+%@$o@..X",
"##@+o$@O:%%%%O@@%*%=============1;25*;**@@@*;%*1=5:O@:2#@.$$#:.X",
"#+@+o$@@O:::@@:%*%*==========1222211;**#@@O%**%4=;5:O:;@..+$#.-X",
"+;@++%#%:**;%%;%@#%=========122;;4==%##@@@O@OOO4=41:++O#%@:$#..X",
"*;+***#%@%%;%;3:@@2=========442;2===4@@@@@OOOOO4=155##O@OO-$@.XX",
";*#+%;@::@@O:5%@:@1=========44;;%===1@@@@OOOOOO21425O-OO.OOO#OX.",
"3*#+%4%;2:+::%;:;@1=========43***1==1@@@OOOOOOO:1155:::O,.5,#OX.",
"3;#*%2%;;#*%%%;@%@461111===4**%#o1==44@OOOOOOO.<=455O:%O-.5-:.&X",
"3;**#%%*%#######@OO.OOOOO:2*%%#+*2=1335OOOOOOOO11;*:++$$$$*$@$+#",
"333;;;33oo$$$$$:-.....OO@%:%:@*3331334=1OOOOO.5=1442oooo3333%oo$",
"4333;;433o$++$%-.......@;%:@OOO233%33===5OOO..6===2:+o;33333:o$$",
"oo*;*;<:%%%%%*-......-:;;:..O@OO$*O:1==<6OOO..<<6=<.O@@@@@@OO..X",
"oo*@@O.....@26>,....--;;5:-O;<:O$@OO:166OO....-556.XX.O.XO@O..XX",
"o$++#%OO:@:46>>>-.-..<55<,>%*<<.O@...O:@52:OO:5O-..XXXXXXXXX    ",
"$+##@@OOOO54>>>><-..-::<-,><:<<........O;25O%55<...XXXXXXX      ",
"$+#@@OOOOO:2>>>>....OO:::<><-<,...-....O%555:55:..&XXXXX&&XX    ",
"+#@@OOOOO.-6>>>>..---.-O@:<,-,-.......OO:%:::%5-..X&XXXXXX      ",
"@@OOO.....-6>>>>-...---:::<,,--.......@@@OOOO@-...XXXXXXXX      ",
"@OO.......<2>>>>-....--:::<,---......O@OOOOOOO..XXXXXXX         ",
"O.........52>>>>-.XXXX---:<--,&X..........-O--..XXXXXXX         ",
"..XXXXXXX.52>>>>&.XXXX.---<--,&X.X&&......----..XXXXXX          ",
"XXXXXXXXXX52>>>>&.XXXX.---<---&X&&&&&--...----.XXXXXXX          ",
" XXXXXXXXX56>>>>&-XXXX.---&--&&X&&&&&--.-.----.XXXXXXX          ",
"   XXXXXXX<6>>>>X..X&&.---X&,&&&&&&&&---..---..XXXXXX           ",
"      XXXX,5>>>,X....&.--.X&&&&&&&&&&---.&----&&XXXXX           ",
"       XXX-,,,,,X&XXXX.---&&,&&&XX&&&---&&---.&XXXXXX           ",
"         XX    ,&XXX&&&--&&&,&&&&&&&&--&&&--&&&XXXXX            ",
"               ,&XXXX&&-&&&,&&&&&&&&&--&&&&&&&X&-&X             ",
"               &&XXXX&&&&>>,,&&-&&&&&-&&&X&&&&XXXX              ",
"                &XXXX&X&&,>>>,&<4416&&&&&X&&&XX      X&>>X      ",
"                & X X&X&&,>>>,&<4416&&&&XXXXXX       -,>5&      ",
"                     XXX &&&&&&,646>&&XXXXXXX        .,,<&      ",
"                      X       ,&666>,XXXX            .<,<,&     ",
"           X                  &&666>&XX             XX-<,,&     ",
"                              X&66>,XX               XX&<,,     ",
"                         X     ,>>,                     -<,,    ",
"                         .     >>>,                     X-<,&   "
};
