/* XPM */
static char *_feabda5035841e1817d2ef4b80a07ee1Q36Y4yWTCRS4IxF[] = {
/* columns rows colors chars-per-pixel */
"64 64 25 1 ",
"  c #010101",
". c #FEFEFE",
"X c gray2",
"o c #DED5D8",
"O c #ECE5E9",
"+ c #F6F4F5",
"@ c #272221",
"# c #110E0D",
"$ c #C8C4C8",
"% c #3F3433",
"& c #827D84",
"* c #9A949A",
"= c #535053",
"- c #6D666A",
"; c #B4B2B8",
": c #A6A4B1",
"> c #5D423C",
", c #9E706C",
"< c #825750",
"1 c #C2A4A5",
"2 c #E6B5B1",
"3 c #BC8983",
"4 c #C75F7C",
"5 c #868FB2",
"6 c #A24055",
/* pixels */
"XXXXXXXXXXXXXXXXXXXXXX               X@,<>##@@@@@@@@@           ",
"XXXXX XXX X                          X@,>>##@@@@@@@@@           ",
"XXXXXXXXX X                          X%3>>X#@@@@@@@@@           ",
"XXX X  XXX                           X>3>%X#@@@@@@@@@           ",
" X     X  X                         X#<3>%X@@@@@@@@@@           ",
"  X                               X#%%><%@#@@@@@@@@@@           ",
"XXXXXXXXXXXXXXXXX X             X%,<>@@@###@@@@@@@@@@           ",
"########################XXXXXXX#<3,<>@#####@%%@@@@@@@           ",
"@@@@@@@@@@@@@@@@@@@@@@@@@@#####<3,<>%@@@@#X#%%%@@@@@X           ",
"%%%%%%%%=-=%=%%%%%%%%%%%%%@@@@=,,,<>@@%>>>@###@@@@@#X           ",
"-=======$o:&-&-&-====%==%%%%%%-<33,,,,,33,<%#X#@@@@X X          ",
"$$$O$o$-$OO$oOooo&--========%=<3OooOOo2213,<@##@@@@             ",
";$;$;;:--:;;;;:*:----=========<O.+++Oo2223,<%#X#@@@X XX         ",
"*;;::::--&::**&-----------====<++++Ooo22233<>#XX@@@@#           ",
"-------&&&&&&&-----------&--->,+++OOoo22233<>#XX@@@@#           ",
"%%%@@#######XXX#XX:++++++...:%,O+Ooo2221333<># X@%%@#           ",
"                  ;.........*@-O23,3333<<<<<>X X@%%@#           ",
"            X     ;.........*@-1,<><,3<>%>>%%X  @%%@#           ",
"     XXXXXXXXXXX  :.........;@,1,<%>32<>@@>>%X  @%%@#           ",
"      XXX XXXXXX  :.........$=323,<,22<><>%>>#X#%=%@X           ",
"              X   *.........+&*+o112o1<,,,<<>#X@==%%X           ",
"                 X*..........13+Ooooo1<,333,>#@%==%=X           ",
"                %*o..........o3oooo223<,333<>#%===%=X           ",
"                =oO+.........O3oo22,,<%<33,<>#%=====            ",
"                %$o++.......++*2o221<%@<,3,<@@%==%==            ",
"                @*$+++++++++O+*2o22,%%@>,,<>#@%%=%==            ",
"@###X           @$O+++++OOOOO.*322,<<<>>><<@X#@%%%==            ",
"XXXXX#X         #-;+++OOOoooo+$,11,3446><<>@#@XX@%%%            ",
"X      X        X#&++OOooooo$+o-3221,<<<<<%@&$*# #%@X           ",
"XXXX XX@**::::;;:@&++OOoooooO.;-3222,<,,<>@@-&$-X #%%#          ",
"XXXXX X@O++.....+%&++OOOooOo+.O$3122213,<%@>-*;&@  X@%@X        ",
"XXX XXX#;$*****&&@&+.++O$OO+..+$2<,3,,<>@#%%%&&&=  XX#%%#       ",
"XXXXXXXX*$oooo5%-&o............o2,%%>>%#X@>@@-&-%   X##@%@X     ",
"XXXXXXXX*O.+..$*:;+.....+.......o2<%@###@>>@>-&--%   XXX#%%#    ",
"XXXXXXXX$.........;**+Oo;.....+.O213<>>>><>@=&--*&# X XXX#%=@X  ",
"XXXXXXXX:.+......;===*:&$.....O+.o313,,<<<%=&&=**&=@XX XXX#@=%# ",
"XXXXXXXX*........+OOOOO+.+.....+..;333,,<>=&*-&:&=&*-@X XXXX@%=@",
"XXXXXXXX-................+........O;,,<<>=***&:*-**;;;&@XXXX##%=",
"XXXXXXXX%o+.............O+.....+O+Oo*<<<<*::*:*-&;;;$$$;=X X XX@",
"XXXXXXXX#$+............+o...+...+OOO$<<<:;;;;*&-*$;$$$$$;-XXXX X",
"XXXXXXXX#&:;;;;;O......OO....O+...OOo:&&*$$$:&&*;$$$:$$o$;=X  XX",
"XXXXXXXX  XXX@#=+......OO...++O++..O$*&*&;$;&&*;;$o$:ooo$$*@  XX",
"XXXXXXXX X  X#%o.......oo...O.+OoooOo$*&-*:*&&:;;oo$;ooOo$:-  XX",
"XXXXXXXXX=XX#@:........oo...+...OOO+Oo$&*&*&&:$;$oOo;oOOO$;*#XXX",
"XXXXXX   %%#=-O.......+$o+..++......+O$**&&*:$o;oO+O;o++O$$*% XX",
"XXXXXXX   XX=o....++..O$o+.+++.......+o::*;oOOo$o+.O;o++O;O*=XXX",
"XXXXXXXXX X@-.....++..O$o..+++........+;$*:oOO$$O..O:o++o;+*&#XX",
"XXXXXXX X #@;....++...o$o..+++........O;o$;ooo$o+..O:o++;;+:&%XX",
"XXXXXXX   #%+.....++.+o$o..+++........O;oo$$o$$O...O:$++:$O:&-XX",
"XXXXXXX  X :......++.+$$o..+++........O;ooo;$$o+...O:$Oo*oO;&&#X",
"XXXXXXX  X@+......++++$$o..++++.......O;oOO;$oO+...O:;Oo&OO:&&%X",
"XXXXXX  XX*.......+OOO$$o+.++O21O+...+O;ooOooOO+...O;;O$:Oo;*&=#",
"XXXXXX   @O......+O$o+$$o+.+O44214424466664463O+..+o::o:;O$:*&&#",
"XXXX     &......++o:oO$$o+.+o64262446444621626o+.+O$**$&;O$;*&&%",
"X     X #o......+O$:oO$;$+.++24444414461364664o+++O$*&;&$oo;-&&=",
"X    XXX=......++O$*OO;;o++++o555555:;:5$5;:;;oO++o;*&;*Oo$&&&&-",
"     X  :......++O$*+o;;o+.++O;55555:555555555oO+Oo:&&;:Oo;&&**-",
"     XX%O...++++Oo;*+o;;O+++++OoOOoO++OOOO+OOOOOOO$*&&:&$$:&**&-",
"   X#%-*..++OOOOOo;*+o;$O+++++OOoooO+OOoooOOoooooO$*-&:&$$*****&",
"X #@=--;..+OOOOOOo;*+o$$O+OO++OOoooOOOoooooooooooo$*-&::$;*&***&",
"    XXX$+.+OoooOo$:*+oooO++O++OOoooOOOOOOooooooooo;&-&:*$;&&***&",
"     #%O..O$$$oOo$:&+Oooo++++.+OoooOOOOooooooooooo:&&&**$:**;::*",
" XXX=:$O.+Ooo$oOo;:&+OoooO++O++OoooOOOOOoo$$oooooo:&&**&;::;;;:*",
"XX###-oO.+Oo$$$oo;:&OOoooOO++.++ooooOOOOoo$$ooooo$:&&***:*:;:::&"
};
