/* XPM */
static char *_6fe289a9c7845ece8de72ea4cfe9a97naSVN2fYQumY8bix[] = {
/* columns rows colors chars-per-pixel */
"64 64 25 1 ",
"  c #010103",
". c #3F4B41",
"X c #4F4138",
"o c #637E80",
"O c #49564A",
"+ c #3F342E",
"@ c #5B7677",
"# c #516B6C",
"$ c #2E3529",
"% c gray3",
"& c #15100F",
"* c #81736E",
"= c #262D26",
"- c #333D34",
"; c #625652",
": c #74635F",
"> c #291A18",
", c #5D4C46",
"< c #475857",
"1 c #1C1F1C",
"2 c #322621",
"3 c #656160",
"4 c #878080",
"5 c #786E6C",
"6 c #939191",
/* pixels */
"<OOOOOOOOOOOO.-1 %%%%%%                        &-ooo#@oo#       ",
"<OOOOOOOOOOOO.=%%&&%%  %&&&&&%                  1#oo#@oo#       ",
"<OOOOOOOOOOO.-1&&&% %&2++++++2>>&%   %          %.@o#@oo#       ",
"<OOOOOOOOOOO.=11&  &2X,;;;;;;,,XX2&  %           1<o#@oo#       ",
"<OOOOOOOOOO.-===%%&$X;::555::::;,X+%   %          -@#@oo<       ",
"<OOOOOOOOOO.$==1%1+,;:5******55::;X>%             %##@oo<       ",
"<OOOOOOOOO.-===&&+X;5**********5::;X&              -<@oo<       ",
"<OOOOOOOOO.$==1 2,35444*********55:,+%             &<@oo<       ",
"<OOOOOOOO.-==1%%X354444**********5:;X>              -@oo<       ",
"<OOOOOOOO.$=1% &;*44644***********5:;+%             1@oo<       ",
"OOOOOOOO.-==&  =3666644**********5:::,2%            &@oo.       ",
"OOOOOOOO.-=1%  $*666644******55555:::;X>            %#oo.       ",
"OOOOOOO..=&%  %-46666444*****55555::::;X&            .oo.       ",
"OOOOOOO.-1&   %.46666644**********5::::;X&           -oo.       ",
"<OOOOOO.$1%   %<6666664***55*5****55::::;+%          =oo.%      ",
"OOOOOO.$1%    &36666644*55::5:5555::::::;,2          =oo@<<<...<",
"OOOOO.-1&     13666644*5::::::::::;;;;;;,;X&         =ooooo@#@@@",
"OOOOO.=%%     =56453333;;;;;;;,,,,X++2+++XX>         =oooooo#ooo",
"OOOO.-&%%     -443O-$==$++X,;,X+2>&%%%&111>>         $oooooo#ooo",
"OOOO.&% %    %.5;.=1%%%&122X,X2>&      %&1>>%        -oooooo@ooo",
"OOOO.&       %<3O-1%    &12X;,+>%  % % % %>2&        -oooooo@ooo",
"OOOO.=%      &35<=%&%%%%%&2,3;X2&%%1%%%1&%&22%       .@ooooo@oo@",
"OOOO.-&      155O&&-1%%1&1235:,+>>>>&&1$+22+X>       .@ooooo@o@@",
"OOOO..1      $**O-;.$11=>2+**5;+++>&>2++++X,,+%     %.@ooooo@ooo",
"OOOO..-1%    .445:3,X+222+;4**:X++2>>>2+XX,,,X>%   &&.@ooooooooo",
"OOO.....=    O46453X+22++,56**:XXXXXXX,,,;,,,X+2% &21O@ooooooooo",
"OOO......&   O464*53,XX,3546**;XX,,;;;;;;;;,,X++%&>+$<@ooooooooo",
"OOO......$ % O4444*::335444645,XX,;::::::;;,,XX+%2+X.#@@oooooooo",
"OOO.......11%O4444*5:::5*4464:,XX,;::::::;;,,XX2%2X+.@@ooooooooo",
"OO........-=%.444455::::55*6*:,+XX,;;::::;;,,X+2&+X21#@@oooooooo",
"OO.........=%=*444*5:::3::*6*:,X+X,,,;:::;;,XX+2>X+& &<@oooooooo",
"OO.........1%1544455:::;;3**5:;X+XX,,;;;;;,,X++2>X>   -@oooooooo",
"OO.........$%13*445:::;;,345;:;XXXX,,,,,,,,XX+2>&& %&-<@oooooooo",
"O...........&&355553;;;,,5*:;,,++X,,XXXXXXX+++2>%  1-@@ooooooooo",
"O...........=%O3333;,,X,,X+XXX2&>+,,X22+++++2>>&   %$#@@ooooooo@",
"O...........-%-;;;;,XXX,X2%>2>>>>+,,XX+22222>>1%   =-<#@ooooooo@",
"............-1-O<OO,X,;:;X+2>2+XXXXXXXX+222>>>1%  %$<@@oooo@@@@@",
".............$-.O..;::*4*:;X++XXXXXXXXXXX+2>>1&%  1.<@ooooo@####",
".............+--O.O3::545:;XXX,XXXXX++2+++2>>1%  1-<<oooooo@#ooo",
".............+=1O.O3;;5*5:;,,,,,,XXX+>&>2+2>1&% 1<##<@@@@@@@#ooo",
".............2-=-..;.X333;,XX,XX++>>&%%>2+211&%1<#@@<@@@@@@@#oo@",
".............2.--..O+1=.++2>>>>>&&&&&>2++221% =O#@@@<@@@@@@@#oo@",
"....---------=..--.O+11$>&&&&&&>>&&&>+XX222& %.<@@@@<@@@@@@##o@@",
"..-----------1---$-.X$+XX2>>>>2+2>>>2+X+222% 1O<@@@#<@@@@@@##@@@",
"-------------1------X+X,++2>>>>>>&>>+XX+2+2%&-O<#@##<@@@@@@##@@@",
"------------$1---..--XX,X+>>&&&&&>2++XX+2+1&=.O<#@##<@@@@@@##@@@",
"----$$$$$--$$1----<--X,;,,X+2>>>2++XXXX2++&&$.O<#@##<@@@@@@##@@#",
"-$-$$$$$$$$$$1----3-.O;;;;,X++22+XXXX++2+$%1$.O<####<@@@@@@##@@#",
"-$$$$$$$$$$$$2+$--3..O;;,,,X+22++XXX++2>$1%=-.O<####<@@@@@@##@@#",
"$$$$$$$$$$$$$2$$$-;;.O,;,,,X+22+++++++>11%%$-.O<####<@#@#####@@#",
"$$$$$$$$$$$$$2$$$$;3...O,;;X+222222222&&& 2+-.OO####<########@##",
"$$$$$$$$$$$$$2$$$$<3O-$-X,X+2222222221&&%&+++-.O####<########@##",
"$$$$$$$$$$$$$2$$$$O5;-$$-+22>>22>>>&&&  %+XX++&1-<##<########@##",
"$$$$$$$$$$=$$>$$$=.53.$==111&>>>>1&&%  %=XXX+X$% %.#<######<####",
"$$$$$$$$$====&$$1%-53<-1&&%&&&&&%%%%  %=+XXX++X2  %-.######<####",
"$$$==========&==  -53<.=&%%           1+XXXXX+X+    %-#####<####",
"=============%=1  -53;O.=%           1+XXXXXX++2      &.###<####",
"=============%1%  -53;<<.1%         1-XXXXXXXX+1       %-##<<###",
"=============%%  %;33;<33O1%       1-XXXXXXXXX+%        %=O<<##<",
"========1111&    =333;O333-&     %=+XXX,XXXXXX>            &<##<",
"====11&%         .333O;333.=&%%%1$++XXXXXXXX,+%             %-O<",
"==1&%            O333O;33<.$1111=$-+XXXXXXXO+%                 %",
"=&%              <333OO33O-=111=$--+++XXXOO-%                   ",
"&               %<333OO;<O-=====$-++++XXOO-%                    "
};
